<mxfile host="app.diagrams.net" agent="Mozilla/5.0 (Windows NT 10.0; Win64; x64) AppleWebKit/537.36 (KHTML, like Gecko) Chrome/141.0.0.0 Safari/537.36" version="28.2.7">
  <diagram name="Page-1" id="ER53EozHv71eX19fi5el">
    <mxGraphModel dx="1042" dy="561" grid="1" gridSize="10" guides="1" tooltips="1" connect="1" arrows="1" fold="1" page="1" pageScale="1" pageWidth="850" pageHeight="1100" math="0" shadow="0">
      <root>
        <mxCell id="0" />
        <mxCell id="1" parent="0" />
        <mxCell id="GZghd0yQkrCwtAf0KgPb-1" value="" style="rounded=0;whiteSpace=wrap;html=1;" parent="1" vertex="1">
          <mxGeometry x="80" y="80" width="790" height="400" as="geometry" />
        </mxCell>
        <mxCell id="GZghd0yQkrCwtAf0KgPb-24" style="edgeStyle=orthogonalEdgeStyle;rounded=0;orthogonalLoop=1;jettySize=auto;html=1;entryX=0.5;entryY=1;entryDx=0;entryDy=0;" parent="1" source="GZghd0yQkrCwtAf0KgPb-4" target="GZghd0yQkrCwtAf0KgPb-2" edge="1">
          <mxGeometry relative="1" as="geometry" />
        </mxCell>
        <mxCell id="GZghd0yQkrCwtAf0KgPb-25" style="edgeStyle=orthogonalEdgeStyle;rounded=0;orthogonalLoop=1;jettySize=auto;html=1;entryX=0.5;entryY=0;entryDx=0;entryDy=0;" parent="1" source="GZghd0yQkrCwtAf0KgPb-4" target="GZghd0yQkrCwtAf0KgPb-3" edge="1">
          <mxGeometry relative="1" as="geometry" />
        </mxCell>
        <mxCell id="GZghd0yQkrCwtAf0KgPb-4" value="" style="shape=image;verticalLabelPosition=bottom;labelBackgroundColor=default;verticalAlign=top;aspect=fixed;imageAspect=0;image=data:image/png,iVBORw0KGgoAAAANSUhEUgAAAZYAAAEPCAYAAABhkeIdAAAAAXNSR0IArs4c6QAAAARnQU1BAACxjwv8YQUAAAAJcEhZcwAADsMAAA7DAcdvqGQAAP+lSURBVHhe7P13fFzF9f+PP7dJq967rF5tWZZlCffejQu2MWAwYCAkQEIgJO903hBKCtWQAEkggAEbcMMFF9y7LFuukiVZlmx1q3dpd7Xt+8fvzv1dreUGzudN2dfjsY/dvXf6nDln5syZMyqbzWbHCSeccMIJJ24S1I4PnHDCCSeccOKbwClYnHDCCSecuKlwChYnnHDCCSduKpyCxQknnHDCiZsKp2BxwgknnHDipsIpWJz4xrDbnYaF3zY4+8SJ/0s4BYsTNx1OpvZ/D5VK5fjICSf+n8EpWJz4xlCpVE5h4oQTTshwChYnvjHsdrv8wTlbdsKJHzycgsWJmwKbzYbNZnN87MT/Aex2OzabzbmKdOL/DE7B4sQ3hmBkSsHiZGr/7+DY1k7B4sT/NVROX2FO3AzYbDZUKtW3Qg1mt9vlfR9leRxVdY7/bTYbarX6Moas3ENSxu0vj28DHMvqhBP/r+EULE58b6BkqNcSDkqBIGb4avX/bwHvGFbAMb7NZkOj0Vz23MnQnfihw6kKc+J7B8HoHRm+43vlbyFUxDNH4SBUSzabDbPZDIo4/YV3wokfMpyCxYnvFZSrBvFbKUiuBZVKhdVqxWKxyIKkP0FktVoxGAxyXiKcU8A44YRTFebE9whCiAihojQm6O7upqenh46ODqqqqqisrKS9vR2LxYLJZMJms+Hl5YXFYkGtVuPt7U1wcDDu7u5oNBpZSHl5eREVFYWfnx9msxm9Xi/njcPKxwknfqhwChYnvjdwFCxWq5Xm5mZOnjzJ6dOn0Wq1qNVqzp8/z/nz5+nt7cXT0xOLxYLFYsHX15fOzk48PDwICAjAw8MDg8EgC6Xe3l68vb1JTU1l/PjxjBw5Eq1WS29vLy4uLk7h4oQTEpyCxYnvDZRWXa2trVRWVrJ79242bdpEZWUlU6ZMITs7m56eHsxmM56engQHB6PT6eSVSnd3N25ubri6utLe3k5paSmtra309PTQ1NREfn4+9fX1TJs2jV/+8pdkZWVhNBpxc3OTV0lOweLEDx1OweLE9wZ2u52Ojg7KysrIycmhuLiY8vJyrFYrYWFh3HHHHUyYMAGdTtdnQ1/si/T29srCQaxu2tvbUavV6HQ6Ll26xKZNm1i5ciWXLl1i3rx5vPbaa7KqTJRBo9H0KZcTTvzQ4BQsTnwnYbfb5U12i8WCwWCgpqaG48eP89VXX1FXV0dSUhILFiwgLS2NsrIympqaCA0NJTY2lpCQEDQajWwyLARKdXU1RUVFeHh4kJycjJ+fnywozGYzRqORvXv38sILL2C323n//feJiorCxcUFnU6HyWTCzc3tslVLS0sLnZ2deHl54enpiVqt7iOQlLiWEcC13jvhxP81nILFiZsKJdMTKwIBR2Z4pfc26RS/1WrFbDbLDL23txer1YrRaJT3Pbq7u+nt7aWlpYX9+/dz5swZoqOjeeSRR8jMzJQ32T/99FP+/e9/o9frefjhh5kzZw5eXl7Y7XZZCFitVj766CPef/99NBoN9913H2PGjCE0NBStVovRaMRoNNLR0cGXX37J22+/zZQpUxg9ejTx8fEEBgbS3NyMl5cXVqsVrVaLTqcD4MiRI5w7d464uDiSkpLQaDT4+Pjg7u6OTqfDw8MDV1dXXF1dUavVfQSTcnWl3Me5koC5UruKd/3FccKJmwmnYHHiG8GRUTn+B+T9C7VajU1xQt9x1WG32zGbzfT09NDe3k5zczNNTU20tbVRUlJCY2MjTU1NlJaWUl9fT29vL3a7ncTERMaOHcvkyZMZMWIEfn5+aLVaVNIGfn19Pb/85S9Zv34948aN46mnnmLatGnyakW5N9Pc3MyhQ4fYsGEDbW1tpKamMmvWLNzc3MjNzeXChQukpaUREhLCCy+8QHFxMS4uLowdOxZPT0/OnTsnCzphWdbb24tGo0Gr1dLR0UFTUxMmk4mUlBTCwsLw9vaWf0dERODn5yevgDw8PHBzc0Or1WKXjBPUarXcfo5C3LHthWWceC7iiXSccOK/AadgceKqcBQU/c2GBaNSMi+kFYBggjabTRYeQoB0dXXJAqS4uBiz2UxjYyPFxcUUFhbS2NiIi4sLvr6+eHt7ExcXx7lz5/Dy8mLKlCkcO3aMc+fOsWzZMkaOHIlGo6GzsxOj0UhAQAA6nQ673c6RI0d48cUXaW1t5cEHH2T+/Pn4+/vLZRblE4JPrVbT1dWFq6srzc3N1NTUsGfPHlauXAnAj370I2JjY9m3bx9BQUHU1NQAsGjRInx8fDAYDNhsNgwGA1arlZMnT5KWlsbUqVOprKzkwIEDWCwWxo8fT1dXF4cOHeLEiRPk5+dTVlaG2WzGx8eH7Oxs2eAgLCxMNipwcXGRT/w7ChIBpUBx7D9lfZ1w4r8Bp2Bx4rpwpRnxlZ6jsNICqKuro7S0lLq6OioqKsjNzSUnJ4fa2lpcXFyIi4vjlltuYeLEiaSlpeHj44NOp8PT0xNvb29MJhMmk4nly5djNBpJT0/nzTffxGazsWPHDnp7eykqKmLdunWEhYVxzz334OXlRUdHB+fOnaOsrIyIiAjS09Px9PTEarWiUqnQaDR91EpiReU4oz906BB//etf2bx5M6GhoUydOpXFixczY8YMbDYbzc3NrF27luXLl/Pcc88xcuRI9Hq9nEZraysqlYrOzk7OnDmDp6cn48aNQ61WyysvkY5Go2Hr1q2cPn2aY8eOUVRURGdnJ/Hx8dxxxx0sWrSI9PT0y9pcCBNHgSH6SClInXDivwmnYHHiqlAKB7HawEGQCEYsXJ1otVoAKioqqKioYOPGjWzZsoW6ujr0ej0ZGRlMnjyZ9PR0/P398fT0JCIiAo1Gg06nkzfLRV5qtRqr1crp06d5/fXXKSkpwcPDgyNHjuDh4cGwYcNwcXFBq9USExPDwoULueWWW/qow4TaS6xKRLr9CREU9RarrubmZt544w3eeustent7CQkJITs7mz/+8Y+kpqaiUqlobGzkD3/4A1u2bCExMZHnnnuO+Ph42tvbeeedd1i3bh1arRZfX1/Gjh3L2LFjSUxMJCQkhLCwMNRqNRaLBY1GQ29vr7zK6+jo4MKFCxw/fpy9e/eSk5ODm5sbKSkpDBw4kNGjR5OdnU1ERITc9qLtkIwObDab3LbincVikfeAnHDiZsIpWJy4Kq6lMrFarVitVtkiqqqqigMHDnDgwAGOHz9OS0sLmZmZhIeHk5aWxpAhQwgLC5M3qv38/OQNeWHd1d7eTkVFBfn5+eTl5XHu3Dl5k769vR2z2Yy7uzsAHR0d6HQ6fH19+elPf8rChQuJiYlBr9dz6NAh3NzciI+PR6/Xc/HiRXl1hMRw29vbAQgICLisniaTCZVKhdlsRq1WU1BQwKuvvkpBQQEPPPAAM2bMICoqCldXV3Q6HVarlX/96188//zztLe34+fnJzNuodLat28fO3fuJCoqiq6uLrq7u9FoNLi6usqHL9PT00lLSyMsLIzQ0FB8fX1Rq9Wy0UJrayuXLl3i3LlzVFVVce7cOXnlN2jQICZOnMjIkSPR6XS4urri5eUlC2shVK+lSnPCiW8Cp2Bx4qoQjAiFvr63t5fW1lYaGhq4cOECp0+fpqmpibq6OtRqNXFxcQwbNgwfHx/sdjuRkZF4enqi1+txc3PDaDRSVVVFSUkJxcXF8scm+dtyc3MjODiYsLAwAgMD8fDwwNvbG71ez4EDB8jLyyM+Ph4fHx/27NmDWq3mqaeeIjw8HG9vb/z8/Ni+fTubNm1i1KhR/PjHPyYxMZGPPvoIg8HAXXfdhUqlYv/+/ezYsQOTycSsWbOYMGEC/v7+NDU1UVZWxnvvvUddXR3p6encfvvteHt78/HHH/PZZ59hNpvx9vZGp9Ph7u5OVFQUISEh6HQ6tm3bxrlz5zCZTGg0GkaPHs3gwYMZPnw4bW1tHD9+nMcee4zGxkba29vp7u6mrKyM4uJiysrKaGtrkzfu4+PjGTJkCImJiURERBAaGkpoaCiurq50dXVhNpvp7OykqqqKwsJCzp07R3V1NW1tbWRlZTF69GjS0tKIjIzEzc2tT1864cR/C07B4sRVIfYckA4Qis313Nxc8vLyaG1tJTY2lsTERGJiYggODiYgIIABAwag0WiwWCx0dnZSV1fH2bNnOXnyJKWlpbS1tcmMUex9+Pn5yWqhoKAg/P398fDwkM12NRoNGzZs4LPPPpMtqRobG4mJiWH48OE89dRT2Gw2AgICKCsro76+nmeffZb77ruP4OBg3nrrLXp6enjwwQcxGAysW7eO7du309nZyciRI5k4cSIzZ87kpz/9KV1dXeTl5eHp6UlGRgZz5szB3d2dTz75hLVr1+Lr60t2djb+/v50d3fT1NREXFwce/bsobGxER8fH5KTk6mpqSE6Ohqj0cjw4cNJSEjg4sWL/O///i89PT2y2stgMNDR0SEbM6hUKtrb26mvr6eoqIiioiI6OjrQ6/X4+fmRnp7O7NmzCQkJITQ0FJ1OJ69mOjo6MBqNVFRUUFBQQHFxMUajkbS0NGbOnMnw4cPx8PBw7GonnLhpcAqW7ziuR53R376I4zvxW6iDhArMbrfT1tbGuXPnOHLkCCdPnqS2tha9Xk90dDRpaWmkp6cTEBBAcHAwrq6u1NfXU1tbS2FhITk5OVy6dInOzk6am5sBiI6OZsiQIcTFxeHl5UVwcDAxMTHyZr27uztqhwOEKpUKi8VCeXk5x44do7i4GF9fXyZMmMClS5fIzc3liy++oLCwEL1eT2BgIGPGjOHhhx8mOzsbvV7PhQsXKCoqIjQ0lEGDBlFVVUVtbS0Afn5+BAQEEBERwfr163n//feZM2cOKSkp+Pj44OnpyZo1a3j77be5dOkS7u7uhISE4Obmhru7O/fddx/p6enMmzeP9vZ2pk+fzk9+8hPa29uprKwEyYChq6uLxMREUlNTmTdvntzGot3tdjsWiwWVSoXJZKK9vZ1Lly5RV1dHd3c33d3dXLx4kYKCAlpaWuQVk4eHB7feeiuDBg0iOjoab29vWlpaqK6upr6+nu7ubmw2G+3t7ZSVldHc3ExaWhrTp08nMTFRLodobyXN9Ec/IqzyXX9q0/7iOvH9h1OwfIfhKFSUQkL8FwxD+UzJrJWqLuHl18PDA5vNxpkzZzh58iQ5OTmUl5ej1+uJiooiPDyc6Oho4uLi8Pf3R61Wo9VqaWpq4vjx4+zatYvW1lbq6+vRarW4ubmRlZVFVFQUAQEBREZGyqsbYTmlljbSBbOyS1ZSKpVKfm8ymejp6aG6upq9e/diNBq5//776ejoYM2aNbz11lvU1taSnJzMkiVLGDdunCwYhJBqaGigo6ODoKAgfHx8sFqt8v6DaA+DwcCKFSuYNWsWERERIO3HHD9+nDfeeINVq1bJbaZWq9Hr9YwdO5bAwEBiY2Ox2WycOnWKpUuXYrFY8Pb2Rq1Ws3z5csrKypg+fToRERH8+Mc/ls/xiFWZkmE79q/NZsNkMtHY2EhZWRkVFRV0dHTQ2NhIbW0tWq2WxsZGPDw85IOYcXFxxMTEEBAQIO+BFRUVycIOoLKyEl9fX0aNGsWIESPw8vIChTBwpJ8rCSFlnP5UqE78cOAULN9ROM4Er/b/SszKZrPJJ9jd3d3p6emhvLycyspKWQ1kNBpRS5ZUSUlJZGRk4OPjQ3d3t6wSq6urk0+mC6Hk4eGBu7s7aWlp+Pv7k5SUREhICC4uLjKj0Wg08iaysoyCgYrnvb29dHR00NbWRltbGxUVFezbt4+KigoyMjKwWq2UlZXx1VdfYbPZSE1NZciQIQQEBDBx4kTGjh1LQEAAKmnVU1lZSWtrKykpKbJKyGazYTQacXd3x2azUV9fj7+/v2xJplarqaur4/XXX+fll1/u09YuLi5kZmYSFRXF7373O/z9/Tl8+DDl5eWUlZUxb9486urqePXVV2lsbCQ2NpYBAwYwbdo0goODCQ8PlwWdWIE4Mm9HiHaxSSbKLS0tVFVVcerUKS5cuEC7dCWAVqvFz8+P5ORkMjIyiI+Px9fXV45XUVFBTk4OdXV1uLq6EhYWRmxsLEOGDCE6Olq+FsDmcN+McoV1pXKK5/29c+L7Dadg+R7AUagon4tT70ozU5U0MxcegJuammhqapKFSldXF59//jmvvvoqgwYNIjExEaPRiEqloqWlhby8PPLz8yksLKSkpISgoCBGjRpFcHAwWVlZJCYm4ubmhl6vJyAgQDaBFWUSEOU1m810d3ej1+vp6uqivr6eqqoq2tvb6ejooLa2lvr6etrb2+np6aGlpYULFy7Q1dVFVFSUvNEtvBaLE++RkZGMGTOGMWPGEBgYSHd3NyUlJezatYuWlhZuv/12brnlFpk5irqr1WpqampIS0sjICBAXu3s37+fV155ha1bt6JSqfDw8CA2NpaBAwcyfPhwsrKyGDRokHxI8sknn+TEiRPcd999hIWFyZvrFy9eJDo6mtDQUFxcXGSh5ubmhouLC3q9Hl9fXwYOHEhMTAwhISF4eHjI7SXa0Gw2y/E1kgeBrq4uqqqqKC8vl1V91dXV8vmYoKAgwsPDGThwIEOHDiUkJASTySSXq7OzU97vUalUxMXFMWLECGJjY+VVpd1BdXcl+hO40nMnvr9wCpbvOPpj1GKmaJfOlqjVatks193dHZVKRV1dHQcPHuTo0aN0d3ej1Wrx8vLCxcWFoKAgXnzxRT744ANCQ0MpLS2lpKSEtrY22c2Ki4sL/v7+eHt7M3DgQCZPnoy/v7/sPl4wHMGA+mOKzc3NVFdXU1payoULF9DpdLKqq7m5Gbvdjru7u7zn4O7ujpubG3a7naqqKoxGI1OnTmXAgAF4enpSX1/Pf/7zH7RaLUlJSdx///0MHDgQNzc3amtr2b9/P3v27JHPvzz++OPcdttt+Pr60tPTw6lTpzh58iRqtZqioiKWLl1KRkYGWq2W6upq3n//fd5//31qa2txd3cnMzOTO+64A29vb/Ly8hgwYICs7isoKODtt98mKiqK++67j8mTJxMUFMSuXbvIyclh+vTpsusXodbq7u6mpqaGiooKjEYjAwcOJD4+nvDwcGJiYuTfYjUoVn/KftZKrl9EmwsLvLy8PE6ePMnFixcpKytDrVYzatQooqOjGTt2LEFBQfI5mNLSUrZt20Zubi4qlYqUlBTS0tKIj4+X929Q7MOppLNCoq+VcAqVHyacguU7DiFExG8lBNOxWq1UV1ej1+vp6enh3LlznDhxQrY0Cg8PZ/z48cycORNvb2+ampq49957iY2NRaPRcPz4cTo7OwkNDSU5OZnhw4czYsQIoqOjcXV1xabYC0HhGwyFs0Sz2UxbWxtVVVXU1NTQ0NBATU0NZ8+e5ezZs3R2dhIVFSU7ZvT19SUsLIzExETi4+MJCgoiICBAdvC4f/9+Tp8+zcKFC/Hy8qKiooIjR47w5JNPyvX+3e9+x9y5c2lpaWHv3r1s3LiR4uJi3N3dmTBhAkuWLJFXWb29vZSWllJaWiqvoKZNm0Z0dDQtLS2sXr2a9957j4KCAlQqFeHh4SxcuJCRI0eya9cuPvjgAyZNmkRoaCjR0dGcOXMGjUbDHXfcIQtdu93Ozp07yc/P5/HHH79MFdje3s7Zs2c5deqU7KWgsbGRuro6VCoVycnJpKam4ufnR1BQEKmpqfLGu1arxdXVFVU/qieL5ItN0MHu3bs5ePAgjY2N1NfXk5iYSHp6OrNmzZINKnQ6HRcuXODo0aPk5ubS1NREbGwsqamppKamEhsbi6enJ1qtVu5/JRz/O/HDglOwfMfRn2ARjFU86+npoaysjNraWvLy8jhy5Ah2u53hw4czdepUkpOTMRqN2O126uvrKSwsZNWqVezYsYOkpCQSEhK45ZZbmDJlCgMHDkSv18uzVbu0JyI2npFWI0KdItRsra2tVFRUcPLkSQoLCzEajXh7e8uf+Ph4pkyZQkJCgnx2xSydGNfr9Wg0GqxWq1zvEydOcPjwYSIjI6mrq+PEiRMcOHCAAQMG4OLiglqtJisri4SEBNavX8/u3btpb29HpVIREhLCgw8+yB133MGuXbvIzs4mNTUVHx8fuc20Wi1Wq5WOjg7WrVvHP//5T06dOgWAr68viYmJBAcHU11dTUlJCQMHDuStt96itbVVZsyxsbH4+Pj0Ebjbt2/n7NmzPPnkk+ikw5NClaWcGFitVrnNTp06RV5eHpWVlZhMJjo7O9HpdAwbNoz09HRcXFwICwsjICAAX19f2ZuBMEpQ0oUQAiaTieLiYo4cOSKr9qZOnUpoaCju7u6yybe7uzu1tbWcOXOGsrIyGhoa8Pb2Jj09ncjISEJDQ+WVjtrB0aiAU8j88OAULN9h9CdIBPPo7e2lt7eX8vJy6uvr2blzJydOnMDNzY2JEycyY8YMBgwYQFdXFxcvXuTMmTPyGZXz58/j6upKTU0NTz/9tDwT10kXZPX29gLIjFE8EwKkra2N6upqysvLOX36NIWFhdjtdvR6PSEhIaSkpJCSkkJSUpK8GlGpVHR3d/dRs6gUVmIoLuLS6XQUFhaybt06SkpKaGlpITg4mMGDB3PnnXfi4+ODSjIOaGpq4rPPPmPjxo0UFBTQ1taGXq9n0aJFPPbYY6xatQqDwcDYsWOZM2cObtJdKiaTiZaWFg4fPszrr79Obm4uNpuN0NBQJk6ciJ+fH+vWrSMkJISkpCTuuece5syZQ2NjI/7+/vK+kk26AkCkuWPHDi5evMgTTzyBTdoQF+ok21V8fdmllWdLSwulpaVUVlZSVVXF7t27qaqqQiXth6SmppKSksKgQYMIDQ2VDQI0krscweTFhADpFH5bWxtNTU2sWLGCY8eOERISQnJyMunp6SQmJhIQEIBer+fSpUts376dQ4cO0dzczNChQ7n11luJiYnBx8dH3uwXfSd+O/HDglOwfIehFCbiv11SqdTW1lJWVsby5csBSEpKYsaMGWRkZKBWq6moqKCsrIzTp0+zbds2KioqSE9PZ8SIEdx+++3ExcXxn//8h7i4OEaPHi2folfm3dPTQ0dHB11dXdTW1rJ9+3aOHTtGQUGBvM8xdOhQYmJiGDFihKxmUe4DiFWPqIddWoGZzWZZOCifi7xra2s5e/as7KLF29tbNh8WnoldXV0xGo2YTCZOnTrF66+/zrZt27BYLMyfP5/XX3+dCxcu8Nlnn3HhwgV++tOfkp2dja+vL0VFRXzxxResWLFCNs11dXXl7rvvZsmSJRQWFlJdXc2cOXNIT0/HYDDg5+cn10fUyWw2o9Vq0Wq1tLS0sHHjRi5dusSvf/1rVJL6UIQXzNixrqJthCASqzexyjxy5Aj5+fnk5uZy/vx5Ojs7ZSGTnZ1NQkKCfE5HqK8chZfwxNzd3U1DQwPbtm1jy5YtmEwmMjIyuOWWW0hNTWXAgAF4e3vT2NjInj17OHDgAHV1ddx///0EBQURGxtLUFCQvMp0zMeJHwacguVbDiWTcXymZDoCHR0dbN26laNHj3LixAnmzJnDuHHjiIuLQy05Uzx+/DibN28mNzcXq9VKbGwsEyZM4JFHHpHVOAAbNmzg9OnTLF26lIiICOySiavBYKCtrY2CggI2b97Mvn37aGlpkR0jTp48mdTUVDIyMggLC+ujJkPhX0wwHiXz6a++KM5FiHelpaXs378fDw8PpkyZgk46ed7T04OHhwdqyaGjTqdDr9fT1tbG8uXL+eijj6ioqGDq1Km8+eabhISEsHfvXp544gnc3d156qmniIqKYsOGDezbt4+6ujrapeuJ09PTWbx4MVOnTsVut9PZ2Yler8dgMBAeHo7FYpGt4Xp6evD09MTNzQ2dTkdXVxdHjx7lyJEjhIWFMW/ePPz8/GSBIVYtoo7K9hJQChvl7+7ubnQ6HS4uLtglw4avvvqKFStWUFJSgk6nIzU1lenTpzN+/Hji4+Nl9/vKfJWwS3fTnD59mo8//pjNmzfj6urKuHHjePjhhxk2bJhsSNHc3MyqVav44IMPGDFiBBMnTiQ7O5vw8HA5D2V97P0cxFW+66/+/ZXRiW8vnILlOwJHIeI48IT6q6SkhL/97W/86U9/IiEhASQVUklJCe+++y5ffPEFDQ0NJCUl8fDDD3P33XfjJl0kJZi8mBGbTCbuuusufvOb3xAeHo5arebEiRN89NFHHDx4kO7ubsLCwpg1axZz586Vz6zY7XZZ/dIrXXIl9hAsFgtIHpBNJhNGoxFfX1+ZoQiBgySABOO1WCyYTCa5voWFhaxZs4bTp08TExODu7s7mzdv5uLFi7i6upKenk51dTURERFMmjSJu+++m+joaD777DNef/11YmJiWLZsGUlJSfLq6NSpUxw4cICDBw8yYsQIpk6dyrJly9i4cSNDhw5l6tSpmM1mduzYQU5OjlwWlbTySEtLIygoiPT0dGw2G3FxcbLa7+233+aNN94gKCiIrKwspk2bxqxZs9BJptJiZSaYrGgv8czezxkkEU4JR0bd1tbGpk2b+Pe//83x48cJCAhg8uTJ3HbbbWRkZBAaGiqnoZW8QStVcnbJ8OLIkSMsW7aMrVu3EhQUxJIlS7j33nuJi4uTaaelpYUVK1bwzjvvEBMTw49//GPGjRsnr3aF4LVLaj2xj4WiHrZ+VKBOofLdg1OwfIvhqHMXA81RqFitVo4fP84LL7xAdXU1ubm58qqjvLyct99+m1WrVlFXV8fQoUO57777uPXWW4mMjJSZh1radBUD3C7NRP/5z3/SLTlJzM3Npb6+nkGDBjFnzhxmzJjBwIEDsVqtuLq6yvp1UV6r4qIvkSaSeshut+Pq6npF5iFOmAvz2JqaGrZu3SpvoAuGJ5itSjr8qFarSUhIYMqUKaxbt476+no0Gg2zZ8/mV7/6FUajkVdeeYWenh6ee+45Ro0ahcFgkO9oMUmOI1UqFZs2beLll1/m9OnTDB8+HJPJxPHjx7HZbHh6ehITEwMKhqzRaDh16lSf1ZV4vmjRIsaNG0dZWRmHDh0iLy9PFpxCiERHR8tXCowdO5bIyEhcXV3lNnFktqK+Nsl4wiK53FeGsUl7PHa7ncbGRg4fPszGjRvZtWsXbW1teHp68qtf/Ypbb72VpKQkjEYjGsnbsig/Ei2aJW/Q+fn5fPjhh2zcuJHo6GieeeYZxo8fj6urK729vWzYsIHNmzdz4sQJwsPDuf/++5k3bx6hoaEg9Z1SAIo8lPSirMOVaMSJby+cguVbDME0lRDMSAzKvLw83n33XU6ePElKSgoLFixg0qRJrF+/ni+//JKcnBz8/f2ZP38+2dnZDBw4kMDAQFkHLoSK2WzGYrHg4uJCeXk5X331FXv37mX//v0YDAYWLFjA6NGjCQ8PJz4+XnYJ7+HhITNmsXdiMplkISNgl/ZktFotFsk9vpubG2azmaqqKpDuhS8rK+PEiRMUFxfTK91xb7fb8ff3Jy0tTd7wT0hIkO+s9/T0lFVhwcHBnD9/nuTkZA4fPszf/vY3Tp06hUajYcyYMTz44IPYbDZWrVpFQkICDz/8MNHR0Vy6dIkBAwaAJPh27drFM888Q35+PijumBk9ejSPPPIIWVlZfc7smM1mqqurefzxx1m4cCFz5szBYDDQ1NSExWIhPj6eqKgoLBYLNTU15Ofno1ar6ezspLKyUlZd9vT0oFar0el0xMfHM2zYMDIzM8nIyCAuLg536boAZd8JJu1IK0qGLIw5VCoVPT09lJaWsnXrVg4cOMDp06fR6/Xcdddd3HPPPQwcOFAW+iJdk8mExWLB1dUVi8VCa2sre/bskU2wExMT+fWvf01qair//Oc/8fT0ZObMmZSXl/Pxxx+jUqlYvHgxI0aMICEhQS6z2INSll25ahH1cKybE99uOAXLtxTKGZ1grmIm3d7eTkFBAatWraKqqopJkyaRmppKeHg4KpWKxx57jHPnzuHp6ckDDzwgnz0ICwuT9x8cZ4RdXV3yRv6aNWtoa2vD19eXcePGcfLkSR544AHmzJkjH6IUZRPnWESajmkLJiHq0dbWRn19PRUVFZSUlMjqJ5VkFWa320lLS+OWW24hMjKSoKAgfH198fHxQTiD9PDwkGfUGmmfRuSllfxl+fn5cfjwYdasWYOfnx9FRUXk5ubi7e3NkiVLGD16NDk5OXh4eDB//nzc3d1li7Tc3Fx+8YtfcOrUKUzSnSxTp05l0aJFDB06lMjISHx9fdHpdPIqzyZ5Mpg4cSLLli1j1KhRqKWLwkS7CKus3t5ezGYzGoXK0Wg00tTURFdXF11dXRgMBvlem4aGBjQaDS4uLgQHBzNu3DhmzJhBTEwMHh4esosWAZGv6AvRx8KaT6/X09vbS2dnJ52dndTU1HD48GE+/PBDent78fDw4M4772T+/PlER0f3WZGJtA0GA3a7Xb4+YevWraxbt47Ozk78/Px45JFHmD9/PlqtVt6rWbNmDQ0NDdx5550sXbpUpgu1pEbz9vZG28+5GKdQ+e7BKVi+pbBLM39xutpoNMqmwbm5uRQUFMiH+xISEoiOjqa3t5e9e/fyn//8hyVLlhAREUFISIjsEgRpkAoBZTQauXjxIrt372bnzp2UlpZiNBqZO3cu06dPl89DbN68Ga1Wy+zZs4mNjXUsap+BLxit0WjEbDZTV1dHTU0NmzZt4syZM3R0dMgz54CAAJKSkkhLS5NvkPTx8cHf3x9fX1+5nHq9Xl5hOTIcwTQFAxWuYVQqFUePHmXFihXMnTuXmJgYTpw4wYoVK8jPz2fy5MmMHj2a0tJSbDYb06dPJzAwkG3btrF69Wry8/Nxc3Pj2WefJT09ncDAQCIiIuT9ECFYBex2O0ajkezsbFavXk1KSopcRvFe+V9AtJddUg/ZpP2kXulSs4aGBmpra6mpqaGgoICDBw9SX18vn/UJCQlhzpw5jBkzBl9fXwIDA+XVlUras0Ji3oJhK38j7cOYzWZZ3blu3Trq6urw9/dn+PDhzJgxg6ysLPz8/EBaLSknE3a7nbq6OgoKCvj1r3/NxYsXGTJkCLNnz2bevHkkJyfT3t7OmTNn2LdvH7m5uURFRXHvvfdyyy23oNFoZEEr2tVRuAjh7MR3A07B8i2FYDQdHR1otVqZSVosFiZPnix7BxYHBLdu3cqWLVvQarX87//+L6mpqbI6Q6fTYTAY5MN7rq6unD59mi+++ILDhw/T3t6Oj48Pw4cP55ZbbiE7O1u+TMok+ZH6/PPPmTZtGiNHjuyzQhCb84LJA1RVVXHkyBEOHDhAaWkpHdI9I97e3nR3dxMUFMScOXMYPnw4vr6+ss8snXTjoWCwAmoHVyWOM3EUKy+rtPmvkq4Kfu6555g4cSLTpk3DbreTl5fHxx9/zKFDhwgODiYxMZHRo0fT2trKl19+SUVFhexsMzMzkzFjxsiWXkJ1h+R4UpRBMMHq6mrmz5/PqlWrZAEsyqosY3/1EOUWKw0Ue2xms5menh5aW1tl319nz55lzZo1VFVVERkZSXBwMC4uLjz66KNMmTIFvV6PXTroqRRcgh6U5emQ7nnRaDQ0NzdTXl5OaWkpOTk55OXlYTKZyMrKYt68eYwYMYKAgIA+8cX3oUOH2LNnDx0dHZw9e5aamhqys7NZsmQJt9xyCyqViqamJgoKCtiwYQOlpaUsXLiQpUuXyqpTIbD6g1LQOPHthlOwfItht9spLi5m06ZNHD58GA8PDyZOnMiECROIiIigtbWVHTt2sH79eiorK/Hy8uL222/n0UcflZmJRfJwa7FYaGtr4+TJk+zevZvc3FwuXbpEZGQkEyZMIDk5maFDhxIeHt5n49Yu3cfy+uuvk5mZyeTJky9Tf/X09Mg3SR4/fpzy8nLq6uooLy8nMzOTQYMGERcXR0JCAoWFhdTV1TF16lQmT56MSppBi41nZd0FA7ZJG8c6nU5WJ4kwODAcwaCRzmY88cQTzJ49mxkzZqBWq+nu7qayspKTJ09SWVkpX5m8f/9+uru7SUhIIDY2lvDwcPz9/dFJptJCkFila5hF+9oV+xw1NTU89dRTvPbaa0RGRvZpQ8cyC4j3Av3VSfnOKplq5+fn8/rrr8sm3j09PbIbGaGii42NZfjw4QwePJjg4GC57ZRCUdCIVTLAEPkbDAaqpFspi4uLKSwslC8tGzVqFNOnT5cnHyLOsmXLCAkJIS0tjY6ODs6fP095eTk1NTW4ubkxbtw42UqssLCQvLw8ysvL0Wg0REZGctttt8mHZfvDlZ478e2DU7D8l6BkJleDkpGI31arlZqaGoqLi/n4449pb29n+PDhjBs3jrS0NOx2u3yt7tmzZ9FoNIwfP57hw4czbNgw/P39ZQbYK/nA2rZtG+Xl5RQXF2O1WklKSmLQoEEMHjyY5ORkee9CyQhF+c1mM3//+9/x8vJi7NixhIWF0dnZyfnz5zl16hRnz56lsbGRhoYGIiMjSU5Olk9hDxo0iPDwcAIDA2VnjTt37iQ6Olre2xBCSrkqEeWwSzNtIXiUah7HsDhs/JrNZh544AHmzZvH3LlzZSGhlk7BNzc3Y7Va8fDwoLy8nNDQUMLDw0Fyv4LCwk0IUSG4lIJFJa1aLly4wD//+U/+53/+h5CQEASuRAciriOtKOslVi1WxT6bWq3m7NmzvPDCCyxZsoTMzEzUajWVlZUUFRVRVlZGXl4eFRUV+Pr6kpKSQmZmJunp6fJ9OqItRP6iXo5lMZlMdHR0kJ+fz86dO2X/cvHx8SxcuJDAwEAyMzPJzc1l3759jBo1iqFDh8pXLlRWVnLw4EEOHTpES0sLiYmJTJ06lREjRmCXJk55eXkcOnRIPkg7YsQIgoKC5DIIOLbRldrVif97OAXLfwGCGWoUumjx3HFwOD7r7u4mLy+Pzz77jOrqampqanjooYeYP38+arWanJwcTpw4QV5eHna7nREjRjBq1Cj5/hGdTofVaqWzsxOLxcK2bdvYuXMnu3fvJj4+ntTUVIYOHcrIkSP7WBmJ8lyJYe/YsYN9+/bh4eGBh4eHzMSqqqpwke4jCQsLY8KECaSlpeHh4SG7R7FKlmwqlYrKyko+//xz1Go1Dz74ID4+Plgks1mholG2iWOZRLn6gwgr2txgMLB48WJuvfVWFi1aJLt6ERArIRcXF0wmUx/T3t7eXlmNJMovVib2fvT9ZrNZZrwPPPCAvB/BVcp7PRCCRXxrtVp6e3vJycnh9ddfZ9myZfIhVJVKhUHy0VZUVEReXh4tLS20t7fT1NSE3W4nKCiIxMREkpOTGTRoEFFRUXK7iXZWtr1o997eXhoaGigtLSU/P5+CggLMkrPO8ePHU1xczC233MLEiRMJCwuTJwB26SBpUVERR48epaioiIqKCoYMGcKkSZOYNGmS7CT0zJkznD9/XnaImZCQgKurK2rFIVolPSjLyTdsZyduLjTPPPPMs44Pnfj6EIOxv4FKP8Qv/hsMBs6fP8+2bdvYu3cvDQ0NREdHo1arWbx4MU1NTaxdu5bly5dTX19PRkYGt99+OwsXLmTw4MGy00Gz2czFixf57LPP2LVrF5s2bUKv15Odnc2CBQvkO0hCQkJkPbxjeQRjFhvIwgniV199RW5uLhUVFVgsFsLDwxk2bBhz5sxh3rx5TJw4kZSUFNlti5jlK5mwTqfj4sWLtLe3k5ycLB+OtEuzcWU5lL/Ff8f2c4QyrMFgYNWqVSQmJsrOMx3jC6alkgSHiK98Lv4LKNMQ/Wu1Wtm6dSuBgYEMGjSoj5ByzPNGoSwfQHt7OydPnqS9vZ2FCxfKAlktrfrc3NwIDw9n8ODBjBw5koEDB+Lt7Y3RaJQ9FgiVZXd3t2yuLdJB0Y6CPrRaLd7e3kRFRTF06FASEhJoa2ujs7OT06dPk5eXR2xsLGlpabIzTyEM9Xo9kZGRDBkyhAEDBlBTUyMLErPZTHJyMoMHDyY+Pp7W1lYKCwu5cOECrq6uBAUF4eLiIpdJfCsFjHK8OfHtgFOw/BcgmKlyAKAYGEKtoZJMT8vKyti+fTs7d+6kpqaG2NhY7rjjDiZMmMDu3bupra1l06ZNnD9/npiYGJYsWcKSJUvIyMjAw8NDHlwAzc3NvPrqq3z88cfYbDaysrJYunQpd911F4mJifj5+ck3FDpClM8m3Sy5f/9+tm3bxqpVq9i3bx92u53k5GTGjh3LHXfcwZ133snkyZMZPHgw3t7e8h0hyoEuyqUc9GIT2kXy8yXUV6LNlOGV8a7EOJR5KBmOYPZJSUmyMYMyXcffjnk5luFqTMxqtbJlyxYiIiJITk7us0/1ddEf7djtdi5dusTBgweJjY0lOzsbq3SKXYQzGo309PSg0WjQ6/UEBweTkZHB8OHDiYuLk0+/X7hwgeLiYi5cuEBJSQkdHR197ryxShZloh6i/hqNhuDgYDIzMxk2bBhHjhzBx8cHb29vurq6aGxsRK1W4+bmJqvukKzJQkNDGTlyJB4eHrS1tbFv3z7a2trk/Rvhl07szVitVllNa1WYUItyKX9/k7Z24ubCKVhuMpSDUKWwGFISvdgsFWdH1q5dy1dffYWnpycPPfQQc+bMkdVYJ0+eZN26dbi6uvLjH/+Yxx9/nMzMTNylC7vEwLJYLFy6dInDhw+za9cubrnlFn79619zxx134Ofnh1arRS/dL+84GFXSfkRdXR2FhYWyT6u1a9dy4sQJent7GTlyJPPnz+fhhx9m5syZDBgwQJ6Va6QzFmLFoay/EiIvq9VKUVERjY2NjBw5EpXDakGEvVGI+IIBarVa9u/fT0xMDElJSfKKRaQtyuj4LXAlBqZ8L9rTZDKxceNG+XIu5ez/m0CZN5LQLy4uZu/evUydOpXo6GhwsDDrla4sdpX8gWkkKzlXV1diY2OZOHEiU6dOJT4+Hr1eT05OjnwBWrt0pbFoPxHfYrFgk074izZUSTeKHjx4kF/96lekpKTI54Wam5vR6XR4eXnJFl8Cbm5uDB06lBkzZtDV1SX7rTNKVykMHDiQtLQ0uru7KSoqoqGhQT6D4yGdw3LsL2W/KH878X8Dp2D5L0EMPOWAFwzCaDRSU1PDoUOH2LRpE9XV1cyaNYuHH36YwMBATp8+zfbt2/nb3/6Gn58fwcHB3HfffcyePZuAgADUkq7fJpn71tfXc+bMGbZs2cKhQ4d47bXXWLx4McHBwWikDW/B6MySGxSx/9MrOZUsLi7m888/56OPPuLTTz+lpKSElJQU+d6ShQsXkp6ejre3dx8BopKEknJmKt4pfysZs1qtlu9mnzRp0mUM/0YZg4jryPzVajXHjh0jICCAuLg42TjBMW5/3+J3f/+VH9G3JpOJzz77jIkTJ8r3k3wTONKMyE84szx16hR33nknXl5el6kQhTrMxcVFXnUI4SKgk+6Lyc7OZvLkyYSEhFBTU8Pp06c5duwYzc3NdHd3yy5eRB4ahUl0W1sbK1euJCMjg3HjxhEZGUlaWhp6vZ4LFy5QVlZGe3s7RqMRAE9Pzz4TG7VazZAhQ0hNTUUt+aErLCykvb2d6OhoxowZg4+PD8eOHePIkSN0dXWh1+vlSZLKYZUr4Pjfif/3cAqW/xIEcQsGIT4dHR0cPXqU9evXs3//fiIiInjggQcYO3YsXV1dbNy4keeee46jR49y55138vLLLzN37lzy8vIIDw+XBYs4l1JcXMzq1av54IMPOH/+PBMmTGDq1Kl9BrBGYe0jGERXVxfnzp0jPz+fM2fO8OGHH7JixQrCw8NZsmQJP//5z5k3bx6DBg3Cz89PHtBKQSkGtSNjEx9l3ZWM0sXFhbNnz1JcXMyIESNkL7/fFP3lefr0aVxdXYmKipJP1jvGEd/it0jDEcr3AmJF2tvbyyeffMK8efMICgrq0yZfB475i/91dXUcPXoUrVbLwoULsTkcsFQ57AcpBYqSoSvr7eXlxdChQ7nrrruYMmUK1dXV7Nu3jzVr1nDgwAG6urrkQ6sqyUBAq9VSVVXFp59+yj333ENQUBBqtRq9Xk9iYiJjx47FZrOxbt061qxZQ0tLi3zAVOQvVlVRUVGMHz+euLg4du3axdq1azGZTHh5eREdHc2IESNQq9Vs375dPlcTEREhG4c4jjEn/u/hFCz/BQjitkmb4DbJkqilpYUdO3awbt06LBYLP/rRj1i8eDEajYaysjI2bNjAK6+8QlBQEM899xyPPvoo7u7ueHp6ymbC/v7+mKX74nfs2MGKFSuoqKhg2LBh/OIXv+C2226TB5vBYOizkrBYLHR0dFBaWsqWLVt48803efvtt9m3bx81NTVkZGTw9ttvM3PmTPnuDrXijImSMSnrKuorZrI4qIlEHBFWLZnGVlVVERUVJTtzvBJDvxHYHfZBzp49i8FgIDo6Wva8LKC6ghrM8X9/5RJ9Ktqlvb2d9957j/vvvx9vb++bxuQc0ykrK+PUqVOkp6czePBg+b1oV2UdBESdRRjxTBnXYrGgUqnw8/NjypQpzJ49m5CQEEpLS1m3bp3sDic4OBgPDw+6uro4cOCA7D1aqMgE1Go1MTExpKen09LSwqZNm6ioqCAsLAwfH58+qlObtMkfERHB+PHjaWlpYe3ateTm5so+4gYOHEhCQgIHDx6kpKRE9u3m7e3dR7g48e2AU7D8l6GS9hQuXbrE008/zc6dO1m4cCGPPvooAwYMoKioiGXLlvHLX/6Sjo4OXnrpJV544QUGDhyIzWajsbERT09PYmNj5cG5du1ann32Wfbt20dGRga/+MUvuPfeewkJCZFNdzWSqqurqwuddGDu0qVLHDt2jBdffJF3330XrVbLAw88wDPPPMPAgQMpLCwkOzu7jyrHIjmmVDIuwQiUgkPJtISAEYJVDHjlZnBXVxf19fWoVCoyMjLkNMV7Ja6XaSjzE3HOnDlDc3MzsbGxhISEyIxUhKEfQSIg/iufi3BqhQmsVbpG+O9//zs///nPZeeUIq4ynxuBY5ms0sHIvLw8xo8f38c7tQhnVxhyOOYtfov/Ik1BL0ph4+HhQXp6OnPmzMFsNrNhwwa2bdvG9u3bcXd3l4XF7bffLvuoc0xfJQmqkSNHMmLECGpqali3bh2NjY0MGTIEi3R4V0kjHh4eTJ48mfDwcPLy8jh27Bju7u4kJiYSEhLCmDFjKC8vZ8eOHRiNRpKSknC5yr0yTvzf4HLTICeuC2IAKweycmChECpnzpzhgQceoKOjg1deeYW77roLX19fjhw5wu9//3vWrl3LkiVLWLlyJXPnzpXNK9VqtXwmwNXVlcLCQn73u9/x1ltvkZWVxdq1a3njjTfIyMhAJamk9JJrDiQ1iJ+fH52dnWzdupU777yT22+/nby8PB5++GG++OILnn32Wdm6Jzw8HJvNhklx74kQEHaFSxAlUxUMRAmRvwgj2kU5+IOCgggODqatrQ2btNejbEshaJQC50YgGJ1KUt2YTCasVqtcBxFGlEeUVRm/PyifK/u7s7NTdswo6inC9tdG1wslbfX09FBfX4/dbpcPReJQJpXDykX0lfK5MrwQKGLFokxHmCB7e3tz//338/HHH5OWlsaPfvQjbr/9ds6ePdvvhEB8i7Lr9XqGDRvGs88+y7JlyzCbzdxxxx28+uqrdHR0XNbXWq2Wu+66i88//5yFCxfy6quvMnv2bHbv3k14eDjPPPMMK1euRK1WM3fuXLZt24bBYJDLIdJSls1xbDrx34VzxXKDUDKl/iCYGdIm/csvv8zLL7/MiBEj+M1vfkNSUhImk4n169fzyiuvUF9fz1NPPcUf/vAHAgICsDqcgLbb7VRUVPD888+zbds22tvb+c1vfsPPfvYzoqKi5E1MMVsXTKK1tRWtVssLL7zAU089xccff0x8fDxPP/00L7zwAvPmzSM4OBiVtD+gUqlwc3Pjt7/9LY8++ihdXV3ySsXxc6NQMhxRJ51Ox9mzZ9m/fz+33nrrZbN8ZfgbyVMcbLRJ+w1tbW1cunSJmJgY2c0KV+m/64WgA5vkFeDEiRPU19dz22239anLN4GyvQAaGhooKirCzc2NMWPGfON9HAGRh5hEKNvoq6++orS0lLFjxzJx4kRmzpzJ9OnTuXTpErm5uXz22WeoJbWXu7u7vFJWCliLxSKrU8VKSBip7NmzB1dXV8LCwmR6Eytbd3d3hg0bxsCBAzl58iQrVqygpaWFIUOGyObOzc3NbNq0iZ6eHoKCgmRTeuVEQdmON6NfnLg2nILlBiGIVMyGxOARDEYjmWaWl5fzi1/8gqamJp588kkWLlxISEgIO3bs4De/+Q3btm1j3Lhx/M///A/Tp0/HQ/I+LAamGADPPPMMf/zjH9FqtTz88MNMmzYNDw8PwsLCiIiIkOMohYrFYmHHjh3ceeed7N27l+joaJ544gl++tOfcsstt6DX67FKZx80ksWPq6srZrOZnJwcrFYrWVlZcl2Vn68Lu8PqTqPR0NDQQF1dnXzzpDIPJSO4XoagUszKBWMTHqGjoqIYMGDAN66HgLJNTCYTxcXF1NbWMnv27D6HI28mSkpKOH/+PEOGDCExMfGm1ENAufoRfVRZWcm6devw8fHhzjvvlK3MoqOjmTJlCuPHj8dms/H555/z5ZdfotVqiY6Olq3vRDoqhct9tVqNq6sr0dHRDB48GK1Wy5kzZ1i/fj0xMTH4+/v3WfFqtVpCQkKYOHEigwYN4r333mPVqlXExcWRnJxMRkYG0dHRrFq1iry8PBISEggODlbU7P8/2buZ7eXE1eEULDcI5WBREqsYPJ2dnWzfvp3f//73JCcn86tf/Yq0tDTMZjOvvfYa//znP3FxcWHp0qUsXryYxMREXBVOHZHurT906BDPP/88mzdvZtGiRfz4xz9m7NixxMTEUFBQQEtLC5GRkfIpZ6t0r8elS5eYOXMmW7Zs4dZbb+WnP/0pDzzwAKNGjSIoKAi9Xo+Li8tlemm15FKlq6uLtWvXcvfdd8uC8psOSMc2UwpBg8FAb2+vfI2yyuHsz/UKFRyMJUT87u5uSkpKiIyMlC/yUkJZtuuFskwqacWXl5dHV1cXkyZNklWZ3xSibAKnTp2ioqKCyZMnyxZaNxt26WCkSqVi+/btlJaWkp6eLh8wdZG8UHt4eBAVFcWIESPIysqis7OTL774ghUrVuDi4kJUVJR81kqUU8ngtVotPj4+DBgwAJ1OR2VlJWvWrMHX11f2ZSag1Wrx9fWV7+apqqri888/JzIyUvZFN2LECM6cOcOXX36JzWYjMjISveRZ4uvQkhPfDE7BcoMQRCr2BARz7u7uZs+ePTz//PMUFxezcOFCFi1aRExMDBs2bOC5554jJyeHBx54gB/96EcMHz5c9jgrZnImk4lTp07xyiuv8PHHHzNs2DDuuusu5s2bR0JCAm5ubvLKprCwEIDk5GS5XB0dHezYsYO9e/fyi1/8grvuuouMjAzCw8PlvRcxuESeSgYp9OmfffYZY8eOJSAgAK3D7X5fB6LNxEf5rL6+nnPnzjFmzJjLBr4y7I1AmY/FYuH06dOEhYXJhwkFvo5QQQqvjGswGNi9ezchISFkZWXdtMORAirp1scTJ07Q2dnJlClTLrPC+roQba5se7VaTU9PD1u2bCEgIIDp06fj6+sr04L4COEQFRVFbGwso0aNoqWlhV27dpGTk4Na2iMUBySVce3SxWPu7u4EBweTmppKaGgoeXl57N+/H7vdTnBwcB8PBuKAZ3p6Oq6urnz66accP36ccePGodFoCAoKYuvWrZSVlWGX1K0eHh64OHiDcOK/D6dguUEIFZhKwZy7urooKChg586dNDU1cfvtt8smuytWrOCNN96gurqan//85yxcuJD4+PjLThA3NTXx5Zdf8pe//IUzZ85w9913s3jxYoYNGya7EheD2dvbm9raWgCio6Pp7Ozkq6++4i9/+QunT5/mueeeY8qUKYSFhclqGeWgtik2NpXCRSO5XD937hzl5eWMHDlSnn3fjAHpKDiQ7m45deoU06dPl8si2uRGGYGom1gRIa3kDh06RGhoKHFxcY5Rbih9AbuDSXN3dzc7duxgyJAhJCUl3ZS9D0ehV1tbS1FREd7e3vLdJjcLoh5msxm1tGo+evQoxcXFDBkyhMzMTLQKlzHKOCppQuLv709sbCwpKSkEBARw7tw59uzZQ0VFBZ6engQGBqJTeFRGqqNWOrzr6+tLZGQk7u7ulJWVUVNTQ0BAAKGhoXJ4teQmJigoiOTkZOLi4jh06BAmk4mQkBDOnDlDeHg44eHhVFVVUVpailar7XNlwM1sNyeuDKdg+ZoQBNrQ0MDOnTvZvn07Pj4+LF68mKysLJqamvjwww/597//TUJCAg899BALFy4kICCgD3F3d3dz+PBh/v3vf7Nz505CQ0N55JFHuO2222S3KY6DWczA8vLyZHcwmzdvpq6ujrlz53L33Xfj5uYm54HC1FcwDuUgE9826bCdWq1m7dq1jBs3Tr7J8ZtAySTFb6T8KisrKSwsJCMjA19f3z5xvi4TUDIuq9XKnj17CA0NJSEhoU+aXyd9ZV1Efbq7u1mzZg0zZswgJCTkG7cXDv1jNpvJz8/n0qVLDB48+LKV1zeBsq2EClG4WfHy8mLkyJEEBgbKdKOEso/UkslyUFAQcXFxxMfHY7PZyM/P58CBA1RUVODl5YWbm5s82RH9IyYULtLVyxEREbi6ulJRUcH58+dRq9V93OhrNBq8vLyIj48nLCwMjUbDrl27OHv2LDNmzJAvZ7t06RLnz5+XD3j2d0DWif8OnILla0AMpnPnzrF9+3bKysqIiopi0qRJJCcnk5eXx3/+8x/Wr19PVlYWjzzyCFOnTsXLywu7wvrm3LlzrF69muXLl1NeXs7MmTO56667GD16tCyABCNTriwMBgNFRUV88cUXbN26lZ6eHjIzM7nnnnuYO3duH9cl4lyLKLe9H0eKSgarka4HPnr0KGq1mqSkpJuyGa3c91Ays46ODi5evIherycpKemysDcC0bZKhqdSqdixYwehoaGkpKT0yyAFrkeY9fe+vb2dlStXsnjxYvnA3s1ET08Pubm5mEwmJkyYIO9d3AyIOov9NGHskJOTQ1paGpmZmbKgdMxT9JGy3eySZ4WoqCji4+MJDAykp6eHgoICTp8+jd1uJzQ0VLacUymuyha/g4ODCQ4OprW1lZMnT1JaWoqrqyuBgYFyWYQboaioKIxGI19++SVlZWWEhYUxaNAg4uPjCQgIoL29naKiIlpbWwkJCXEKl/9HcAqWG4TVasVoNJKTk8POnTvp7u6W/S15eXmxZcsWPvroI9rb25k5cyYPPfQQGRkZfXTiJpOJw4cP89FHH7Fv3z4CAwNZvHgxd999NzExMVgsFpmZt7a2yqsWm81GWVkZ69at47PPPqO7u5tJkyaxYMECFi5cyKhRo/qc+hZxxGzyaowBhfASOvH169czceJEvLy8+sQR4R3TuxJEOPEthJtGsqCrra2lvr6eUaNG9SkLDqrH64EyL5XEqL766isiIiJISUmRn18JV3snoMzDbrfT3NzMp59+ykMPPSSbf99MXLp0iZycHFxcXBg1alQf4Xk9wvBaUEmCRavV0tnZyZo1a1CpVIwaNYrIyMg+4RzbV/x2hEqlwsfHh4SEBAYOHIi7u7t8531zc7PM5F1dXenu7u6zl2e329Hr9fj5+eHq6kpzczMlJSXU19fj7++Pl5cXVukiu4aGBrZv346/vz9RUVFcunSJrq4ueeUUERFBR0eHfN1DaGgo/v7+9Cqu1BbGCv3Vw4mvB6dguQKUAxdpoBiNRjo6Ovjyyy9555136OjoYNasWYwbN47W1lZWr17NmjVr0Gq1PProozz00EMEBwf3YQRtbW3s37+ff/3rXxQWFjJhwgQeeeQRpk2bJjMl5b5IR0cHbm5uGAwGDhw4wMqVK9m8eTNayVfUgw8+yNixY2V1hXJlg7QCUf4XA0h8lIxJ+d/X15fVq1czbNgwgoOD++zJoBAO1zsYRX4o1EmirM3NzeTl5TFt2jQ0Di5olGW6nrwc62KxWNi8eTMBAQGkpqZeddP7Ss/7gwhrtVppbGxk3bp1PPzwwzd94x7JUKO4uJhw6RpltcKrATdY7v4g4qvVagoLC9m0aRNZWVlkZ2f3WVk4hu8PIqwIo9Fo8PX1ldVWYk9NuGUJDAyULRUd8/Dw8GDAgAGEhITQ1tbGhQsXqK6ullc1arWaLVu2YDabmTBhAhMnTkSj0VBSUkJNTQ16vZ5w6fZSg8HAmTNnqKmpwcfHh8DAQHnfSKyQHdHfMyeuD07B4oD+BIpAfX09W7Zs4YsvvqCuro6QkBAGDhyIxWLh008/Zc2aNURHR/OTn/yEqVOnynEF4dbU1LB+/Xo++OADuru7ueOOO1iyZIls2SX2OARU0qHFlpYWNm7cyD/+8Q/Ky8sZNWoUP/nJT5g1axYBAQGgYNYi3vXAsY7KegPU1NTQ1NREYmIiOumedxFWCJavo/ZRCietVktLSwt79uxh0qRJfdR4YlZ5NcGirINjv9kly6ONGzfi7u7OwIED+6R/I4LRESIfi8VCdXU1u3fvZunSpX3675tCtPHRo0dpbW0lKyurz42PjpMIEcfx2dWg7HuTycSKFStwc3OTXcbcrProJG/Ko0ePRq/Xc+jQITZv3kxHRwdxcXF99h6VdVCr1Xh6epKQkEBoaCh79+6lsLAQrVbLpUuXOH78OHfffTdhYWF4eHiQkpIiC5fy8nLsdjsxMTEMHToUb+lq7NLSUqKioggKCsJ+jQvmnPh6cAqWK0DJMFUqFVVVVezdu5d169Yxbtw4brvtNurq6iguLubkyZMcOnSI7OxsHn/8cYYOHdpn5t3V1UVJSQmff/45K1asQK/X88gjj7Bo0SLZf5WSUYv/jY2NnDx5ki1btvDiiy+iUql45JFHePDBB0lJSbnM0uVG9yZEWCUzRrERa7fbWbVqlXxWQFj1KONeb14oGCWKvOySc84zZ87I/qDEO5G+koFeKT9RD8GUlJ89e/bg4eHBwIED8fLyuqxvvw5E2kajkeLiYk6dOsVdd9110xgxUh5Go5F9+/ah0WgYP348Hh4e8upRhHGM83VRXl7Oli1bGD16NMOGDesjhG8GbDYbbm5upKWlMXToUFpbWzl27Bg1NTXopLtb3KWrspX56nQ6XF1d8fb2JigoiLKyMvbt28fmzZuZNm0aYWFhILmO0Wg0REdHExQURF1dHbW1tbi6usqrppCQEPLy8igvL8fX11c2ThH5KelH+d+JG4NTsPQDQUxiADc2NvLBBx+wefNm7r77bhYtWkRsbKwsLC5evMi9997Lr371K/kQolq62rerq4vDhw/z2muvcfDgQTIzM/nf//1f+WS7WI6jGEwGg4GKigpWr17Niy++KM9Yn3nmmX4ty0RcpVBSpne9EHFFWn5+fqxZswaNRkNCQsJl92koB+DVcKXyiPIaDAaqqqqwWCwMGjQItaTSU6vVsv5bCeV/ZRnEb8d6CDfziYmJ+Pr6yvmKeFcq37Vgl7waHz58mKqqKubOnXtVVdvXQVNTE0ePHiUoKEh2Hy/Kr1SHfV0GqGSk27Ztw2KxMGXKFCIiIr5WeleCStrLMJlMaDQaIiIimDZtGpmZmbK7IpVKRUBAAL6+vvIpf7vCIEOn0xEaGkpERASHDx/m3LlzJCUlERkZSUhIiKxOs9vtBAQEkJWVhdFoZNu2bZhMJqKjoxkwYAB+fn5cunSJL7/8ksjISNkUWiXtNSHRpiNdOP534sq4cT3GDwBKwrl48SLvvvsuhw8flq27rFYrO3bsYM+ePdhsNoYMGSKbsgrzSbPZTElJCevWreMXv/gFZ8+e5YknnuCll15iyJAh+Pj44ObmRm9vbx8HjOJGvpdeeonXX3+dyMhI/vCHPzB+/HhMJpN8aRIOhC5+2xVmo9cLu8M1tEh7B76+vsyfP5/Tp09TXV0tD3TBiK43D+XAVMYRTMPPz4+4uDiKiopk5iDKY5FuM7weKGfySgQEBKDT6WQLuest97Vgl0yNL168SGBgIGaz2THI14agh5qaGrSSWxNHQSvC3Az09PRw6NAhhgwZIpv23sz07ZLKSWzW22w2tFotMTExDBo0CHd3d/7xj3/w8ssvc+zYMbq7u1ErVs5I/dvR0UF+fj4+Pj689NJL7N69mwMHDnDu3Dl6enqwS+pP0U7Dhw/n1ltv5fz587LqbfTo0Tz22GOEhoayfft2Ll68SE9PDxbplkyRn5LGlXTvxLXhXLEooBxEVsnV/RNPPMEXX3zBu+++y+jRo7HZbCxfvpx//OMfREZG8vLLL5OZmcmpU6fw9PSUZ3oNDQ188MEHvPjii6SlpbFq1SrGjx/fx0GhRrrdUSs5TaytrWXdunU888wzFBcX84c//IHnn3+eYcOGERkZyZo1a/D39ycmJka2olEpVEBIg0HMtq5nEIi4dgc1nHBMGRcXxyeffEKAdAujm3QfujLfa+WjZPjKASrSUKvVdHR0sG7dOm6//XZ0Op18mZRKYY7an1DojwmI/+J9RUUFJpOJmJgYQkJC+sRVluVGIOK2t7ezZ88eBg0aRHZ2dh+1yjeFxWJh//79WCwWMjMz5ftkxCpFWXZlnso2uRbEJOTgwYMcOnSIefPmER4eftmq7mZAJfWhmDy0t7fzyiuvYLPZ+PDDD4mKimLjxo2cOnWK0NBQAgMD5fqazWaampo4deoUGzZs4E9/+hOZmZnMmjWL3bt3U1hYiJeXlzxhEwJJrHJ8fHzIycnh9OnTJCQkEBAQwNSpU2WBo9frZSeWSmGmrL9K4W7IiavDKVgUEARjMpkoKyvj1VdfpaGhQV5lqNVqHn/8cT744ANGjx7No48+ytChQwkPD6ezs5O9e/cSExNDW1sbzzzzDMuXL+d//ud/WLZsGYGBgZcNVMGYbTYbhYWF/OUvf2HZsmUMGDCAf//73yxcuBAXFxeqqqpISUmho6OD48eP4+fn18fvlZK5CMK/XuIXg91RzyyEnpubGwcOHKClpYW4uDiCg4PlMou41wMRVgxY8Ux82tvbWbNmDRkZGURERMjmr9dicOK5+FYKMfGstraWxsZGwsLCCA8Pl98rw9wolOXevXs306dPJz4+Xn53M9DV1cWGDRvw8/OTD/2J9lZOAhzzc2yTq0El7eO8+eabZGZmkpWVhZeX1w2lcT0Q7WW1WjEYDFgsFrZt28batWv561//SnR0tOxlIj8/n5ycHNrb22VXMkID8N577/HjH/+YgQMHYrVacXd3Z9y4cVy8eFHWIISEhODm5obJZMJsNqPX6/H398fPz4+NGzdy8eJFgoODCQoKYtCgQZSUlHD06FE8PT3x9/eX/eg5ll2M1+ul+R8ynILFAUajkf379/PQQw8xYMAAPvnkExITEykqKmLBggXs2rWLp556iieffJJBgwbh6uqKTvKxVV9fz/PPP89f//pXKioq2LRpE4sWLZLPhdDPDLu5uZmPPvqIX/3qV5SXl/PHP/6Rt956i+joaFl1IwZXRkYG+/bto6GhgcjISHwlR4SOs6srMZz+0F84UTYUM9rTp0/j5+dHZGQkrq6uV2VsjlC+VwoKEVct3VJZUFCAi4sLGRkZuLq6XvcgVqYv0la2RXV1NWVlZQQFBREVFXVZGK7QDleCCGu326mvr2fjxo1MmzaN0NDQ6yrv9UAlnYBfvXo1YWFhjB07FqT+sEpXK3AVFY3j/yvBYrGQn5/PSy+9xHPPPSfTmkj/etO5FsRkRC3tERUUFPDUU0/x2GOPMX78eHkSkZyczOzZs/Hz82P9+vVs27YNnU5HfX09mzdvZsqUKbL7H7WkGtRoNAwZMgQvLy/efPNNKisriY6OllWgdmnlItqxuLiYjRs3EhsbS1hYGCNGjMBms/HJJ59gNpuJjo7G3d29z7gSQkW0ixNXh1OwKNDW1sb69et5/fXXue2221iyZAlhYWFcvHiRO++8k5KSEn7961+zZMkSoqKiZCaikmZi1dXVHDp0CIvFwnvvvcfo0aP7bObaFZ5j7ZKK5t133+Uf//gHQUFBPPvssyxatAhXV1c0Clf4ghmr1Wp8fHw4efIkJpOJ2NhYdJITS2UeokzXC0cGK56JPCMiIti8eTPu7u6kpKTIp5evl/ELiMGJIn3x3y5dZFVRUcGoUaPQSof1hDpMxL1avZTvhUC02+1UVVVRWFgo7+WINB3jiPBX+1bCYrFQUlLC+++/z9y5cwkNDZXTuRqu1kei3DabjYMHD2K1WsnMzCQsLOwyelCuGpX1VaarzMtisWA2m9FKBiN2u52uri5GjBjB008/TVpaWh8fdgL9lVMJpXpImZ9jWcTvhoYGli9fjpeXF7/+9a/7rMRUkmuXuLg4EhISOHv2LG+//TYHDx4kKSmJxx9/vM+ZF5WCTsPCwoiNjeXo0aOcO3eOkJAQ/P39sUpXRIixN3jwYHp6evjss8+IjIwkKCiIxMREgoKC2LNnDxaLhejoaDTSlRL91cGJq+P6ucL3AILokQaD+G+327l06RLvv/8+7733Hvfccw+LFy8mLi6O5cuXM2/ePLy8vNiwYQM///nPiYqKkmd1KpWKyspK3nrrLZYtW0ZmZiZ33303q1ev7sPAlNYmZrOZr776il/+8pd8+umnLFq0iM8++4ypU6f2ESgqaX9BWfbBgwcTHBzM8ePHOXPmjDyArdLtiOK/UiV0I+hv4Hh4eMjqhvPnz4NUH7PZ3KdNrwXBBByfAbi5uZGamsrWrVvRSHfSCCZ3pbiOEO8dmawwRzUajZe157XSdIQynk26+bK7u5uAgAC5764FUZf+2k5Z7vLyctzd3QkLC5MnEMo8VA5WTOKZY3pI5bZJzkcFvZhMJnJycvDz8yNMuqlUuVpRxr8aRN6i3Mo6CIjnjY2NrFq1isLCQp555pk+hivK+Hrp1smlS5cyZcoUOjs7KSwspL6+HpPJJNO3qJfFYkGn05Gdnc38+fNpb29n3bp1lJWVodPpZFp1d3fH29ubKVOmMH/+fL744gvOnDmDzWYjMzOTmTNnsmfPHlavXt1HYDpxY7j2KPgeQTnIBAEDNDc3s379erZv3860adNYsGABoaGhFBQU8Pzzz2Oz2fjzn//MmDFjCAgIkD3+2u12ysrKePfdd9m4cSOjR4/mqaeeYsGCBXR1dXHkyBF5EIvB2t7ezurVq3n99deprq7m3nvv5dFHHyU6OhpPT0900sntKxG0Xq9n9OjR8r0vdXV12BX+x4T67ErxHdFfOOUzwfxGjBhBd3c3FRUVGAwGVJJX2/7i9wfR3sp2V77TarWy6qKjowOVgmleKd6VoAxvl9yDmM1m2b9Uf3BMW8S9EsQ7FxcXAhReeK8W50YgjEd8fHwIkrxbi7QFM+UqVnOCUaNoD61WK9OuSvLK/OWXX7JgwQJSU1Px8vKSJ0v9pfl1Icoi9iFXrFjB1KlTiYmJkd0FiTztihWii4sLI0eO5IknnuDuu++mrq6OJ554glOnTtHb24tFsuKyKK5V1uv1jBgxgvvuuw9fX19WrVrF7t27ZaFss9nQ6XREREQwceJExowZw9q1a9mzZw92u52xY8cyZswY8vLyWLVqlXzlsV1xiZ4T18YPShWmHCyCeA0GA1u3buXw4cNMnDiRhQsX4ufnx5EjR/jDH/6Aj48Pf/3rXxk1alSfvRKVSkVeXh7//ve/KSgoYNasWSxdupS4uDh5L+Krr74iNDSUgIAA1Go1tbW1/Oc//2H58uXo9XoWLVrE3LlziY2NlQe0ksGpFObLyrL7+vpis9m4ePEiACkpKVgkJ4I2SY9tMBhkIfVNoJLcqYtTy83NzbKbDaTVwfXM0q8HdrudkydPEhUVRUhICGazGdUVrMFEePoRhCoHI4aWlhb2799PUFAQGRkZV5zdX+uZSE98LNKp+6KiIu65554+4a4FJRNVPhNpFxYWcuTIEQYNGsTAgQNB0dbKOGazuV8BL9JR0o14brfbMZvN8s2NjzzyCElJSf2mI+JcDcpyK3+LdwLnz5/niy++wM/Pj5/97GfyYVWV1F92hZpPwEXyeJycnExQUBDHjx9n3759eHt7M2jQIJCsK5XxXFxcCAwMxNvbm8bGRgoLCzEYDH32BwFcXV1lv2MnTpxAq9USGRlJTEwMBoOBo0ePUl9fT2xsrKyuE3lcq01+6PhBCRYUA85qtdLU1MS6devIyckhOTmZSZMmERwczK5du1i2bBmenp787//+L2PHjsVFclWPpFLZuHEj7777LvX19cyaNYtFixbJllouLi74+/tTX1/Prl27CA4OprS0lDfeeIOcnBwyMjJYsmQJU6ZMITw8vI/KTEDJdBwHq06nIyQkhKamJkpKSvDx8eljIopUzyvNzm8EIm8XFxe6uro4deoUvr6+MrNzZATfBHZp36miokI+QKpcwSnzuZJQEd8qBVPt6upi586d+Pr6MmzYsCsyUGU8ZTsqofzf1dXFmTNnqK6u7nP5lmOc/tBf+sr8161bR3d3N7fccguRkZFyXUSfinBiBq4s85UgymaXvDp89NFH+Pj4cPfdd6OXrqtWCt3rrQsO9ejv98WLF1mzZg01NTU89thjfS6oE99KISOeqaSVltgfCw8P5+LFi2zZsoXW1laGDBkib/wrJxM2mw1PT08iIyPp6elhz549NDc3M3jw4D6TODc3N9lSMD8/H5PJRFRUFDExMbLXg7NnzxIfH4+Pj4/cfso6Ov534gcmWBw7f+/evWzdupWYmBgWLlyIu7s7Bw4c4N///jeurq786le/YuzYsZcxz9WrV/Ovf/2Lrq4u5s+fz/z58/uYsdpsNgwGAxEREZw/f561a9eydetWiouLmTRpEkuWLGH48OH4+fnJG6lKKPNSS5YvjkLD3d0dDw8PLl68SEVFhWxJpZKEZn/C6utC5O3v709+fj4Gg4H4+Pg+ZqnfFKLcXV1d7Nixg1mzZqHX6+X2EYzAMY4SdoVKUMloDAYD27dvx9vbm+zsbNnJZ38Q5egvPwHxvKWlhdzcXMxmMyNGjEDvcBXuteAYRsTt6enhk08+IS4ujuzsbNlYor/wask66nqZmxBG58+f59NPP+X+++8nNTVVfq9SCOTrSQ8pnJKp47BS6ejoYOvWrWzbto2pU6cya9asPmUW9VDm59iOKonmo6OjCQ8Pp7KyUt5DSUpKws3NTRYwIr5OuoDMz8+PtrY2ioqKsFqtsjkykqDW6/WEhoZiNBppaWnBz8+PqKgoQkNDaW5uZseOHbS3t5OamipfWeDYNo7/f+j4QQkWAYPBwKpVq9i/fz8JCQnMmDGDwMBADh8+zAcffIBareaXv/wlY8eO7cNk6uvr+eijj3jvvffw9PTknnvu4dZbbyU8PFwOIwaMzWbDx8eHzZs3s3LlSoKDg1m8eDG33347iYmJstsXJUQajkxCPHckXh8fH0wmE/n5+XR2dsqqAWWcmwWVSoWnpyft7e1UVFTg4eFBbGzsTVWFIe0trFu3jlmzZvVRlTjWxfG/gHiu/DaZTOzbtw8fHx+ysrLQS16klYxNGccs3aR4tT6wS+7yjx49SlRUFJmZmfKq1jFuf3DsYwGVSsWlS5fYvXs3I0aMYNCgQX0YpiOUeSnrJNBfHi0tLezbt4+2tjYeeuihPlZWjvn0F78/OLah+G0wGCgoKODIkSP4+flx77334uvrS29vL1qt9jIB4iigHOHi4kJYWBgJCQloNBree+89GhsbCQ4Olt264NAuHh4eREZGYrPZOHLkCA0NDfJNnyIvFxcXQkJC8PLyws/PDw8PD7y8vAgNDcVut5Ofn09TUxPDhg2ThbkSIi/H9v+hon9q/R7DbDZz5MgR1q9fj4+PDwsWLCApKYmjR4/y2Wef4eLiws9+9jMmTJjQh3haWlpYv349r732Gi4uLjz00EPySsWRkDSSmeLGjRtZs2YNEyZM4Mknn+S+++4jOTn5shmz48CyO+jfHQergE6nY/DgwYSHh7NmzRqOHz8uhxHqhJsJu93O8OHD8fLyki9PskquV24GNBoNoaGheHp6UlNTc8MbpSrF7Ff8R2IsPj4+ssroWrjShriAeCd8wSUlJckzWcGsrgein8VvEa+hoUE2CFDSipIulB8lRBhl2o70VVFRwaFDh5g9ezY+Pj594guI8FdrByUcyyH6QlyJYLPZuPfee/sc7L0aHOum/O/q6kpGRga//e1veeihh9izZw9vv/02x48fx2AwYJOs30R4sXcydepU0tLSOHDgABs3bpRdwIj0fXx8SElJITg4WI4bExPD4sWLGT16NEeOHGHnzp1ymZy4Mr53KxblAFX+Rtob2bp1K0eOHCEyMpL58+fj6enJgQMH2LVrF1arlYcffpjp06fLcTUaDVVVVWzYsIHt27cTGxvLT37yEyZOnCgPSmUeZrOZCxcusHr1at577z0GDBjAb3/7W8aPH49er5c32fvb/xBE7sgY+/stPu7u7litVvLy8rhw4YJ8dkaZjiOUg+laUA5osQoT6rfg4GD5atibBa1Wy/Hjx/Hx8SEmJkZmrNcqs7KvHdtKq9WSm5uLp6cnQ4YMkdUg/YVF8rygVCUqwyjLUVdXx+7duxk3bpysCr1S+RzhmK8ov91uZ8eOHej1ejIyMvD395fDOraB8rnytyP92BVCpr29nby8PIqKinj00Uevuimt6kdw9QfHcSZ+19fXs3PnToqKisjKymLSpElymv3RqGN+4r/ymchLJa0ysrOzUalU5OfnU1NTI+9vCkGvrJu7uzsxMTF0d3dz8uRJfHx8ZIeX/eUr4ObmRmhoKGazmdOnT9Pc3ExaWpqszRBxlPF/6Oif83xHIQaPciAJmM1miouL+eijj/D19eX2228nODiYjRs38uqrr9LR0cGTTz7J5MmT+wzy9vZ2li9fzltvvUVcXBwvvPACs2bNukzvrZKsp86fP897773H888/T2hoKC+++CIjRoyQT+iL2VR/EANB/BbfVyNUtVpNSkoKEydOpLCwkJ07d1JeXo5G8nfk2A5coX2U/5XtKL6VbZKQkIDZbObEiRNoJEs0EcYuqQEd07heqFQqsrKyOH/+vOxwUyXteyhXR47lFWUT3+K3eO/l5YWrqytWyZGmSFf5rUxL+VxZNyUMBoPMzBzfXS+UeYm8Dx8+THh4OP7+/n3CChWMY1mU5XekHxTlt1gsXLx4kZKSEqZMmSL7HuuvPZTxbwQiPZPJxK5du1i7di0BAQHceuutl6V7pfwc/wuIciq/AwIC+N3vfsfjjz9OSUkJb731Fnv27KG9vb1PWAEfHx8WL17MjBkzOHr0KEeOHKG1tbXPCseuMOdWSZPLAQMGyNqNl156icOHD8tncEQcJW390PG9ESxX6lDxvKKigpUrVzJw4ECmT59OYGCgvFKJjIzknnvuITMzU45nsVjkmwE/+ugjkpKSuP/++/t1J26XTo0XFBTw0UcfsXbtWhYtWsSLL77IkCFDLrNC6W/D/kYhBrDdbsfHx4dRo0YxdOhQ3nzzTd5//315NiXCIO1fXE2o4dCOIr5jmPT0dHx9fTl16hQtLS1yHiK8UtBcL0R8tVrN9OnTOX36NN3d3fI75ccRSgYlvpVlV6vVeHl5YZf66UppiDLopXs9HN+JeOJ/T08Ply5dku9I+bqMRcSx2+0YjUbq6urQ6XRXVd2Jul4LynYVnoErKyuZOHEi3EA614KyrQFKS0vZsmUL/v7+zJkzRz7sqqzPlerWH5Rtr+wru7RCGz58OPfeey+dnZ18+OGH7Nu3rw/9CNiky/SEWuzQoUOyGb04A+YYXuTh7+9PVlYWEyZM4Pe//z01NTV9+txsNl9xfP3Q8L0RLGKA2BUOElXSXkNLSwubN29m+/bt8oVV27dv56233sLb25vf/OY3TJ48WSYiq3Td7KpVq3j88cfJysriX//6F2lpafLmoBI9PT0cO3aM119/nb///e+4uLjwxz/+kZSUFLlM4iPK9U0h0kNSHw0ePJglS5bQ09PD2rVruXjx4mX5KQ94KZmlMi1leOVzAbVaLV+aZbfb2blzZ5+0kMojGEx/aVwNarUaNzc3vL29aW9vl70sO7bb1dqwv/zEhr1gHv1BWX5RJ5GPsgx2icasViseHh7opNs1+8v3alDmIT4lJSVYrVb8/Pz6pbUbbU9l+IqKCs6cOcOAAQOIiYm5oXSuBkd6aW1tZc2aNZhMJmbOnElqamq/K60bgWP/i2dI+Q4YMID777+fhx9+GLPZzIYNGzh69Kjsol/kq5Fc96vVakaPHs3AgQM5dOgQBw8epKmpCatkgaksr6AXV1dX0tLSuPfee+nt7WXFihVUV1fLwkS4Yvq6dfw+4Xu1x6KSBImw6kHaV1m+fDlHjhzh3nvvpby8nBMnTvDuu+9is9l4+OGHGT9+vEx8KsntxPr16/n73/9OWloay5YtIzg4uN9ZrNFo5MCBA7zxxhscP36cpKQkVJL+NyMjA5ViQ1cp8L4pRDqC+FXSfktMTAzNzc2UlpYyYsSIPnsFjvsGjh+7wjWMWmGNpYwjoNPpuHDhAmVlZYwcOVJOW7S7Yz7Xgghjs9lwcXEhJyeHoKAgwsLC+lj69CcURP3FbxzytdlslJWVyYfkhDt2EU5AdQW36I7tgERXFy5coLi4mLlz5+Lh4SHTh2P8q8Ex7H/+8x9cXFyYPHmyfC+KymHlKJ5dL1SSZdyhQ4coKSlh6dKll93U+U0g2l8lqSxXrlzJli1bmDVrFnfccYd8sFgZTuBG8ha0jgN9Kfc6hg4dSlZWFkVFRZw8eRIvLy/58j2RhkrqZxcXF9LT06moqODYsWNoNBoCAwNxk662UNKb6AONRkNQUBCpqan8+9//lq0jxV6VEDI3Uq/vIy4fpd9RCKJTq9XyeQ6DwcDx48f505/+xNNPP83dd9/N7bffzr59+zh//jxz585l9OjRGAwGDAYDGo2G9vZ2cnNz5St5//rXv8q+wQQE0VgsFo4fP84HH3xAZWUlv/jFL1i+fDnPPPMMeXl55OTkyPsCYiZ0MwlODDK7pNP29PRk1qxZ/OUvf+HUqVPs3bsXs8KflxhUjuUQbWexWOjo6KCzs1MeIEhlVzI2q9XKgAEDGDJkCL29vRQVFfVR94lVkcjvRiDSiYyMpLKyEpPJ1C9D6g+O4ZRMyN/fH7VaTU9Pj/xM5bDS4gqbycow4ttoNNLV1UVoaKhsQCHiXA+UeYr07XY7e/bsYezYsYSEhPQJI3A97dAfzp07R0FBAVFRUfLGMzdQ3uuBzWajpqaGnTt3kp6ezsSJE2UvwaLcyr75Onkr0xA0KlYJQrAnJyezePFiuru7effddykpKZH366yKWywFrd19992kpqaSm5vLwYMHaW5uxn4Ff3s26UDqqFGjeOKJJ9i4cSO5ubk0NTXJhjn9TX5+aPjetIAjwXZ1dbF27VrmzZvHiRMnSEpKwmg0smzZMtrb22WXJBaLBU9PT7y8vDAYDOzbt4/f//73REZG8uqrrzJs2LDLBoBY3Wzbto0//OEPVFdX88wzz/D4448THx/P2LFjmTRpEs888wyHDh3CLPmoUkmzq/4Yxo1ClAGp7kLVo1KpCAoK4r777uO1116TfYkJE1qbwhGh+FwNjqoBsZpxcXFh4MCBREREsGPHDrl+SCsjFLO864FdcYslQEJCAq2trfJtgFyFCYrnyveOjEscRhUMRtl2OLRnf2VW5qGSVgDd3d1ER0ejVqvRSt5zrxf9lbW9vZ3u7m7S0tJk45D+wl+pHfqDCFtYWEhHRwczZ84ExQn+mwGRR2NjI6+99hqhoaHcc8898urdcRXr2L6O//uDY38pfzvmUV1dzapVq4iKimLChAm88847rFu3Drt0aFLpmsliseDi4sKCBQsYPXo0ubm55OXl9dlvER9lPhqNhjvuuIM77riDt956i3379tHV1dWvMPoh4nsjWARUEvM+d+4cf/vb33jmmWdkk9jHHnuM3NxcfvOb37BmzRrMZjP/+c9/KCoqwmQy8dVXX/HXv/6V7OxsnnvuOaKjo7ErdKyCKauk+0k++ugjjEYjjzzyCLNmzZKFhre3NzNmzGDs2LF8/vnnVFZWyozdcbXwdSHSUTJDoRLQ6/XMnTuX4OBg/v73v9PQ0CAzfiVDUSlmkSrJLNfHxwdvb+8+A8hRiInyR0VFkZiYyPnz5ykrK+sz0C2SY8DrratdmnGKfJKSkjAYDPJM8HohmIAjhJcAcc5BGU7lsIpzjO9YB7t0JXFbW5t8ZbAo/9eBSurHvLw80tLScHd3l5+Ld3aJsdkdrO6uBhGvpKSEqqoqUlNTGTJkSL9t1N+z64WId+bMGSoqKpgzZw7p6el9Zu6O6Svb2rF9+4MjLSnbQ6Qrvt988010Oh0/+tGPmDlzJsnJyaxdu5YDBw7IYaySlaGgOX9/f2bMmMGAAQM4ffo0eXl5l1mW2fux/Lr77rsZO3YsOTk5VFZWYjQa5cnLDxnfuz0WlUrF0aNHefLJJ/ntb3/LwoULMZvNLFmyhKKiIt58802mTJlCREQEWVlZdHd3c/DgQXbu3MmOHTtITU3lueeek92Ii3SV6W/dupUXX3yRqKgofv/73zNu3DhZLyvCubm5kZaWJruEiIuLw8fH56YJFkHcYjUhyibS1klXsm7atAlvb28GDBjQZ1UjwjkOdpEeilPQ/aWPtDLp6uqirKwMq9VKenq6/F7JVK4XglmopFP+O3fulB1SOp41UEJZBxyYkHhnk/ZZtFotiYmJcvkc66/8Fu9UCgEu0r506RInT54kISGBgQMH9olzpXIKKNMS6O3tZd26dSQkJDB48OA+9CSgrJfju/4gwmzZsoW6ujpmzpwpX0Z2pfhXen41qKSrI/75z39y++23M2bMGFk9aFdMpvor+/W0l4BdIWDpp7+am5v5/e9/j5eXF3fddRdxcXH4+vrKni7WrFmDzWYjLi4OF+mWSCXNaTQaoqOjqaqqory8nMDAQIKDg/u0l/K3WbrbJj09nQsXLpCfn09QUFC/h6Z/aLjx0f8tgOOMTRCc3W7nzJkzrFy5krFjxzJhwgTc3Nx4//332bt3Lw899BBDhw6VTR99fHyYMmUKarWa5cuXA/DII48QEhLSR6gol7cHDx7krbfekk/tDxkyBA8PD7kcYtWgVqsJDg7mrrvuQqvVsn//ftrb2/slOFF25f9rQTlQlc/Et1qtJjs7m+nTp1NZWUlDQ0O/M3+RjmNaOAgHs9mMxWKR3ZWLMsfFxTFkyBD27t1La2srKPZkrqceSohBa5P02BaLBaPReM10lPV2hEoSCkIwif5RMhTlM8e4yrSV6VssFkwmU5/DliLcjUCUQ6PRsHLlSiIiIi4TKo55i9/K8goaFc/s0sqmtbWVlpYWvL29iYiIuCyegGMe/UH0aX/5Pvvss2RkZHDLLbfIrvCvJsAEbmQColKoolBMfOzSuPvd736HRqNh9uzZJCYmopXulgkODmbMmDEMHTqUNWvWcPbs2cvSFekEBgbKB6d37dpFTU0N9DNGbZLZskqlks/FBQYGcvDgQdmyTznelPH7a//vG66/V/+PoewUJSEoO+nChQvs3r0bPz8/HnvsMXQ6He+//z5vvvkmDzzwAHPnzpV114IocnNzOX36NAMGDCAiIkI2OVTmqZYcQebm5vLyyy8THR3No48+SnZ2tnw4TpRLOQtSq9X4+fnx4x//mMbGRt555x0uXLgghxfpOzKKaw3G64Ver2fhwoWUlZVx+vRpOjo6vjZRi/poHC6a8vPzk8+1FBQUYDQaZYZiNBr7COVrQYQVfTthwgROnTpFfX39FdvEkQb6C2e329FKfqnEno2yz4QKq7+4V4LZbMZkMsnXQwtcT/sq+9suMcWLFy/i6elJaGjoVVdnjlDSjKiPgEql4siRIzQ1NREfH4+np+dl8a4FUT7RZiJ9m+LczgcffEBgYCBDhw6VD3UKpn+99bheKOsr6lxdXc3LL7+Ml5cXM2bMICUlRW5D0b/h4eHMnj2bcePGsWnTJurr62lubpbTVV445unpyZQpU/Dz82P79u00NTX1yU/kL8Y6QEREBIMGDaK1tZW9e/dy4cKFPu9F3J6enpveJt9GfGcEi0qaWYrfOKxcGhsbOXjwIPX19SxYsICgoCCOHDnCv/71LyZPnsyDDz4ou5ZHEhaHDx/m/fffR6vV8oc//IFZs2ZRUFDA0aNH5fSRiHnPnj28+OKLhISEcNddd5GdnS0fuhNlEsQm4ojBFRcXx5w5c7BarWzcuFG+R0UZTjloRZo3A6GhocyYMYMjR45w/vx5DAYDFun2x/5WMI4QZRECRXxEfbVaLcHBwQwYMEA2VFApVh03MoiUfYy0hyM2tK8loMTAFR8l1JKloEajwepwSFS0e3/xrobe3l6MRqNMA0o6uB6IcCrJY8OePXvIyMiQb4u8HijpRbS5YPYAtbW15OXl4ebmRnp6upzujdQThboVxZiwSWb9GzduZPny5YwbN072gydoQ+BG87sWlG3d3NzMm2++iclkYvbs2WRmZuLp6dmnbezSpn10dDTTp08nLCyMZ599lpaWFrk+YqKplgwxBgwYwLBhw+jo6GDt2rV0d3dflqYoA1IbDR48mMGDB1NQUMCePXswGAxYJSs0x/Dfd3xnBAsOs5Te3l6ZKHp7e9m9ezdHjhxh9OjRJCQkcPHiRd5++220Wi1PPPEECQkJ8sBSqVScO3eOTz/9FLPZzG233cbkyZMZPXo0gwYN4uzZs2zbtg0kIioqKuKNN97AZDKxaNEihg0bJptRCoJR/nYsq91uJyUlhczMTOrr69mwYQMlJSX9hhX/byYmTpyIm5sbW7du5cKFC5cN/GvB3o9eWwkfHx9iY2PJz8+nsbFRDq+9Qdf9Ip74+Pr6opNulFQOTiWUdVHGFRBxBOOwXcGlTn9pXwmCqVqk63CVDP1G0kEqs8lk4sCBA6Snp9/QVQRK2hMQdbNarezZs4eWlhbS0tKIiIiQy+fYRleDMpz4LYR/Q0MDr7/+OkOGDGHo0KH4+vr2Cavsl5sFu8Kysb6+ng8//BCr1crYsWMZOnQoPtKdKSKsEhrJNcuECRNwdXVl1apVlJeXy+feRNsIWomJiSE9PZ3KykrWrl3bxyBF0JLIyyb50cvOziYyMpKTJ09y6NAhbJLKTMDFxaVf+vu+4TsnWJS/1Wq17JOooKCAkSNHMnLkSMrLy/n73/9OfX09P/vZzxg0aBA6hXuM6upqPvroI2pra7n11luZMGECLi4u+Pn5kZWVxcCBA6mtrWXTpk3s2rWLF198ER8fHx544AEyMzNlB3fKMjkSsSPxaDQasrOzSU9P5/z582zYsEG+P/7rMKTrgRgAPj4+zJkzh/Lyco4fP05nZydqSa11LSgZhJKRKcsrDmaq1WrZk60YeNcLZR7iExAQgJeXF83NzbIK4WrtpHznWEa7NBkR6jllvXCo57VgtVrllZlyFeC4GroeWK1WWltbqa2tJTU1tY9q9Xogym13uJvl0qVLHDp0iKCgIIYNG4arq6uc7rXa8VpQq9V0dXWxefNmPDw8ePDBBwkMDOzTfsq8bhZEme12O/X19bz33ns0NDQwb948hgwZgre3dx+1pshb+a3T6YiKiuL++++nu7ubV155hXPnzsn9qQzv5uZGRkYGQ4cOlc+FcQ01X3BwMNOmTcPDw4Nt27Zx/vz5Piv86xlz3wd8pwSLcjBoJbcheXl5bN++HX9/f+bOnYvVauWrr75i165d/OhHP2L+/PnyMh7p0qGPP/6YY8eOMW7cOGbMmIGfn59MJF5eXgwdOpTExERycnJ4+eWXuXDhAg8++CAzZsyQPRqLsvRHXEqiU+YdGhrK2LFjGTFiBPn5+WzYsIFLly7Jcf5bsNvtDBs2jBEjRlBcXMzZs2e/FmO5Uhm1Wi1hYWFkZWWxb98+DAYDdsXM8nqhbCukPSJfX1/q6+vp6OgAqQz9ld3xmbJ/RByDwUBnZ6fsJkYwP8c414LZbMZoNKLT6eQT10gMx3adpsACvb29lJWVERwcTHR09NdiPEqGqNFoZO+93d3dJCUlERYWJpfJsY2/Drq6uti3bx979+7lJz/5iXxnDDcooL8O7JIr/jVr1lBbW8v48eMZOnQofn5+8kpDQNn3KoV1o6urK+np6cyfP5/Kyko+//xzampq+tCqiOvn5yevhvbs2UNeXt5l9RPpI00g09LSGDlyJG1tbWzatInS0tI+YW9GH3zb8Z2roRggdrudwsJCvvzyS9zc3Jg0aRIGg0FeZUyZMoW7775btlBBIpZNmzaxbt06MjMzmTt3LmFhYTLRCUaj0WhwcXGhsLCQCxcu8Pjjj3PLLbfIMyJHwlISMA6EhkJ1ABAZGcnMmTNJSUnhyJEjbNiwgcbGxj5p3Ahjuh6oJIZz6623otfryc3NpaKi4rJ6fF3YJUeYY8aMoaqqivPnz8tqA/H+alDWWSOdKxBxQ0JCqKuro7W1VQ6jbGtHiLSUdbNLQs5isdDd3S2fvhfvuEaajjAajfT09ODr6yufORH0c71tKsIK7xBZWVnyBEd8rgXHMovfly5d4vjx48THx5OSknLDZesPNkndZzQaKSwsZOPGjcTHxzN58mTUDqtfZZveTNhsNhoaGtiwYQO1tbUsWLCArKysPhoER4iyKNtJrOyys7N59NFHqa2tlU2yRVhlesHBwUydOpXIyEg+//xz+dCxEER26QAyUp1dXFwYMWIEQ4cO5eTJk/I1yv2V5fuK75RgEZ2tUqloaWlh5cqV1NfXM2XKFNklw8cff4ybmxuPPfaYTHCCCE6dOsU777xDfHw8t912G1FRUfIgtksMqbe3l8rKSr766ityc3N55JFHWLhwoWxRoyQKZTwcZoPimXIzVSAoKIiFCxcSFhbGl19+yd69e/t43XUM/3XhmE5ERATjx4+noaGBAwcOyKuAq8ExDfHfse4uLi5ER0eTkJDArl276OrqkgewiHeljyPEc5Xk2kVY8DiufhzjKunDkdHYFHfD9/T09LuycIxzJfT09NDd3U1wcLCcpshTzIqvBdF+HR0d5ObmylcbX298AZGOiGO326mtraW6uppBgwYRGxsLEm0qwyi/rwURz2az0djYyL59+1CpVCxZsgQv6ZZPx7Qc6eNmoLW1le3bt3Py5EkWLFjA8OHDCQoK6neyRz9jtb/nt956K/PmzePkyZPs2bOHpqYmOYyog81mIyQkhFtvvRWLxcKKFSswGAygUIuJuoq0IyIimDp1KvHx8eTk5MhaAmVffZ/xrRYs/RGlSqWiu7ubzZs3U1hYKNunnzp1im3btuEi3e6YlpbWJ42CggKWLVuGu7s7jz32GKmpqX0GmF1aotbX1/PJJ5+wadMmFi1axFNPPdVnmS8YpSCO/ohEEBrSeQcBpZBJSUnhjjvuICoqioMHD3L69GnMZjPcJHWFgBgYSOmOHDmSuLg4Tp8+zfHjx/ttYyUcmZHjO2X9vby8mDlzJtu2baOxsVFeqfUX1xHKfMSqBWnF0tTUREtLS79CWuBa5dRoNHh7e+Pq6trnHg0U/X+9MBgMmEwmgoKCZKaqXBVcb1pms5na2lpqampkf3Rmybfb9ZTJZrP1MZMVz06ePImvry9xcXF9LKQERDmV/x3fO0It+VkTbvdvu+02UlNT5fdKWnDM75tCCLQDBw5w4sQJ5syZw+DBg/u44leWWVkORxpVvkeq15gxYxg7diynT59m9+7dNDY2gqKdxCckJIR77rmHvXv3snXr1j706OLiIgs4UZ7k5GQWLFhAcHAwu3btkj0hX4815ncdN4+D3USIjulvhmq32zl58iRr1qxh9OjRzJ49m8bGRt577z2OHTvGQw89xIwZM0BBQO3t7fz5z3/mzJkz/PGPf2T48OF4e3vLG69i9trV1cX+/fv54IMPGDlyJG+99RYoGL0jAQtciXhV0rLYZrP1Oegn0hk3bhw/+tGPcHNzY926dZSWll6WjjI/EU/5cYTynSBypaDS6XSMHDkSgH379tHU1NRvWo7PHAerI1SS7jo7O5ve3l4KCgpkSy7Rvsp44rfjcwGbtF/h4eGBp6cnbW1tdHV1XRZHWUbHOijDqKUDsXq9XhbgjuGv9EyUX3yE01Ll3hyKNhOb+I5tqAwD0NnZSWFhoWz4oFKp6Ozs7GNh5hhfCbu0+lJL56zsdjuVlZV8+eWXjBw5kpSUFDm+6DeVw+TIMQ/HfMW30WiU9zMHDx7MuHHj+qh4BRz7uL++vRYc86+vr2fz5s3s3buXadOmMXLkyD5XNt9oHnYH+vH19WXOnDlkZmaydetWtm7dSmdnp9w+Aq6urgwaNIhHHnmEV155hfz8/MsmT45pZ2RksHDhQg4cOMC7775LT0+PbO7v2PYijuOz7yK+NYLFsUHtCt9L4rlaraalpYUvvviCgQMHMmPGDNzc3Ni8eTMnTpxg+vTpLFy4EKt0ktpms9HV1cXq1as5duwYDzzwAGlpaX1s7UW+nZ2d7N69m88++4zs7Gz+9re/gWKpa1O4kr8WBHGJcnd0dMgHL5WDzWazyXs9wl5eMHolMxb/lehv0IpwVsWp3/5WWLGxsUybNg2bzcZXX311xc1sUYZrQRnXw8ODP//5z7zzzjs0NDRglfwxKYWbCKty2NsSaYkwNpsNT09PZs6cSVNTE2VlZXIaol+UbWBXrBxEeiIfAF9fXzw8PLAorocWTFnUQVkX8RFCTuTX2tpKU1OTfB2xyEsILeWKS0BZZ5FHV1cXlZWVDB8+HA8Pjz71EW2jrJ8yHaS+9fb2xiatXGw2G59++ikZGRmyIYBjfEco20zQmON/m81GZWUlOTk5GI1GRo8ejaenJyaT6TK6/KYQ6Ylyd3V1sXv3bnbv3k1WVpa8FyXaUjlOrhfKsKKdfXx8yMjIIDQ0lAMHDnD48GHZpFy5KtTr9UyePJk777yT559/ntraWlmoK9tC9KVGoyE1NZVp06bx+eefs2fPHlxdXenu7r6s3KJfb6Qu31Z8awQL/QwaHHSYNpuNVatWceHCBebPn09qaiqrV69mxYoVTJo0iaeffrrPctRgMHDkyBF+8Ytf8MQTT3DvvfcSEBDQJ0+VQrX20ksvodFoeOedd+TVTH+bkteCIAxBODqdTl4qK8MIxjFy5EgefPBB6urqePfdd+nu7pbfiTRUDua7oq2UbSYIWXzEczH4BDw8PEhOTsbb25uzZ89y4cIFbNISXZmWuLJVoL/6i35BkX9ycjI9PT20tbXJMzRlusq+Fc9E/URZdTqdfFo+ODgYi8Ui67VFHGW97IqVmWgzu7SpKmjI29sbd3d3zGZzn9m2CKsUfqJMIj0Bq9VKW1sbDQ0N8nsBm3RmweZwn41jGLGi6enpoaioiBEjRuAi3Tmjkw6VOsYTUD4XZRZ9UF9fT0FBAaNHjyY2NlZW4V4NIj1l24t0Rdqtra0cP36ciooKsrOzSU5ORiX5w1O22TeBMl8kFXJ3dzeHDx/m5MmTDB8+nDlz5sjXCYhwYlLwdaCkbY1GQ3x8PAsWLMBisbBr1y7Ky8vRKbwhi/bR6/U89NBDdHV1cfjwYXl1o6Q/AbtkNj958mQSEhL4y1/+Qmtra5/zNko6/r7g5lDFN4RoVCWBCEIXz1QqFXV1dRQXF3PPPfeQmJhIS0uLfD/4nDlzZCeLgoE3NTXx1FNPMW/ePJYuXdrnAJcgZJvNRnNzMydOnMDb25uXX36ZkJAQ+eCbKIsYZNcLu8NMWWz0Ig0Gx0GcmprK3LlzOX/+PG+++aa8XFYpDmJZLBaZIQrmIz5KCCIXz0V7iPyQTrUPHTpUXgGaTCaZmYjyKb0cX6nuyrxEmICAAIYNG0ZOTg7d3d19hL0ynvKZaC8lo0SaYAQFBdHR0UFbW5sct780BFSKNlOeM0Hy0FBRUYHRaMRqtdLb24tare4jbBzTE7Db7ZjNZrq7u7FI1y2oJHoTDE4jrYJEuYRgs9lsmEwmenp66OnpwWg00traSlVVFdHR0XJ9hYrnSmXAof6izJ6ennz55ZcEBweTlJSEr6/vZf1+pTRtkkAUJvw2aZIhaHT//v3s2LGDQYMGMXfuXHQ6HVbpOoWbBVEXQQc1NTW89957fPLJJ8TFxXH//ffj4+Mjl0lACGLH5zcCka+LiwvZ2dncdtttlJSUsHLlSjo6OuS+EfSJtJ/43nvv8fnnn3PixIk+xjco+k+MqUGDBvH0009z4cIFli5dislkuiYdf5dx8yjjG0A0rPgt4MiwnnvuOfl0q4+PD//85z8pLCxk2rRpZGdny/HsdjtlZWX8+Mc/RqVS8bvf/a6Pt1WRj9VqpaGhgX/9618cPnyYpUuXkpCQIBOpGGSC2SnLdi2I8EqiFPkrmY+Ap6cnmZmZTJ8+nZMnT/L222/LTBFp8Lu4uFzzNLvdYSWjrK/IUzCj4cOHM3r0aI4dO8a2bdvkdMVguFZeSPkphYCo99KlS1m/fn0fXbX4Fh+Vg1AUDFiUUzB7Hx8fTCYTtbW1dHZ2goJORP42m43u7m5ZGCsZpAjn4eGBl5dXHyYqGJOL5O1W1EPQgEoSTmIFaJOsy4KCgggKCpLzsNlsfazsRFyRDxIT9PT0xNPTk+7ubgoKCtDr9QQGBvYxELkR2CShYLfbOXz4MBMnTiQiIkJu62vBsa3s0qVxIm5+fj67du3C3d2dOXPmEBwcLLeDoKObBaUg3LNnDxs2bCAqKooFCxbIzj4FbVqlQ6ooVi3X23aibsr+VtLklClTmD17NufPn2f9+vWYpbvsRXiRT3R0NFOmTGH16tVUVFTIfugEVNJYM0tekOPj45kzZw47d+6kq6urz2pa1EFZvu8yvhWCBcVyUNnBgmFYrVb++te/Ul9fz+23305ERAQbNmxgy5YtzJ49myVLlsirFbvdTktLC3v37uX8+fO89NJLpKSkoJU8naKYoRiNRt58803efvttAgICSEhIkJmarR/d8fUSLg5EK+oh0kbBEEVd1Wo1AQEBTJw4kRkzZrBz504+//xzDAaD/F4QoGNbiQ8KIa38OOYlmJheryc7O5uhQ4dy9OhReVCI9JR5ibQcIcom8heDXtwrkpOTI9vwi3QEHMstVjbiv9jgFK7ILRaLfJmSkpmItnZ3d5dXmnZpYiDCiLitra00Nzf3uWvDbDbT1NREa2urPNgtkvdii8Uif4xGIw0NDVRVVfVJQwhg4TdMGBqI9lR+d3V10dHRwcWLF9m3bx+JiYnodLo+kwglnfQHxzYzm82sXLkSQL4kTBlftEF/aQo6VysmEkKQ5ufns3z5cqxWK3fccQcDBgwAKT0xnkRZvikEbTQ3N/Pxxx9z5MgRZs6cyX333dfnWnAxdjUajdxmSrq5HjiGFTQknnt4eHD77beTnZ3NgQMHOHPmjExjSlitVh588EFcXV35+OOP+1h2Iln99fb2YjAY2L9/Px9++CHNzc309vYyYcIECgsL5TGmLJPdYb/muwiVzWa7OZTxDaAkbhREhtR5paWlPPbYYzz++ONMmTIFjUbDAw88gFqt5uc//znZ2dnywLFarRw8eJCf/exnjB49mmXLluHm5iYzdtGJdrudF154gbfffptBgwaRlpaGWq3moYceYtCgQXI5BNMUcRyJ8mpQhlemIX4r3wnYbDZaWlrYt28fb7zxBn/5y1/Izs6WB5Ey/2uVRdRZCWVedklVc+LECdauXUtSUhIPP/wwVmnDXfSLsqyOcKyPYPhq6SqCw4cP8/Of/5yBAwfKeTvWQaShFFDKtFQqFVu2bKGwsJBbbrmFkSNHolO46FGr1VgsFtra2ggMDASgtLSU+vp6GhoaKC8vp6ysjKKiIi5evEhvby8eHh7yHo6AaC+NpNqy2+24ubnJlmkuLi60tLRQXl5OZGQkjz76KPHx8bi6uhIaGkpQUBA6nU52U68UFiJ9u7Qi2Lt3L++++y5Lly5l9uzZsrC3SIYFXKF/leUV/dTS0sIjjzzCzJkzWbhwoezBmyukoYRIT7S/aPOmpiZWrFjB0aNHmTFjBnPnzkWr1eLh4YHVapXrJsrwTWGz2Whra+PgwYOsXbuW6OhoFi1aRHJyMmqF41MBQXMoaOhade0P/Y0R8by0tJQvv/wSk8nEAw88gEoyOXakmYqKCn73u98xefJkJk+eTHBwMJ6enhiNRsxmM3V1dXzyySf4+fmRkpIi99dTTz3FY489RnBw8Deqw7cR35qLvpRCRcAm3aH98ssvk5qaysKFC/Hx8eEf//gHlZWV3HnnnYwaNUrWS6tUKo4fP85f/vIX3NzcePrpp4mIiOgzIxCMau3atSxfvpypU6fyzDPPEBkZKbuXBxgwYIA8g3Mk4uuFSqHrF+mI58r/KAa2StoUDQoK4sKFC+Tl5aHRaIiIiJA3EUUa/cGROMV/8a38IM32PD09MRgM7N27l8TERHmzXMkwrpSfMi1RByHAw8LC2LRpEwEBAURGRsrlV4ZXxhfvlO0k2kSj0VBcXIxOpyMpKQmNRkNPTw/V1dXk5+eTl5fHmjVr+NOf/sSHH37Ip59+yvr16/nqq684cOAABQUFtLW1YZNUWT4+Pvj6+hIWFkZwcDC+vr5ER0cTEhJCdHQ0QUFBeHh4YJdciFRVVVFWVkZFRQXt7e3yhva2bdvYuHEj69at4+jRo1RVVXHu3Dn0er3smVmj0VBUVCRfNCYuR6uvr+dHP/oRvb298opb2TbKdlC2jzKcyWQiPz+fFStW8Otf/5rg4ODLmOWV+g7FOxFetLmYbKSkpHDbbbfJptUmk0n2OyZUPFdL/3qhki7Q+/LLLxk2bBi33XYbsbGxuLq6yjQg8lG2geprMmQl7SnHiIBarcbT0xOz2czevXs5deoUs2bNkuurzM/HxwedTse+ffvw9vYmOTkZrVYrm0nv3LmT8ePHM3nyZBITE0lMTMTV1ZWVK1eSkpJCZGSkbKnaX59/F/GtWLGgECiiQe3SqeQ1a9awc+dOnn/+eWJjY9m3bx9PP/00S5cuZeHChX3OElRXV/Of//yH7du3y/fVi5mgEnV1dfzmN79BpVLx2GOPMXz4cPlMwYEDB2hubmb8+PFkZ2cTEBDQp2yOROhIAI5E7vj/SnAMJ1Zqb7/9Nj4+Ptx3333ExMT0mc0qB4KA3cG6yTFdJUR8m3S74ocffkhrayvPPfccfn5+fWamjoPJEY7tYZcYz+9//3u8vb1ZvHgxCQkJfd4rwyOVQ/xXKUy8u7u76e7u5s9//jO1tbXEx8dTXl5Oa2srBoOB7u5ujEYjHR0dxMXFMXz4cKKjowkMDJSFmVqtRq/Xo5H2t1xdXdFqteh0OtTSSkmsgsRqTanK6O3tlf/bpH0Ns9lMS0uLLDRs0j5LQ0MDfn5+qKXVT3h4uGyiLDw42KSbDJ944gkGDhyIRqPBYDDg7u4ul0fZRqK/xTMRprGxkaVLlzJlyhQefvhhOX2Bq/WZgKMgamho4J133qGtrY2FCxcyfPhwNA57TKIsynjXQn9x7BJ97tmzh3feeUc+9xEXFyeP3eupw41A5On4rXwP0NbWxvr163n99dcxmUw8+eSTPPLII3IcZfimpibWrFlDZ2cnEyZMoO7/Y++9w6Mq9v/x19mWbDabsukJaYSS0HsHAREQBUSwYwUVRa/3Wq/tfmzYrr1jwYpKVQEpAor0TughJIGE9L7JZvvu+f3xO+/5zg4bCBC4oPt6nn32nDnT512mvqe8HDt37kRGRgbatWuHbt26ISwsjNVBRUUF7r33XgQFBeHFF1/0OXNE/2dStxcbLlrFQjaUvvzyS0yfPh39+/eH2WzG3XffjYiICDz88MM+J3/NZjN++ukn/Pjjjxg9ejQeeughNtXBE09DQwNefvll7N69G3feeSfGjx/PzhDYbDaUlpYiJycHmzZtQlBQEG655Ra0bduWMTKfX57h+by3BogA9+/fjzVr1gAArrzySrRr145ZwIUgyHm0NC8Uzmq1Ytu2bXjnnXdw00034aqrrvKxg0XxiUxFQoncnU4ndMolS17lnMynn36K+++/H8OGDYNa2QrtL39UpzS90tjYiP3792P16tXIy8vD1q1bUVdXB5PJBJPJhHbt2iEjIwMxMTHQ6/XQ6XRIT09HUlISwsPDERoa6kMD9KO0CP7y0hy83HqZR7GdRSZnSNE0NjaitrYWR48exa5du3D8+HEMGzYMXbt2xdGjR3HkyBFUVlbC6/UiIyMDycnJSE5ORo8ePdC3b1/ExsYCSr2TkqN3Pt91dXX4888/8fbbb+PDDz9EVlYWJGGtqiXgFYvX68XPP/+MrVu3sltYeXt7ZwuRZqxWK1uTWrduHf78809ERERg9OjRaNu2LevBnw8QPYjl5unjxIkT+OWXX5CdnY3U1FRA6bhOmzaNTb1TXFA6gocOHcIXX3yBsrIydOnSBR06dEBmZiaysrLYmhQfZsGCBXjppZdw11134aabbmLtTjhf5b8QuCgUC090stKjKSwsxJdffok2bdrgtttug06nw/vvv49vvvkGzz77LEaNGuWzYL9x40Z88803MBqN+Oc//4mUlBTWsyR4PB68+eabWLhwIcaOHYvbb78dbdu2Zd8pLovFgg0bNmDjxo3QarW48sor0atXL2iVHUSUX/rnGb61iIGIX1bug/nhhx+QlJSEq6++ml0xS/5kwQxKS/PA1zuUO8N/+OEH7Ny5E7NmzUJiYiLLB8XJx01pE3PKypqNVllAV6lUqKmpwf/93/9h0KBBuOKKK1hPnuKkPLhcLpSVlaGwsBB79+5FQUEBLBYLTpw4gaqqKkRHR6Nbt26Ij4+H0WhEQkICkpKS2HuwYmeLZ16R+U9XL3yY5sDHxdcf706Cs7y8HPn5+SgtLUWnTp2QkZGB0tJSHD9+nNnzys7OxtatWxEcHIz09HSkpqZi9OjR6NevH5KSkthUkD9lUVRUhFdeeQVpaWm4//772RXZfE9XDCOC8k28kp2djcWLF6Njx464/PLLERcXd9o4WgpZGfHQBgmdTofNmzdj4cKF6NevH4YOHYqEhISTOgMtbb+WgjouYlu63W6oVCrs27cPK1asQHFxMbKysjBq1CgEBQVh2bJlOHHiBB5++GEkJCQwhS9JEioqKpCdnY0vvvgC+/fvx5133om7774bQUFB7O4m6owQjVZXV+OBBx5AcXExXn75ZQwZMsSnjK1V3v8FLpo1Fh5kmG/fvn2YNm0a9Ho91q1bh/fffx+TJk3CuHHj2BSYLMsoKCjAkiVLYDabccstt6Br164Ap6Q8yp77FStW4NNPP0Xnzp1x4403snuxCUTIQUFBSE5ORlRUFCoqKrB79240NTUhOTmZHWQTBUtrEwTFL0kS65Hv378flZWViIqK8jlgJYZDC4Wk+F2r1SIqKgpbtmyBzWZDly5dmDIV/VPZeaUiCbvXVMr0E+2Cio+PR3x8PBMwUE5WHzx4EKtWrcIPP/yAFStWYNWqVdi/fz+MRiMyMzMxfPhwXHnllRg/fjxGjhyJPn36oGPHjkhISIDRaGRbhfl8iu1B9UnvzeFU38B9by5+yodOud8nIyMDPXv2RHJyMgwGA2JjY9G2bVt07NgRXbt2RWZmJpKTkxETE4PKykrs2LEDR44cwdGjR1FeXo6mpibo9Xro9Xq4lJPgarUaDocDBw8exG+//Ybp06ezXrWogFpSHvJjtVoxb948SJKEESNGIDExERK36641wNNNXl4e3n33XWRkZGDChAlITEz0yT/PX2hBWc4EfFzUblarFbt378aKFStQXl6OgQMH4vLLL2ej3/DwcGzatAm1tbXo1asXqzuz2YxVq1bh4MGDSEtLQ0pKCsLCwpCcnIz4+HiA63y6FMsMUHYxmkwmLF26FDqdDu3btz+jjRcXMy4axUKN5Ha7cfjwYaxatQoDBgxAr169UFJSgqeffhqSJOGxxx5DmzZtGLE3NTXhl19+wbZt2zBkyBCMHj2aCUOJ2zZcUlKC5557DuHh4bj11luZuW1Km/+HwqC0kHvixAls2bIFDQ0NbMcHz3C8wGptYqAyJCcno66uDhs2bIDdbkdCQgJCQ0NPUiDNPfsDz7jEXEajEUFBQZg7dy569+7tc9BOEpQpuYnP9E9502q12L59O/R6PVJSUiDLMkpKSrBp0yb88ssv+OWXX7B06VLk5OTAaDRiwIABGDduHG644QaMGzeO3QpKi6R8mmL54Sd93l30K+J033mI5RW/UfpiHlTK+ZmQkBC0bdsWvXr1Qo8ePdC+fXtkZGRAr9fDbDZj69atyM7ORl5eHkpLSyEr1xOoVCrk5+dj8+bNCA4OxrXXXuuziE5p+svXqTB//nzk5+fjsssuQ6dOndiUZmsoFp5uPB4PcnJyMG/ePBiNRtx8881o06aND50RTlXHZwOic55nZeVitI0bN2LTpk0wGAwYMWIEBg0axEZsKuU4gEajwapVqxAcHIy4uDgcOHAAu3btgsViQUpKCsaMGYMuXbqguLgYlZWVSEtL85nWo/QJaWlp7KB3cnKyz5GHSxkXjWKB0sg1NTXYsGEDCgsLce+99wIAvv76a3zzzTd44okn0K9fP5/7F7Zt24b58+cjIiICt9xyC+shQGlEWZah0WjwwQcfYNu2bbjzzjsxcuRI1uPnCVcURCRo27Vrh+rqauzZsweNjY2Ijo5GaGgoI5DWJn4RlC+TyYTS0lJkZ2dDlmUkJib67CaShF1oLQHP8JKiBJKSkrB//37k5eWhU6dOrL5bEifFR8yrUuxZ7dmzB7m5uTh27Biys7OxZs0aLFy4EDt27EBYWBg6deqEMWPGYMqUKbjlllswfPhwtGnTho1GNMpBQz4f1L68G//N3/Op0BI/Ivgw4rMYn5gfKptWq4XJZEJWVhYGDRqE/v37o3fv3pA5cyqbN29GSUkJO19z6NAh7Nu3D9dddx0yMjJYu7e0rARqr4MHD+KNN97AZZddhuHDh7OLs1pDqRBkZQ0uLy8PCxYsQGNjIx5//HEkJiaythXpkYf4fi4g2nS73aioqMDKlSuxZcsWJCUlYcKECejduzcMBgPUyt1MOp0OwcHBSEpKQlVVFebMmQOz2czMIY0cORL9+/dHREQEIiMj0dDQgKNHjyI4OBjJycks7yru0DWUMrVt2xZr1qxBQ0MDMjIymNmp1izvhcZFoVh4JiwoKMD69esRExOD/v37Y8+ePXj33XcxYMAAPProoz6Hv8jsQ2lpKa6//no2R0nfabSyc+dOPPHEE5gyZQpuvvlmxMTEcKn//6AwYmOqVCqEhISgU6dOMBqN2L17N8rLy6HX62E0Gn1GR7ygO1dQPDJnjDMkJATR0dEoLCzE0aNHERYWxowNigzZknzw3/kwGo0G7dq1w4cffojk5GQm4E8FCs8LCJVKBZvNhvr6eqxcuRJLly7Fzz//jB07dsBqtSIlJQUTJkzAzJkzcdNNN2HIkCFsc4KkKEmtYjOsuV4cTZ3IyvSa2I7UJrxba0Di2pxPy587H8affx5qtRpGoxExMTG47LLLMHToUMTFxQEAjh8/jh07duDo0aMoKChAQUEBpk6dCo1Gw5QUQYy3OXiVy7Nmz54NrVaLG2+8kZ3cb2kcLYXdbkdOTg6WLVuG6upqPPTQQ+yiPQJfh+KvNUDxSMpmna1bt2LHjh04ceIEunTpgquuusrHxA7vH8p0cdu2bTFnzhz89NNPmDJlCiZOnIikpCQ2aqTOQkVFBYqKitC2bVu2ziJxm1Po3Wg0wmKxYO3atQhSLCiLI/NLDReFYoFCUPX19cjNzUVlZSWCgoJgsVjw0UcfobGxEYsXL2ZTUJJyKvu7777Dr7/+ipEjR+KGG26AXq8/qTGOHTuGRx55BA0NDXjttdeQnJzsI6T8CR2JE4wEnU6HjIwMmEwmtkspLCwMJpOJCUJZOa1OiuBcIRK1SqVCREQEkpKSUFlZidraWkRGRrIdUeRHDH8q8H54pg4PD0dVVRUOHTqE5ORkmEymk3qvVI9UdqozWbFqcOLECWzevBlr1qzBH3/8AYvFgrS0NEyaNAn/+Mc/cMcdd2DYsGEsblqX4XtzYpo8KC2+fgiUJ8pfS+riTMG3D5Wf3Hgl1xyovFRv1JPl4wkNDUXXrl0xduxY9O/fHy6XC9u3b0d2djbKy8vZRomoqCgEnYUpeZfLhXnz5mHLli2YOXMmMjMzoVN2HfrjjbOF2+1GXl4eFi1ahKKiIjz44IPo2LEjKzvVIT0TWjMP4Doa9fX12LVrF7799ltIkoRbbrkFgwcP9pnJ4PNE+VApSkOv1yM3Nxe33XYb2rZtC61wGDY0NBQejwfHjh2DzWZDamoqW8/l6ZveMzMzsXv3buTn5yM1NZVZObhUcdEolqamJvz555/Iy8vDNddcA51Oh7fffhvr16/HVVdd5TMF5na7UVRUhM8++wwGgwE33XQTMjMzAY4Q3W43GhoaMHv2bCxbtgwzZ87EiBEj2LqKKHSaI2D6Ts/x8fFISEhAfn4+jh07xhZp+d07rQHKE58fiZvrjYqKQnFxMQ4ePAitYruKekxiuFOBGI0Y2qOcvHY4HBg0aBB+++03WCwWJCcns9EiX2d8OipFOVRXV2Pz5s347LPP8O6772LHjh0YOHAgrr/+evzrX//C9ddfz3Y8gatznoklpZ1FQUOg9Pl25J8pPvLbmhDrjK8Hf//iM70TrZCgoX9/4WRZhslkwuDBgzF06FAEBwejoqIChw8fxt69eyEpbafRaKDX608axVI8PNxuNwoKCvDxxx/jsssuw9ixY9k5GIlbn+Tz1RxEWuBhs9mQl5eH9evXo6qqCrfeeit69uwJ+Gl7MQ7+XfxGOFXaIpxOJ44dO4YtW7Zg7dq16N27N+68886TNg4Q+DajdtBoNOjevTsKCgpQWlqK9u3bw2g0su8ULjg4GBaLBYcOHYLJZEJ8fLyPH17BaLVa2O12/Prrr7BYLOjTpw/0ev1JZRPfL1ZcUMXCV4pI9Bs3bsSWLVuQlZWFgQMHoqmpCYsXL4ZarcagQYNQWlqK6OhohISEoK6uDp9//jlOnDiBadOmYcyYMT5xkYA7ePAgnnnmGUycOBHPPvvsKXdcEOGc6p2QkJCArl27wuv1YsuWLaiqqkJycjKClBPJ5J/K25Leqz80lz4UC8KyLCM3NxclJSUwGAyIj48/iTnFtPn88f/kF4rA0el00Gq1aGpqwtq1a9GmTRskJib6DNH5OvJ4PKiqqkJ+fj6+/fZbvPrqq8jPz0fnzp1xxx134Pbbb8fw4cPZXn0xfYkbnZCbP0bnwadP76f63lrg80rv/D89i+88/IURv9GzJFyHEBMTg+HDh+Ouu+7C5ZdfjgULFuCnn37C+++/D5PJhNjYWJ+NKR6Ph42OKG6v14vi4mL897//RWZmJq6++mom+CRh9CDSDM+7fHzid1kZue7Zswc//vgj6uvrfcz78PH6qwcC/52XIZQm/fN5pXA8HA4HDh8+jPfffx8FBQWYPn06Lr/8cnaOjQ/H/3jw70OGDMHXX3+NqKiokzpKXq8XQUFBCA8PR0VFBfbs2YOBAwdC4nZO8nXg9XqRlZWF48ePsxP83bp1Y+3AyxIxHxcjLphioWE+OOKgf4/Hg02bNsFut2PSpEmQZRlbt27FsmXLMHv2bEyaNAkul4tdkpOXl4cvv/wSEydOxMSJE9logSpbVu79fuedd5Cbm4vFixezHsW5goiNdvQ0NTVh1apVKC4uRqdOnaAVLOGC65nwTHGukJXFe51Oh+3bt6O8vBzp6ens0BmlQ/VMz/Tj3fh/tbJgS73pjIwM5Obmora2FomJiT5XDxCh2+125Obm4plnnsEjjzyC7Oxs3Hzzzfj0009x9913o1+/foiOjvYZzVE+Ajg7yMq5C51OhxkzZqBDhw7YsmULVq9ejU2bNsFoNCI2NhY6xSI2dQhkZbqWToofP34c//rXv5hVBF658+3Dv/N0BOFciMSNeu12O7Zt24bvv/8eDocDd9xxBzth7uXOmLWUL0R//NQpnxe+HFTepqYm7N27F19++SX69OmDsWPHomvXrieNmlsKKr/JZMKqVauYpQe+/tRqNTtfdfz4ccTExLBLyijPEqfEVcomlSNHjkCWZQwdOpRNsVH+VMqGA77MFyMuiGIRhRi43oZKpcIff/yBqqoqjBgxAunp6diyZQsee+wxdO/eHY899hh0Oh3S0tIwYMAALFiwAM888wxiYmIwdepUdOzYkcVJ8ZvNZvz666+YPXs2li5divT09JOI8lzAM0bHjh3Rrl077Ny5EwsWLEBYWBjS09PZd0mZ0iEiam3QSGLXrl3YsWMHunXrxkyXUJkpXfoX24PPF+/fqyyeJyYm4pdffoFarUZKSgo8yg2VOp0OZWVl+Oijj3DbbbehqqoKo0aNwiuvvILp06cjNDSUrZcRwxFDUB7EvATQMkjKJougoCB4vV5kZmYyBbF8+XLMmTMHy5cvhyzLSEtLY+ZEwE07r1mzBm+88Qabz+eFFbUR3z7NtREvxFVcp+TIkSP48ccf4XK5MH36dPTu3duH76mz2Vy8IihPFI7S5Xvx/uI7dOgQZs2ahQULFuDWW2/F6NGjkZ6ezoQ25UkMdyrQtGNaWhoWLVoEt9uN1NTUk0zqqBVbfLLSWe7Tpw9ba6F0wdF/cnIyqqqqsG/fPoSHhyMjI4PxMZVdo9EwBXomeb6QuCCKhSrArdz3QAQA5bT3tm3bYDKZMHToUNTV1eG3337DgQMH8Pbbb/uc/PV6vdiwYQMOHjwIi3L/ORkRJD+yLGPPnj145pln0LdvX9x2221sFNFaoPwT40VFRSEtLQ2yLCMnJwdVVVXo3LkzvMop47NZ+zgd+PKGhYVBo9Fg06ZN2Lt3L/bu3YtBgwYx5iUC9nCXhPHuFJe/vMnKneBBQUHYvn07mpqakJKSgtLSUnzyySd48cUXsW7dOowZMwbPPvss7rnnHmaET61WQ6/XQ6vY46I6IJwq3QBaBom72E6WZXTo0AETJ06EyWRCdnY2li1bhj179iAyMhIdOnSALMs4evQoFi9ejCuvvNJnrYPogp7F36kg9qKPHTuGd999F3a7Hffeey969OjB4iHeoZHOmYDCE4inKF26r0elUqGhoQGrV6/GF198AVmW8Y9//AMjR45kFgok7iAvlZ3cTwfKg6Ts6vrzzz+RrJjmkYQZAZI/2dnZCAoKYgdP+bzz/KjVarFz504cPnwYY8aMYRtzyC/VQUvy+b/CBVEsPLHyFSJJElatWoUjR44gMzMTGRkZWL16NT744ANMnDgRkyZNYuGgnMh/8sknMXjwYDz33HNITk7G4cOHcejQIUiKSesDBw7grbfeQmlpKV599VW0bdsWasUMOk+QZwtRMFKcRqMRiYmJcDqd2Lp1K7Zu3YrBgwdDo9GwEUtrpE+gfKiU4XNERARUKhUzO5GTk4MhQ4ZAqxgMFOuemFtULmIvin4WiwVVVVWoqqrC3r178fXXX+PHH39ETEwM/vOf/2DGjBno2LEjm4pTceYrpBb0fsX3AFoGD3c/CbVxWFgYEhMT0aNHD5SWlmLjxo0oLCyEpIxyNm/ejLy8PEyaNIkd+qM2IhpxKxektbRdqE1l5bDhBx98AIfDgRtuuAE9e/ZkhwTJD/X46f106RD9eLkpdV4p0HetVguHw4GKigqsW7cOGzduRPv27XHvvfeyQ58QNiQQL/ijy1OB+DohIQG7d+/GsWPHEBMTg6ioKNYWFKdGo4FXuVp93LhxPuUgPyqlIxgVFYXjx4/jt99+Q2RkJFtrofaBn7XTiw0XRLGAGybTsyRJKC0txZIlSxAREYHhw4ejpqYGixYtQl1dHWbNmoXw8HBAISAAePXVV7Fp0yY8+uijGDBgABITE2EymdDQ0ID9+/dj7969bLfHNddcgxtvvJEx3JkSTXPwF4ek9BpDQkIQFxcHnU6Hn3/+GQ0NDWjTpg2MRiMjsjPpFZ0KFJ7qUqfTITExEe3atUNwcDB++uknpKamIiUlBVqt9qTpOP7fnxuBpr0iIyNhNpvx888/46effoKkbNF88MEH0b9/fxgMBgQHB7P8UFuLzMPnm6eJc62PvyOorqkeadSgUkzpxMfHY9iwYTAajdi2bRtWr16NJUuWoKqqCg899BA7L8ELaH6Nghe+PGQ/05eUl/z8fMyaNQsejwc33HAD+vXrB71y+6MIPu+nA08/FE58htL53LJlC77//nvU1NRg7NixGDVqFLNBRmHEDtWZKBaediWF9w0GA1avXg2dYpqFNvJQXdFmmN27d2P06NEAp9DA1QWUi+OCgoJQVFSEnJwcXHHFFQjmrsxwK2Z9WpLX/xUumGIB13hQKvKHH35AXl4eBg0ahO7du2PVqlVYunQprrnmGowcOdKn4vbv348XXngB48ePx8SJExEeHg6dTofw8HDExcVBr9djy5Yt+OGHH5Cens5Mv6sEw2+tCZ4YCKRckpOT2T0O7dq1YzvSWkq8LQEfj1pZKIyLi2PmTxYtWoTIyMiTdqxQviVhFMW3DU/wKpUKixcvxhdffIH8/HyMHj0ad911F0aOHInMzEwEBwfDq6zHQOgBinHzz/TP994CODOQgOP/ZaXnHqxce9yxY0d069YNNpsNGzduhNvtRteuXdGlSxc0NjayHWQ4hYIX249/59v6v//9L6qqqjB58mQMHjz4pB1X4NpbjPNU4IU5T5v07/V6UVdXh++++w6bNm1CamoqxowZgx49ejAzOETXYlpnkg8I6ZIiplFGdXU14uLiTtr9KMsyQkJCkJ6ejujoaJ+88H7oOTw8HE1NTdi2bRsiIyOZJXc+7Zbk9X+FC6ZYeGEjSRLKysowZ84cZGVlYdy4cSgtLcUPP/wAt9t90gl7l8uFadOmITQ0FA899BAyMjJ8eh96vZ4tSFZXV+Pxxx9H//792XciyNYA3/hiw9J7UFAQs7ybnZ2N33//HS6XC0lJSc323s4GIoOBu1c9NTUV+/btQ0lJCYxGI6Kjo6FTDnJSGD6cWC6qMxpFfvHFFygpKcF1112Hu+66C7179/aJU63sJhOn0gj0THnmIeYlgJbBX/1SXZIgVSlTY8nJycjKykL37t2h0WiwaNEi7N27F7169YLJZGq2zUign66NLBYLZs2ahfLyckyZMgVDhgyBkTO3L8YrKcqA+PJUcUMoH/1TvrxeL/bv34/Zs2ejoKAAgwcPxpgxY5jdNd6v+EzvYjqnAp8u1bNarUZ8fDz27dsHi8WC9PR0NsqgNNRqNZsmI3d6pjgpLzqdDgaDAZWVldiwYQMGDhx40jmyixkXRLFQhREReTwerFy5Evn5+Rg5ciTatm2LxYsXY8OGDRgxYgTGjRvHwtE249dffx2vv/46Bg4c6GMfi/z9/vvv+Pnnn9G/f3/cfffdPmsLzTUEL5j551OBT1P855lEq9Uya747d+7EmjVroFKpkJKS4nPGgPJ4NhDLxZfVYDAgKSkJR48exdGjR6HX69npbLGs4j+Uulm+fDk++OADrF+/Hj169MANN9yA8ePHo3379mznGaUnCggxX/wzn2+xDAGcGcT6FuuWoNVqERsbi/bt28NkMiE/Px9r167FsWPHkKTcX0PrD+I0kfgvK1ud1crOQ4fDgU8//RTV1dUYN24chg4detK2dH//9CxxfCDSJg/+O8/ba9euxerVq+H1ejFixAiMGDHCx8SKmK6/uHEKdxF8PfAd1oiICDidTuzduxder/ekHastTZ/8hio3WG7atAlarZbZj+P9Xqy4IIoFHFHIimXbL7/8Et27d8fw4cNRVVWFhQsXQqvVYsaMGT62vOrr6/Hwww8DALNOTJVLyM/Px/fff4+GhgY89NBDPnesiI3vr2F4t7NpMH9EQ+kmJiay8hw6dAgnTpxAVFQUIiIiIAlTUcQs5wrKT2xsLIxGIwoLC5Gbm4u0tDRERUX5rPPwdUnpk/n0jz76CPn5+Zg4cSJuuukmDB48GDExMSeVlYdYh/78EE71LYCW41TtAaFNNBoNoqOjkZqaCoPBAKvVyky+R0dHw2QyMYEMhSZogwAfP73X1dXh5ZdfhtfrxahRozBgwAC2Nkpp82iONiSBFkV3MW2Px4MjR45g2bJlOHToENq2bYsRI0agT58+TKnx5aZ3fxD9tQSUJzF/wcHB2LNnD/Ly8pCUlOQjy3h/Ynq8Oz1rNBpoNBqUlZVh8+bNmDhxIjTcVuXWmoU5H7ggioWvUFmWsXLlShw7dgxXXXUVsrKysGzZMmzbtg0jR47E+PHjGYHZbDZs2LAB//3vf/HMM8+gf//+bB6fGtSr3Hi3ZMkSDBw4EHfddRdLV+Vnrp/gr4Fbq6HEuNu0aYMuXbrA7XYjNzcXBw4cYCflm1uE8+d2NkhISIDBYEB+fj7KyspgMpnYDjIxDafTiUOHDmH27Nn48ssvkZaWhsmTJ+PWW29FSkrKec9rAK0PsW0k5b6h+Ph4dOrUCV27dsWmTZuwaNEiVFZWIiUlhZkHIhAPET8Rn1RWVuLrr7/G7t27MX36dHTp0sXH6jcPMR8tAR+G5ym73Y7s7GzMmzcPx44dw8CBAzF69GikpKT47D7zF7Y1IQkjLKqjpqYm7N+/HzabjY0y6B4WXiG1BMHBwbDb7Vi8eDG6devGzuRd7Av4F0SxgCNOs9mM+fPnY+DAgejXrx9qa2vx1VdfQafT4fbbb2cLW16vl52ej4yMxGuvvcYWAuknK+dGvv32W+zZswcmk4nNY9JedWIGcI3PEwTv3pqgNOhfr9czI5Z5eXk4evQoy6uWs5BM+WjN/ERFRbHNDVarFYmJiWwzgVc5a+NwOLBz50589NFH+OyzzzB06FA89NBDuOKKK3wWP+Enb+J7ABcXRPqHMjVmNBoRHx+PjIwMZqeqpqYG0dHRbP2MwlH7S8qCdVlZGX766Sds2rQJM2fOZPcb8bTQ3PPpwAtfnk89Hg/Ky8uxbt06bN68GbIs44orrsDIkSNPUmj+0vPndjYQRwsUryzL0Ol0bKqxuLgYnTt3htFohFs5UHymCkGj3KZ5+PBh5ObmYsyYMWzDwJnEc6FxwRQLlAb49ddfUVRUhPHjxyMhIQHz5s3Dxo0bcfnll+Pqq68GFGVgsVjw559/Ys6cOZg1axY6derkMwIhops7dy42btyItLQ0BAcHIycnB/X19QDARgRyCxbvz0cD8YpFpZxITk5ORpcuXXDgwAHs2bMHKsViMW/8r7XzotFoYDKZWP1YLBZER0fDYDDAo5j3WL9+Pb766is25H7ppZd87h7n8yUq5QAuTvDtBD+CXlIURkxMDAYOHAibzYZly5ahpKQE0dHRzCSM1+tlNCwr51QWLFiA3bt347rrrmOX64lp8QqtJSB+ISXG599ut6OgoABLly7Fn3/+ifT0dNxxxx3o3r07dMKVAQReVuAM8nE68Hwt5hOKZWO6d8blcqFHjx4+65F8nlqCoKAgBAcH4/vvv8fAgQN9jN5erLggioUawOFw4JlnnsGgQYPQu3dv1NXV4eOPP4bBYMANN9zgczNkUVERPvzwQ4SEhOC5555jxMYvLObk5ODHH39EdHQ0HnnkEVx77bUwmUxYv349cnNz2T0HdPqbIBLDmTZ0SyHueiHGDA0NRWJiIurq6nDgwAFYrVbExMT4KJfWAE/4QUFByMjIQGVlJXbu3Amn04m4uDhYLBasWbMGH3/8MSoqKjB16lS88soriIyMhE6ng9Pp9NnxBaGH1lp5DaD1wQtWvp34Z1mWYbPZYDKZcMUVV6C6uhp//vknCgsLER0djaSkJLbzT5IkVFZWYvny5Zg/fz6mTZuGiRMnnsSbYhotpRE+LM+fVqsVubm5WL58Ofbs2YPhw4djypQpzCoH+T9VOVuah5aAykq87Y8PQkNDceTIEezZsweDBg1iZl346bCWIigoCHq9Hps3b8aRI0cwatQo1uG7WHFBFAs1/N69e7Fq1SrMmDEDycnJWL58ObZv344JEyZg/PjxzJ/NZsOmTZvw+eefY9asWcwUhcT1ZjweD95++20cOnQIN954I8aNG4eIiAhkZmZiyJAhsNlsWLFiBXbt2gWPxwODwcC2P1I8/oixtSBzPTwauoJbxzGZTOjRowe8ipmaqqoqxMXF+WyzPleIDCAp1gkqKyuRnZ2NsrIybN++Hd999x1CQkJw33334d577/UhfrViURd+GOhi7jEF8P86TLyQ5tuP2pPfDXbFFVfA4/Fgy5YtKCwsRGhoKOLj46HX61FRUYFly5ZhzZo1GDRoEG6//XaolIOUlIaYHrmdDpQXvvNis9lQWlqKvXv3Yv369aisrMT111+Pq6++Gkaj0edgJ9/h5H8yt11apN+zBcXJ8xXF7/V64XK5UF9fjy1btmDz5s1MLvFT3qeDWIcqlQo6nQ6vvvoqbr75ZnZG72LFBVEshJdeegljxoxB7969AQBvvvkmUlJSMGXKFERHR7MGO3z4MN59913odDq8/PLLPo1IFV5eXo5vvvkGXbp0wQ033MAu6AEAvV6PLl26YMiQIThw4ACWLFmCiooKJCUl+dgJEhtYfD8XUD5lztyGSCxqtRodOnRAVFQUVq9ejV27drGbKlsrLzzjQTnAGRkZiQ0bNuDjjz/G/v370bVrV7z88svsUKqXszxL+RB7o1Se1mLWAM4fqL14GuTpnwQ0dSgGDhyIuLg4bNq0CZs2bWIHkVetWoWFCxdi8uTJuOOOO9iaCsXJC1qeNlpKH5LS4fMqFrMPHDjApspTU1Nx7bXXYsCAAYymSaH5Kx+BFB/F39K8nAo8f3iVaUJCRUUFDh06hHnz5mHFihWoqKjAiRMnMGTIEESdwZXD5If+tVotoqOj8fnnn0OtVqN///4+59IuNlwQlef1etHU1ITS0lKMGzcOJpMJu3btQllZGXr37s32e0uKUCsoKMCBAwdw//33sx4335Nxu9347LPPcPToUXTo0AEJCQksLSI4tVqNiIgIPPvss3j//ffhdrvxzjvvYOXKlTh69Cjq6+vZSKI5ojwXUJ55hUgMwSsdr9eLvn374q677kJ1dTVeeOEFHD9+HE6n85zzw6dDjABlt11DQwNcLhcmTJiAzz77jN2RAUXh8eDzwRMy1XUAFydE+mlO0NMCMTjhO2HCBDz33HOIi4vDDz/8gMcffxw//vgjrr/+elx//fVs9E98SQKW6JunDTEf/kB5kpUdVHv37mWXXk2ZMgV33HEHOnXqxPzSj9KgLdF8XJQXXna0Bvg0SbnZbDaUl5djyZIlePLJJ7Fv3z489dRTeOWVVxAdHY3a2loWviX1QaAOnVoxGXXNNdfgnXfegdVqFb1eVJC8Xm/LS9lCUGNSD8jhcOCTTz6BLMu48847ERERgXvuuQculwszZsxAv379AKXh8/Ly8OGHH2LXrl1Ys2YNG6bzOHz4MO677z506dIFDz74IDp06MDCnwobN27EU089BafTiSlTpuCaa65BSkqKz759cAQp+bEpROCZSBZGVKJff+CZgJ5LSkrw2Wef4bvvvsOXX36JTp06ISIi4qTRgz/C5NPk8ya6ezwePPfcc/j8889x44034tlnn4XJZGLfiVHEOAP4a4KnEf7Z6/XC6XSirq4On3zyCT755BOMGDECr7/+OpKSkhi9O51OBAUF+UxL8fQHgW7JneSDRzC3JCsHc//44w8kJSXhqquu8pkKP1eI8Yjlh5JfUkZ8x4ny7fF4fDY1lJWV4ddff8WqVasQFBSEiRMnYtSoUYiKikJjYyMWLFiAr776Cj/99BObmRH5k9Km9MW6g6LIiouL0bFjR2zevBldu3ZlsyFivcst2LB0PnHOU2FUuTwkbpgKpUfUp08f3H333Rg5ciQiIyPRqVMnzJs3DxqNBl26dGH2psLDw+HxeDB//nxERUWhW7durHJJyEdHR8Pr9WLBggWIiIhAv379WkR0iYmJmDp1Ku666y7k5eXhnXfewbp166DX6xEfH8+UGDUQET89U6PxvTP6eZRb+sTevj/wYXm3sLAwDB06FHfeeScKCgqYGYf4+Hg2Pcb/KBxf1xAUI/XkKEx1dTUWL16MrVu3okePHhgzZgyzI0Zh+f8A/trw185EKyqVCqGhoRg2bBhuvfVWVFVV4YUXXmD0aDQaoVHuBiE+IaHGx8MLOvpGz7zw83q9yMvLQ25uLsxmM+Li4tC+fXt2mLg1wMfD51P8xitJ8icrI3/icbPZjOXLl2Pp0qVwOBy4+eabMW3aNPTs2ZMdjaBF9ry8PNhsNnTv3p2VWRLWlPj6Ini5GRu1Wo2goCAcPHgQe/fuxYABA2A0Gn2U4KnKdCFxzoqFzzhVDJRGIMJxuVxYtGgRvF4vrrnmGoSFheHpp5+G3W7Htddei8zMTBb22LFjWLhwIerq6vDUU0+xC4qowiVJQkVFBV5//XWMGTMGt9xyC0JDQ1tUgSplikytrG1cffXViI2NxfLly/HZZ5+hqKgIWVlZJ52XIVD6Km7elsqpVnZOtSQf4OqNJwpKLzg4GCkpKbjnnnvw9ddfY/78+UhMTERCQoLf0QvPoJRH+k55dblcqK2txZNPPomFCxfi9ttvx7/+9S+YTCa2qMjH29JyBPDXgdj2PA2Fhoaibdu28Hq9eO2116DVatGrVy8fQUudL14o83ETnfK0y9PZkiVL8OmnnyI6OhrXXXcd21rbks7amYB4hucTArnxApr3R2ELCgrw6aefYuPGjdBqtbjqqqvQvXt3trOTICv3NfXv3x/l5eV46aWXMGXKFKYwCGKd8PkipQKlLUaPHo22bdti6tSp6N69u88IkkDhxfJdKJyzYoEf5UKNQhrUarXikUcewR133IEOHTqgqKgIn376Ka6++mqMGTMGISEhLMyBAwfw+++/Y+TIkRg1ahSrML6yZ8+eja1bt2L8+PHo27fvGVUiNZxWsf4aHx+P9PR0AEBBQQFKSkpQX1+PjIwMSC3oUYgCXWSWU4GPk3eDss4REhKCAQMGYOXKldi9ezeio6MRHx/vY++L0ufzSf88A6lUKjz88MOYP38+pk+fjocffhipqanQaDQ+dUxoaRkCuLTBC1D6F4UqFDoLCQlBQkICvF4vfvjhB3Tq1ImdqaBwKsV8vxgnPZNAJb+yLMNsNmPJkiXYsmUL2rVrhzFjxiAtLQ06nQ7qs9ie2xLweYJQDzzf8N+8Xi8sFgu+/vprPPnkk7DZbJg8eTKmTJmCDh06MIOXfDi1Wg2NRgODwYCgoCCsWbMG8fHxSElJYUpWTEfMF8+fKpUKer0eJpMJs2fPhtvtZqM6Pgzlv7XrraU4Z8VCAo3AE5Msy7Db7di+fTu+//57PPPMM4iMjMTcuXNx4MABXHPNNejatSugVEZlZSVWrVqFiooKPPbYYwgLCztJszc0NOD1119H9+7d2YijpRUoEqikLIpFRESgQ4cO6Ny5M1TKVckrVqxAamqqj/lranh658HnQfwmQvzOx03x0C8sLAw9e/ZEVFQUvvvuO5SWlqJNmzaIiIhgBCQSKMVHbg6HA48//jgWLFiAm266CTNmzGAXoImKkcIH8PcA39b+2p9oiOjMYDAgNTUVwcHBWLx4MRISEthImmhJpEcIPXFy93g8+PPPP7Fy5Uq43W707dsXw4YNQ0pKis+OJzGuc0Fzwpvc6JnKACWfx48fx4IFCzBv3jzo9XrMnDmT3cAZExPDDmmKfEzxS8plX3V1dVi0aBHGjx/vYyjXH/+J9UVusixDo9GgoaGBmbJKTU1lfnhF9L/COSsWHnyFUAXX19fj/fffx+DBg3HFFVegqakJb731FoYMGYLRo0f7GIz7888/mU2ccePG+RAjPS9atAirVq3CzTffjAEDBrDG4dNvDhSPSOQajQahoaGIiopiN8BZLBasWLEChw4dQlZWlo8JbBryN5dec+4EPjz5bS4+SZIQERGB5ORkaLVa/PHHH6irq2PKhQdPpDyR/+tf/8K8efNw7bXX4p577kFqaiokZdTGw1/6Afw9IPIQ0SO5EzQaDYxGI1JSUuB0OvHOO++gf//+iI2N9ZmmlfzwCfEelEX/P//8k62ljh49GpmZmYiMjPTZTNMcX5wtxPh4WSDC6/XixIkTWLp0KZYtWwa3242RI0diyJAh6NKlC6Kjo33M8sNP/Hw5tFotwsLC8Nprr2HYsGGIjY31UWBiOKov4mcxvqSkJMybNw8JCQlo3749u5JDbMv/Bc5ZsYiVysPlcuHw4cP48ssvMWvWLERGRmL//v2YP38+brnlFvTo0YMRkdPpxNq1a3HkyBFMmzYNSUlJJ8UHAE8//TSSkpIwefJkJCUlnaQoTgXen5hnWRm20kJ+amoqoqKi0NDQgHXr1uH48ePM9IpGuWZUTI8ngDMBnwfKo/gtJCQEbdq0QUpKCkpKSrB79264XC7Ex8f79HzIv1e5Q/vTTz/Fp59+iokTJ+Luu+9Gp06dmDkIPq9iWQL4+0Bse/FdhKTc8x4TE4O8vDysX7+eTYuJW5f5MISmpib88ccfWL16Nbp3747LL78cbdu2hV6v9xG0PPy5nSvEfNK73W7H0aNH8eeff2Ljxo0oLy9Hhw4dcMUVV6BHjx6IjY1lMyn8FLTIu+RObmq1GjqdDocOHUJdXR169+7tcwUIpS+G4//5NMLCwrBx40YcPnwYnTp1QlJSko9/8flC4pwViyjQ+Aqqra3F8uXL4XK5cMcdd0CSJLz33nvQaDSYMGEC4uPjWbgdO3Zg0aJFiIqKwm233XaSCRZJkrBlyxbMnj0bd999N/r37892M4kN0Bz8+fPnptFoEBYWhrZt27Ke2M6dO7Fz507Y7XbExMT43KniL75TwZ9/kcjpma/f4OBgJCcnIzQ0FHl5edi1axcsFguzYMz793q9WLVqFf773/+ia9euuP/++9G1a1cfpXKqvPpjkgD+euDpi9q7uXbnv6u4Bf1du3Zhw4YN6N+/v89lVHw4WTnrcfDgQSxduhT19fXo168fLrvsMrbl3x9NinG1NihuWTk/c/jwYSxfvhybN2+G0+lEu3bt0KtXL/Tr1w9paWlsowvVG88n/D+fb96PWrEX+O2332LChAl+D2xTvHyc/p6dTieCg4Px22+/IS0tDR07dvTZiCOGuZA48+71acBr3YaGBuzZswc33ngjAKC4uBirVq3CqFGjkJiYyPx7PB5s374dJSUl7P50sdE8Hg+++OILREZGomvXrud81a/YkP7iUKvVSE1NxYQJE3DllVciKioK+/btw+LFi3Hw4EE4nU7Aj3LlwdeHCNF/c3Hw8Hq9yMrKwsSJE5GYmIgtW7Zg/fr1aGhoAJT0HA4HfvvtN7z99ttIS0vDjBkz0Llz55POBJ1J3gL4a0JsZ3/vIl3Se1BQELp06YI777wTZWVlWLlyJWpra/3SVWNjI3bs2MG25pKpe3E6iCCm6Q9iOuI7gXfn14TJ3eFwoLi4GKtXr8bSpUtRWlqK9PR0DB8+HFdccQWb6gNXPzTaF6eyxDyLeVKr1ejRowdMJhOOHTsGh8Ph813yM/1I7vTPPw8bNgzR0dHYvXs3ioqK/Pr7X+CcRyz+Mi8pPeaioiL88ssveOSRRxAcHIwff/wR69atwwMPPIDU1FTWKAUFBVi8eDF0Oh2mT5/ODuyBa5jCwkI8//zzuP322zF06FAfTc//nw6n8ic2Bv+cnp7Obk5saGjAgQMHcOzYMbjdboSEhPiswYjg3fz1RMR3Ph/8P9WrRqNht1PKsoy8vDwcOXKE2XTavXs3XnrpJRw6dAgvvvgihg0bdpJJcz7uAAJoKUSaUalUiI+Ph0qlQnZ2NhobG5GQkMCOAFgsFuTl5WHLli3Yv38/EhISMG7cOHaHu784xfdTwZ9fchMFNN8B9Hg8aGhowI4dO5CdnY3S0lLU1tYiIiICQ4YMYSMp/mybijMhI8KfG/zIFFmZ7m5sbER2dja7w8ZfvPQuuhPUyrmW/Px8HDp0CBkZGWjfvr3o7X+Cc1YszaGmpgabNm2CSqXCVVddBVmW8cQTT6Br16646qqrEBYWxrT+b7/9hg0bNqBv37646qqrmMKRFO3t9Xrx0Ucf4cCBA3jxxReRnJzMvuEUFX82oAbmiZDWU0JDQ5GRkYHMzEwUFhZi+/btyMnJQUNDAyIiInxGUSJRn2l+RULjn6l+TCYT2rZtC6vVivXr16O+vh5utxuffvopDh06hOuuuw4333yzj9Xk5uIMIICzhVqtRps2bVBfX49FixbBYDAgJSUFZrMZmzZtwurVq1FcXIwuXbrgmmuuQWxsLBPUOAs65HnrdPQs8pFKpYLT6UR2djb27NmDlStXoq6uDmlpaRgwYAAGDBiANm3asLVfCkvPYnxnA0nZ7fntt9+ie/fuiImJYXVB31uSBikpvV6PTZs2ITExEV27dj0prv8FWkWxiJmXlV708uXLMX36dERFRSEnJwcvvfQSnnvuOWRlZfnsfV+yZAkaGxtx7bXXsjMlBEmS0NjYiOnTp+Oyyy7DuHHj2Cn0MxHUZ4Lm4qMG12g06N69OyIjI1FSUoLCwkLU1tbC6XTC4XDAYDCwNSKREJuLWwRPxP7C039QUBDS0tKQkJCAjRs3YsuWLfjll18wc+ZMPPzwwzAYDD6Kmof4HkAAZwNZlmEwGBAXF4cdO3Zg37597EqIvXv3Qq1WY8SIEbj66qvP+TAuCVN/9MzzmvgMZdPA0aNHsXPnTmzfvh1lZWVISEjA6NGj0a9fP0RFRUGtVvssyIvpiO9nCklZn4qIiGCXlaWmpvocrGxp/JLS6Q0LC8OyZcsgSRI6d+7MOrjk53+BVlljEQW83W5HVVUVNBoN0tLSYLPZ8OabbyIyMpJdyEUEUl9fj/LyciQkJKBLly6s4gkulwu7d+9GbW0tbrzxRrbFVubOb3j9mJU5W0jCwhylQ8Ng+gHAgAED8Oyzz+Kuu+5CbW0tPv/8c3z77bfYvXs36urqWFnOtnH9heMJm/6DgoLQo0cPjB07Ftu3b8ewYcNw7733slPL5I/PO70HEEBrQJZlJCQk4MEHH4TL5cLTTz+NefPmoVevXnjssccwatQogOMv8Xcm4HkAAl3LfhSK1WrFkSNH8Pvvv2PevHlYsmQJOnXqhJtuugkzZ85E7969odfrWTwqxUKHyH983OcKtVqNG264AQcOHEBZWRk7VHqmoI1G6enpyM/Px+HDh1m5WyuvZ4NWUSwEKlBJSQl27NiB+Ph4BAcHo7GxEd988w1uuOEGNh9LymPNmjUoLy9Hu3btEBkZ6VMZkjJaefPNN9G+fXtGADxxikR0ruCJlFdwRHDgGkxSFEfnzp0xY8YMjB8/HiUlJViwYAHWrFmD/fv3w2q1+mxNpvjPNL/NhaF4nU4nqqur4fV68eWXXzJ7amrl5LIYRmTOAAI4W1CnS6VSoVu3brjlllvQs2dP9OvXD3379mWWkHkalpQOIYVtCfiw/tx4ueDxeFBXV4fc3FysWbMGc+bMwS+//IK2bdvivffew/jx49GhQ4eTZAl1BEV+o2+tBVmWMWjQIDQ2NuL48ePMWvGZ8iTlcfLkyQgKCkJubi6zD/i/xDnXlL9hY1FREQ4dOoRhw4bBbrcjJycHarUa06ZNY8M0WZbhdDqxYsUKqFQq9O3bFyplXzj9PMq1uWvXrsU777zDFrn49GRuRHGuoLj5uIjwRaKmd/pmMpkwadIkvPPOOxg7dizWrFmDW2+9FX/++SeKi4tP2v3RUpyKQGRl/cnhcGDdunV4/PHHYTKZEB0dDQjlgNBbDCCA1oIs9OTHjx+PG2+8EYWFhVizZg3bsUg8S2HoJ9Jpc+DDg0tXjNNiseDw4cP47rvv8PTTT+Orr75Ceno6Xn/9ddxxxx3M4K2s7KDk8y/OfpAsorhJ3p0LKH6VSsVGGrW1tWfMn5RvlUqFrl27Ijg4GIWFhaivr29xnZ4vnHPqVACqEDK17fV60bt3bzQ0NOCdd95BRkYGEhISWANKkoSdO3eitLQUnTt3Zr0Hqii1Wo2amhp89NFHCAkJQb9+/XyGqzyBtRZEIvV4PMxdbCjySz8iBqPRiNGjR+P111/Hfffdh5dffhmPPPIItm3bhrq6upPsKDUHkbhE//RdlmVkZ2fjiy++QGhoKO677z7mTmEo7x7l/hlilgACaA0QTRFvBgUF4ZprrkFUVBTWrl2L/fv3M3okPyqVChqNBlDo8kwh8ofH44HL5UJxcTHmzp2L559/HsuWLUPfvn3x/vvv4/7772cdLg9n4p/Oo/G8zoPvtFK+zxUkM7xeL0aNGoVjx46htLSU8aeYh5ZAr9cjKioKhYWFOHToEKvn/xXOuZZEgikoKEBeXh569+4NlUqFqqoq/P7773jyySeh1WqhUkYlsizjm2++gSzL6N27t8/iFY1WCgsLMWfOHNx///3QarXwKkNnPr2zaYSWQOYuxyIh3Fya1IB8vsLDw3Hvvfdiw4YNGDx4MB577DE8/PDD2LNnDzv/ci4gAszPz8f333+PXbt2YfLkybj11lvZdwj79qk8fB0GEMC5gnjF6XQyukxKSsKtt96KsLAwrF27lp1vkZROmj+6PB1EeiUa93g8cDgcWL58OV544QUcOXIE119/PT7//HP8+9//RkpKig/v8gqNZArlgedt4hEvZ7W5NTtkKpUK/fr1Q0lJCY4ePYqmpiaAkzOnAy9vVCoVBg0ahIiICBQWFp4koy40zlmxSNx2XJVKhWPHjqGsrAyjRo2C1WrF/v37odPpMHHiRAQFBbGG9Hq9qKmpQZ8+fdCzZ0+fhlWpVLBarcjPz4fBYMC//vUvqDkjd+TPH/gGISIQFYM/iN/4tOiZmIaeCby7CLfbjRkzZuCNN96A0WjEk08+if/85z84cOAAoKTL5496TpQXIh7+md6rqqqwYMECfPfdd+jatSueeuopH/8Q8k7//C+AAM4VkiIDeEOMsrKGMHHiROzfvx8ffvghZOV0O4SZDqvV6kPX9E8dTB6kDCTlJtmysjI8++yzGDZsGH755RdMmzYNL774IiZNmoTk5GQWnz9ab06m8LwhCbMV/PPpQLzNl4vndSh5GDduHIqKilBYWAgI5eZ5md55N/55zJgxiIiIwK5du2A2m5ksaE1l2FK0vJaaATUaFbi+vh52ux0dO3aExWLBgQMHkJaWxrYIU8Pk5eXBbDYjNjYW4eHhPpUvyzKamppQVFSEtLQ0REZGQqWY46bvlK4/UFykwMiNJxixgVpL0FIZZYWJ1Mp9Ff369cP//d//sZ0gL730En777TemaCk/9MwzHp8vqmuXy4XCwkLk5uaiU6dOePDBB6HT6Zj//wUxBfD3hYobBRO9ajQadOjQAV26dEFhYSFWrlzJbIkRfaoUM/AQOmv0nTafkIAm/qipqcEbb7yBK6+8EtnZ2fj3v/+NZ599Fr169UJISAjb1szzQWvwd0tB9SDWC8kkyovH40HPnj1x+PBhHDlyBC6XCyphBMXLKpJTVCf07lU26qjVahw8eBDbtm1jYURlyNf/+cI5KxYqmEqlQk5ODo4cOYLExEQEBQWhsrISS5cuxaOPPnpSz+Pzzz9HSEgIsrKy/FrlLCsrw+LFizF27FhMnz4dS5cuhdvthsvlOknYeoU1A6p4eiZiFP3w4BvvXMAzAR2y0mg00Gq1MJlMuO666/DGG2/gvvvuw9q1a3HbbbdhwYIFaGpqYgTCE5NIWPS9trYWv/76K6qqqjBjxgwMHTrU54yASEwBBHC+QHzlj3/atm2LoUOHwu12Y8WKFYw+iaZ54Qg/m4F4heL1epGfn4/XXnsNL7/8MhwOB5555hm88cYbuOKKK5CamsrOj1F8YnoXCsS3lH8eJI/ouVOnTlCr1bBYLH7XWfhnHjyPS8oVIOnp6XA4HNi5c+dJ8VCaovv5wDlLH2owj8eDrVu3Yv/+/cjMzITT6UR5eTnq6uqQkZHBNLBXGeYdOHAACQkJaNOmDdTCtaZmsxl79+5FTU0NRo8ejd69e2Pbtm2YPHkyXn31Vaxduxb19fUsD3xF8cRK39xuN2w2G5xOJ1wuF2tssfFao7IpHn9xS4oJ/I4dO6Jfv364/fbbkZmZidmzZ+M///kPDh48yIiO6gMCw0qSBKvViqVLl2Lx4sUIDQ1lxv94ghWJOYAAzhd4XuPpXpZl6HQ6dO7cGd26dUN+fj4WLFgAievsnYrO6d/hcGDfvn1455138Mwzz6CyshJjx47FLbfcgrFjxyIzM5PRP/1EiHk73xCFOJWTfhKnNPV6Pdq0aYP8/HwUFBT4+OPj4SHWM6F///7IyMhAYWEh28JM4MOI8bU2zvnkPV9xa9euRXV1NaZNmwaHw4E1a9bAbDZjxowZbFQCALt27cK8efMwduxYDB48mNnjocIWFhbi559/RmhoKO655x60bdsWqampSEtLQ0hICI4dO4ZVq1axu0lMJhPbK8/niRoQinanoSL/nU+3tUDxEoHz+aB/rVaL6OhopKWlsZscd+7ciT/++AMulwvt2rWDV7jkjMIfOnQIc+fOhdvtxtSpU9GvX7+TDEyS3wACuJAQ6VxSjFWSTasNGzagS5cu7II+KPzhcDgYjxJqamqwfv16zJ07F5s2bYLJZMKYMWMwZMgQdO/eHbGxsWyU7o+nefqnbxeCJ8Q8iO/+8mU0GrF3716EhYWhQ4cOJ+WVryt65zvQ5BYaGoqDBw8iPz8fffv2RVRUVLPhzyfOWbFAyWxTUxM2b94Mr9eL66+/HkeOHMEnn3yCXr16Yfz48T4F+f7779HQ0ICJEyeiffv2Pr0XSZKwf/9+fPfddxg9ejRGjBiB0NBQxMfHo2PHjkhMTITJZEJISAjq6upw+PBhZGdn48SJE9BqtT53ZMvcugX/EytVfG8N8ARExMO707vRaER6ejrS0tIgyzJycnKwbds2NDY2IjY2lplkofppamrCl19+iX379mHChAm49tprmalyipPKHEAAFwo8/dE70b9arUZ4eDjbuXXs2DF06tQJ0dHRbB2SD2Oz2bB9+3b88MMP+P333xEcHIxhw4Zh2LBh6Nu3L+Li4tgOUwpHEAWy+F38dj4g8ji5+VMKlJ+oqCgsX74cYWFh6NWrl883UXbQM/9P0Gq1yM3NxcGDBxEfH89u6CW/zYVrbbSKYgGAgwcPsoX6vn374siRI/j111/xj3/8AykpKT697//+97/o27cvhg8fftItiA0NDfjzzz+xdetWPPbYY4iOjmbKQKXcAZGQkIB27dohJSUFUVFRCA0NRX19PbZu3YrffvsN+/btg9vtRnx8PFvnIDT37O/9bME3ILh1EfrGQ1a2aoaFhSE5ORmJiYkICQlBcXExNmzYgOLiYrjdbphMJmg0Gvz666/46quvmLnyNm3asHjp54+5AgjgfIFojTo0RIM8tFotDAYDysvLsXLlSmRmZqJbt25wOBzQarVQq9Vwu93Ytm0bfv/9d2zduhV2ux09evTAlVdeicGDB59krJHvQJ2O5i90Z0vmprz81YekTNFXVVXh0KFD2LhxI5YvXw4A6NixIyIjI09STLwM8adsCFVVVdizZw/sdjuuuOIKn3Lz/k9XZ+eCVlEskiRhyZIlyM7ORocOHdgaSmlpKR555BHW41apVCgvL8d7772H6667Dj179mS7RKjAR48exc8//wy1Wo0HH3wQEBapyK9Go4HJZEK7du3YNaEWiwXFxcXYu3cv9u3bh6KiIjgcDoSHh/vc1MaDfxe/nSv4hvNHFPRO37RaLRITE5khuaqqKuzevZtZLsjPz8ecOXOg1+tx++23o2/fvifF66+MAQRwvnE62pMkCQaDAcHBwcjOzkZ0dDQGDx4MSbHUQQZU8/Pz4XQ6kZKSglGjRmHkyJFsqpjioX9euLYELfXXWhDrw+PxoKamBkePHsWWLVuwbt06HD58GC6Xi52Wd7lciI2NRVpaGtxuN1TN3PTqryyysnW7oqIC2dnZqKurw9VXXw2Ncomav3Die2uhVRRLU1MTlixZgpKSEqSlpWHHjh1sCDt27Fhm30uSJKxevRrZ2dmYPHky0tLSAKFwu3btwqJFizBw4ECMGjXKby+Dr1xJGclERUWhR48e6N27NyIjI+FwOFBRUYHKyko2NPR4PD5TZc0R5+k0ub8w5O4vHt5NfOZ/BI1Gg4SEBPTr1w+yLKO2thZbtmzBihUrsHPnTkydOhWTJk3ye62pmKcAArgQoI4jQaRrSekMGgwGyLKM7du3o2vXrjhy5Ajmzp2LDRs2wOv1om/fvrjsssswYMAAdh8Kxe2Pd5p7bs7v2YDn6+Z4XASl6XK5UFlZif3797NL+fbt24fCwkI0NDQgKioK/fv3R48ePdCzZ08cP34cGo0G3bp1A5RpRLF8olxpampCdXU1Dh06hF27drFD6rW1tejdu7ePxRM+Dno+HzitYmmu4niUlJTgwIEDSE5OxqBBg3DkyBFs2rQJI0aMQGxsLBobG5GXl4fi4mJmIHHUqFHMxALB4XBg48aN2L59O+69916kpaX5VCROUxGS0ivq1KkThg0bht69e0OSJBw4cICdbK2srGS2edTKRTnNDd8JYh5OBbEB/X2TmiF00V2lbEXs0KEDVq5ciY0bN6Jjx464+eabfS5K8hc2gAAuJE5Fe/w3Wi/9/fffkZOTg6NHj6Kurg5ZWVm49dZb0atXL0RGRkKr1foIv+b4qrlnehfd4EdRgAt7uneC+J3cZOWMTX5+PrKzs7F9+3YcOHAA+/fvR0FBASwWC+Li4jB8+HBMmDABgwYNYmupUVFR2Lx5M+x2OzuPQ2lQeh6PB/X19SguLkZOTg4OHjyIEydOoKqqCvn5+aiqqoJer2fn3MLCwjBgwACfPJ+qzloLktfr9S9NzwAbNmzArl270K1bNwwZMgTLli3Dl19+iTfffBMWi4WdKj148CB+/PFHjB8/HtOmTUNmZiYiIyPZ3fWFhYX45JNPcOjQIfzwww/slkicQQXwDS0rPR232w2r1YqNGzdi4cKFqKioQHJyMnr37o1OnTohKSkJ0dHRPrdS8gTl75niJxARt1QBnQ5imk8//TTmzp2LF154Addff73PLrsAAriYIfIJbR8eN24cXn31Vdxyyy1MBvD+6EyLv1mLswXPn/6UBp9XgigD4KdMNpsNlZWVKC0txYEDB3D48GEUFRXB6XSiW7duGDBgALp37842HlA4fhFflmUsXLgQVVVVuOKKK5CRkQEoV4dUV1ejrKwMFRUVKC4uRkVFBRobG2Gz2dCuXTv07dsX6enpiIyMRHBwMDZt2oT33nsPRqMRn3/++Ul5bw0ZdSqcdsQiwl+mVqxYAbfbjSFDhsDr9WL9+vU4fvw4ZsyYgaSkJHZuY/v27ew0vU6ng81mgyRJaGhoQEVFBTZv3ozVq1cjMTERY8eORVBQEOQzWHSThX3itLajVquh0+mQkJCADh06IDMzky2Q5+bmoqqqClarlf28Xi+Cg4NZeL68PBGAO3FMbqL/cwHFWVtbi7feegsqlQrXXXcd2rVr12ppBBDA+YbIG8SP+/fvx6RJkxAXFweNRsOErMhb9N4aNE9xUF7EOPn0eDcom3BIJtDCe0lJCU6cOMHWiX799Vfk5OQgIiICV155JaZPn47Ro0ejS5cuCA8PP0le+JviO378OCoqKhASEgKz2YzKykps27YNK1euxMqVK5Gbm4v4+HiMHTsWt99+OwYPHozk5GQYjUa2Wcnj8SAvLw+HDx9mJvXFemxNWSXijEYsYsagDM1eeuklhIeH4+6778aBAwfw5ZdfIjw8HK+99ppP2Pfeew9VVVW47777kJSUhMLCQuzbtw8HDhxAcXEx9uzZg7q6OjzwwAO4//77WVotqQCeGPheABEDH578er1emM1m7Ny5E+vWrUNZWRlMJhM6dOiAIUOGIC4uDqGhoQgODoaHs4jKp4NW7lERiBFVKhVmz56N119/HTNmzMBtt92GmJgY4DylG0AArQ2iZeJHtVoNm82Gbdu2Yd68eXj88ceRlJTkYzmCeIveT8f/LYU/WcLnjxe6oh+XywWHw4HGxkaUl5dj/fr12L9/P0pKSpCamopBgwahX79+SE1NZevKIkieEW9D2DVaWlqKV155BZs2bWJGJVNSUpCeno6OHTsiNTX1pDLQIr/oNn/+fLzzzjt47733MHDgQMjK4XG1cksmX97WRotHLFTRYkbq6uqwbt06xMXFYcCAAVi9ejV+/fVXXHfddejUqZNPA7322mvo3LkzevbsiZCQEISHh6Njx44YOnQoOnfujOLiYtjtdtxxxx2Ij49nlS+meSpInD0yWRmt8I1JoLhDQkLQtm1bXH755ejbty9qamrw22+/YeHChWhsbERCQgKLj+Km+HjBTm70fK4gArBYLHjwwQcRHh6OmTNnstFKQKkEcKmABBgvEFWK2fwXX3wR3bp1Q3p6Oluop+8837YmvVMeeOXFp0XfPR4PbDYbGhsbYTabUVxcjC1btuD777/Hxx9/DK1Wi969e+Pee+/FzTffjN69eyMmJoZNdVHcJMT5Ti6fB15uGI1G5OXlwWq14rrrrsPNN9+MwYMHIyMjAxEREfAq5qv4OHj5xNffsWPHsHHjRqSnp6NHjx7weDxsFy4f5nygxa3FF4RHaWkpkpOT0a5dOzidTjQ1NSEiIoLtaKKwXmWKLDQ09CR7PrIss2s14+Li0L17d6iUU7iiQmgOPDHQu4qzEca/gyNcalhJMfV97733YuHChfj111/RoUMHPPfcc5gxYwZmz56NXbt2obGxEU6n0ydPPEH6q6OzAfUq3n33XRw/fhxTp05Fenp6i+oigAAuNvACmy69S0hIwD//+U88//zzqKys9PHD8ynt4mwt8HGL75IyjeRyuZCfn48vvvgCt912G0aOHInHHnsMVVVVePDBB7Fjxw58+umnmD59OrKysk6yfEHyhp75fw93wyOVj/eblpbGTP2HhYUxGUaKiaa7SO7woDJAqd+EhAT8+uuv8Hq9bMs2obVklT+0WLGIoELt37+f3VdfXV2NkpISGI1GtGnThhXe5XIhOzsbBoMBw4YN87mwC0oBT5w4AavViqysLKZVRc3cEpAyosYTw/PERN9VioE7CiPLMgwGAyZMmICvv/4aTzzxBGpra/Hiiy/i0Ucfxfz581FeXs78843ZmvB6vXj//fdhNBoxdOhQdnXz+UgrgADOJ4huVSoVgoKCoFarodFoMGnSJJw4cQIFBQVwOBxsFMGDeLM1QPkQ5Y+snAHJy8vDjh078MADD2DkyJH47bffMGHCBKxcuRJLlizBvffey2YNaATA8yT/THkm+aBSqeDxeNgsCrgRC19umvKqr69neaR40MylZGJ5JElCmzZt0Lt3b5SUlPj4pWc+7tbGWSsWKBnLycmB2+1GZGQkioqKYDabkZmZyRpLpRz6WbJkCTp16uQzYuFBJkxoaxyUCvBHaM2BrzxqPFJO/iqeJwJJWVSUhJ6GTqdDt27d8Nhjj+Gbb77Bgw8+CK1WixkzZuCaa67BV199haKiojPKZ0vg8Xiwb98+2Gw2fPDBB8jIyGD5P58EEUAA5wM8//FuMTExuP7667F06VJUVlYyIUw8S3zV2qMWnv/r6uqwePFi3H333Zg+fTo++ugj9O/fH7/88gs+/vhj3HbbbUhOToZOp2PrQDI3zc7zPl9Ofhoe3PQ2+YOgdMgv2UA7ceIEyyPfIebrQlIUHPnjERkZifbt27P1YfhRQOcLLVIsIkFAyVRtbS1qamogKybic3JyYDabMWzYMOYHyna5X3/9FRMmTIDBYPCpbFm5o7qiogLh4eHo3r37ORecD8criVPF5+8bhdVqtQgPD0dUVBQyMzNx5ZVX4t1338Vtt92GLVu24MEHH8SLL76InTt3gu6MgVI2nuj4EZFYp3wYWZbR2NiI559/Hjqdjl0tQPkJ4O+B5ujEn/vFDp6/iP9VytT0jBkzsH37djYLIIYj/zJ3EV5zoBEADwrr9XphsViwc+dOfP7553j++ecxc+ZMzJo1C2VlZbjlllvw4Ycf4uWXX8aUKVPQvXt3tGnTBiEhIScJc1HGkBv/4/2TP9FNhCRJCA8PR3h4ONxut8+0mexn4wE4BcZDkiRotVqEhobCbrdj3bp1zF3ilgDOF85YUvFE7XA4EBwczBbdamtr4fV62f315N/j8SAnJwfdu3dHcHAwqyAqXGVlJaqqqhASEoKIiAifhrnYhCk1VmpqKsaMGYPHH38cjz/+ONLS0vD5559j0qRJePLJJ7Fx40ZIwiJ7SwnL5XLhyJEjWLduHe655x5ERUWxem8uXAB/PZyqrU/17WIDCXU+zyRDVCoV2rVrh86dOyM3N9dn+of3z8sDr9cLt9vNvvkTvCRbPMqBwoMHD+Lnn3/G008/jX/84x/Izc1FZGQkrr32WkybNg2TJk3C0KFDkZWVhTZt2iA8PBxaztDlhYRarUZcXBxMJhOqq6uBUyiVU0GtVsNkMiE2NhaHDh0COPlNyvB84ZTbjflM0DO4HseCBQtgsVgwbNgwxMbG4o033kBJSQk+/PBDZm7E4/GgoKAAmZmZKC4uZru9+EL9/vvv+Pjjj5GVlYUXXniBpUHw+jEf/78CXwc88dbV1aGoqAgVFRWoqqpCQ0MDioqKkJSUhJ49eyIjIwMJCQlsGpBGMlS34K5dbWpqwptvvonXXnsNe/fuRfv27dk+//NNEAEEcD4g8rwoS3788Ufs3LkT06ZNQ8eOHYFmOpUUD4Un/hF5ora2Fvv378fu3btRWloKg8GArKwsJCUloampCbGxsYiOjkZUVJSP9Y2LBTk5Odi+fTsSExNx+eWXMzl8psjJycHbb78Nl8uFOXPmnFTv56vMp8ypJAxD6Z2EYn5+PsLDwxETE4OamhpUV1dDo9EgODgYUIjAbrdj165diIqK8jnZzv8KCgrgdruRnp7OwsncNNL5KvzZwF99aLVaxMXFoU+fPhg9ejTGjh2LPn36oHv37rDb7fj555/x+uuv48MPP8Tvv/+OkpISuN3uk8qlUtajcnNzsWDBAgwcOBDJycknLRAScQQQwKUCnnZ53iFa7tOnD44dO+aXN/w98+ElRSbRduD3338fH374IXbt2oXg4GD079+f3f00YMAAjB49Gt26dUNycjIzm3KxgSw579ix4yTePxP+p3WWgwcPAly9nW+cUrFAaEieICRl0Uur1UKv16O0tBSyLKNt27Y+Ya1WK9atW4dRo0axHVt8waxWKwoKCmAwGNC5c2e/aV5M4PMjCYtqUKbK4uLi0KNHD0yYMAHXXHMNrrjiCgwYMACSJGHjxo345JNPMGvWLCxatAgFBQVoaGhg9UL1VVFRgccffxw6nc6nPgII4FKHSMeSJCE5ORmRkZE4evQoamtroVJ2UNGaJS93SLjW19dj+/bt+P777/H5559jzZo1OHHiBGJjY9GjRw8MHjwYV155Ja688koMGDDA57ZatbKdn+I+U4F9vkF3LOXl5Z1S0Z4ORqMR7dq1Q11dnc/04fnGaRWLKEjBDVGtViu0Wi20yuUyHo8HPXr0YP4BwG63Y9OmTZg8ebKPkKR4ySxCTEwMW5u52AUpr0xERUn5pwOgmZmZGDduHG644QZMmDAB/fr1g9FoRE1NDZYuXYq33noLP/74I/bv34+mpiY0NDTgyJEjaNeuHUaPHs32ntMinlh/Afw9cam2v0i/9B4UFIQBAwZg9+7dOHToEJxOp084t9sNu93OlMkvv/yCb7/9FqtXr2a7p5KTk9G1a1dceeWVuPrqq9GvXz+kpaUxi8qUppj2xQitVguNRoOGhgbU1tYy9zPNc3BwMGJiYuD1elFVVeVXnp8PnFaxQMkALb5RxiwWC7RaLTMed+LECTidTiQnJ7MMezwemM1mlJaWom/fvidtv5NlGcXFxaipqUFYWBi79IsngvNZ+LMBn38Cn1d/zyqVClqtFmlpabjiiitw22234Z577sFll10Gg8GAyspK7NmzB7/99hvmzp2LI0eOYOjQodDpdCdts7xY6yWACweePy4VtCTPw4cPR0VFBfbv3w+z2QxZ2R2Zk5ODNWvWYO7cuZg3bx7y8/NRXl6O4OBgdOzYEWPGjMHkyZNx2WWXITMzk/X24UcB8+7SRdyJlZWzdAaDAQUFBSeVQ3xvDpIkITg4GFqtFgUFBeLn84bTKhYSkGJDnThxAtHR0QgPD4fFYkF9fT1CQkIQGxvL/DgcDhw7dgwqlQrR0dEsLj6+/Px8WK1Wnzvr4UdIX4wQ64R3JzdxwU2tViM+Ph7dunXDnXfeiWeeeQbXX389UlNTUVRUhIULFyIvLw+9evVidSULpmkC+HuBaIB/vtTpgOcdKktGRgZiY2Nx7NgxrF+/HsuXL8f333+P+fPnY9OmTcjPz0dDQwO6d++OCRMm4J577sHkyZPRrVs3REZGnjSTcCrw9UkL9xebnImJiUFiYiIKCwuZ2+nKJUJS1oDDwsJw4sQJQCj7+cJpFQslLu6+yMnJQVpaGmJjY1FWVob6+npERUUhKiqKNVJTUxP2798Po9HoY/KAJ6qcnBwYjUZkZWX5KB4e4ntroTXilbjDTfROEAldJFxJkhAaGooOHTpg+PDhGDZsGCIiIpCYmIj27dszP7x/MY4A/vrg2/1Sbf/maJfnC5VKhQEDBqC4uBg//fQTVq9ejQMHDkCWZQwZMgT/+te/8Nhjj6Fz585ISkpiYfjw/viF53NKz19eLiZIkoSEhAS0adMGBQUFPuXwJ0tOhZCQEKSlpaGoqMgnnjOJ40xxWsXCNwIVSJZlHDp0CElJSYiKikJlZSU8Hg/Cw8PZd1nZEVZcXIzOnTuzKR0+LrfbjbKyMmRkZKBnz54+6TVXiTyR0Lv4E91pd5nozvs/E7SEMPnvLfHvUa4tNZvNuOaaa9ChQweffBNaElcAf22ozoP9rP8VqPNFPD9mzBg4nU7odDrcddddeOONN/DEE09g9OjRzKq3SP8iTzT3zruL/xcavNxpTg5FR0fDZDJh9+7dbOH9bPIbGhqKzp07Y9u2bQBX1/7SbC2cVrGAKzg/rXP06FHodDro9XpUVFRAlmVERkYyQS4pO5yOHTuGXr16+cRFsFgscDqdaNOmDRITE30KKxZeFLL0zV8FiW7NvVMjieHPN8RyQrESfejQIUiShLvvvhvh4eEnCY/myhtAAH8FeL1emEwmhIWFIS0tDUlJSTAYDM2aoL+UIZZHfIeygK9SqVBVVYXGxkYmE0VZeDrodDqEhYVh9+7d7A6s8y1HWqRYeFChKisr4XA4IEkSDh48CLPZjNjYWNabkmUZZrMZBw8exFVXXQVwAlxSeg6VlZVobGyErBiAq6qqQllZGSorK2E2m+FyuVg4cVqJP2DI54v3TxVI+ZEVZcIPmc93BfsDpU3bHWVZRl5eHn799Vfo9XokJiYypcKXi+rNHxEGEMClDOLT0NBQtG/fHjqdDlarlX270Dx6ISHyM5VXrVYjJCQEGo0GZrOZfSN5djpQPHq9Hh07dkRjYyPbvUty8HyhRTGTMPMoxsxsNhtMJhO0yr3UFRUVMBqN7BIaWZnmstvtkCQJJpOJhZW4E+t79+5FZWUl7HY7du7ciddeew133303nn/+ecydOxcbN25EYWEhLBYLrFYrHA4HZMHqsawoC1rcFiuMH2pDEdQkrMmvijOvf6HAKwg6FLlt2zZkZGSwrcVUNvJHbi0hqgACuJRANO31etGtWzcUFBRg+/bt8Pix5PtXwKl4mcoqKccWQkJCUFJSAggdaX9heZDsCA4ORkZGBlwuF06cOMHkyvlEixQLFYB60bm5uYiKioLRaITdbofb7UZSUhIzlQ/FWnFeXh40Gg3atGkDjUZz0mGnPXv2wGAwoFOnTujSpQsmT56MKVOmQK/X47vvvsMNN9yAXr16YcyYMXjppZcwf/585ObmIi8vD1VVVT573ekwFeXXX8XzDSZxw0H6nU8NLoJvXLPZjPLycsTHx2PcuHE+SpJXKhAUUgAB/FXA03n37t1RV1eHo0ePXhAh+L8Az8enklXh4eFIT0/H0aNH4eWu9iAZcTrwss3j8eDw4cNMTvpLt7VwWklKDUu9eVmWsWvXLhiNRuj1ejaS0Gq1PjfAuVwu1NbWIjw8nJ114U2TyLKMEydOoE2bNkhNTWWXg91888146aWXsGrVKuTm5iI/Px9z5szB4MGD4XA48NZbb2HcuHHIyspCQkICBg4ciKeffhorV65ESUkJ6+FAaRxqDHqm0YlIsC1ppNYG1VVlZSVyc3MRFxeHUaNG+dQ1//+/yGMAAVwIkExQq9VIS0tD27ZtodFoYLfbGb/+lSALFxDyipWXTzExMejYsSPMZjNU3DIDddJPB4pfo9EgLS0NGzdu9NkIcL5kSosUC4TefkFBAdLT0xEeHo6Kigo0NjYiODgYQUFBzF9TUxOqq6t97mbh42tqakJTUxPCwsIQFhYGtXLxT1BQEPR6PYxGI8LCwmAymZCRkYGRI0fihhtuwKxZs7B69WqsXr0aX3zxBW699VbYbDa89tprGD58OAYNGoQ777wTr776KhYtWuSzB1ylWEal/IgNI76fL/BTcZIkobi4GAcPHkRERASioqL8jpyoXmkq70LlNYAALiRIuXTr1g1erxdHjx49rwLwfwV/ZSJlQj9SPlarFeXl5UxukKIQw58KdP0GnWXBee6ontK6MYEKTJg2bRqmTp2KAQMGYP369fjoo48watQoPPDAA8zPvn378PLLL6Nz58545plnmFCnEcOhQ4fwwAMPYMSIEbj//vsRHR3NwvIam8JQRdO/2+2G0+mE3W6H1WqFxWJhvRun04nKykocP34cpaWlbOGL5isvv/xyJCcnM+XFK8QLBVIMXq8XX331Fd555x1Mnz4d//jHPwCuB8f/8+EudH4DCOB8gqdxr9eLHTt2YNGiRcjMzMQdd9zBhO1fBXx5bTYbysvLUVBQgKNHj6KkpIRdJWKz2eB2u6HT6bBs2TIfmdhSyMqVJv/973+xcOFC7Nmz56QD6a2NFikWHrIs4/LLL8drr72G3r1745NPPsHWrVsxefJkTJgwgfnZtm0bnnnmGcycORPXXnstcyds3LgRTzzxBG677TZMnz6d2cQi+BOqLYFXuavBarWioaEBFouFXSRWVFSEmpoaFBcXw2w2IyQkBMnJyWjbti1SUlIQFxeHqKgoRERE+Fho5gmeCJwvCzhFQGHEhhfLQ37r6urw0UcfYcWKFXj11VcxdOjQMy5zAAFc6hD5or6+Hm+++Sb0ej3+/e9/nzRdhDPsXPnjTZHPxDyI4MO63W4fmSXGRW7k7nK5UFJSghMnTiA3NxcFBQWoqKhAfX09jEYjIiIiEBQUBKPRiKioKERGRiIiIgJhYWHIy8vDN998gzVr1vjkTUzvVGhsbMQPP/yAxx9/HEVFRQgLC/Ob59bCaRULn7isjBQuu+wyvPfee+jduzeefPJJ1NfX484770S/fv2Yv40bN+L//u//8N5776Fr164+8QHA8uXL8eKLL+Lee+/FnXfeyb6fK3iio7x7PB40NTWhsbGRDSttNhvbzqdWq1FdXY0jR47g+PHjbAt0SkoKunXrhi5duiA5OZndMSMSoCRsBuAbi555pcSD7q/Zv38/Zs+ejYSEBJ9wAQTwd4TH48Hrr78Ol8uFxx9/nF0QiFPwhsh7/kBTyaQUiGf5jqA/PqZ3ns9p9oX80bpyUVERioqKcOTIEeTn57MpLK1WC4PBwKb/w8PDmfIICQlhioXWr8lt586dePnll/HTTz8xOYJT1IMIWTnOsXz5ctx6660oLy9HeHg4cAZxnClarFjo3+Px4JprrsFLL72Erl274q677kJYWBgeeOABtG/fnvn9448/8J///AfLly9HWFgYi48q5quvvsKcOXMwc+ZM3HjjjT5png2I6AhUYaI7uRGRQLFpRiOZiooKNDQ0sDWguro6NDU1MYOQwcHBMBgM6NmzJ7p27YqIiAifqToCX2d8mmJ+/vjjD7z22msIDw/Hd999xy4CO18NHkAAFyNEvgCAjz/+GHV1dZg+fTpiY2NP4iURzbmL4KeSSB7x0/RiOpIi9ywWC8rLy9nMh8PhgMvlgtfrZUpDrVbD4/HA5XLBbrfD5XJBpVLBYDAgJCSErRtHRkayqXjabdtc3rOzs/H+++/jvffe87nTqqXwer1wOp3Ytm0bxo8fj+LiYoSGhp40q9KaOK1igdBgVqsVd955J5599llkZWXh1ltvRUpKCh588EEkJSUxAlm7di2eeuopbN26lTUOfZMkCc8//zx27dqFmTNnYsyYMT7pnS1E4e1PkBN4ovGnEBwOB6qrq1FQUIDS0lI0NTUxY5sOhwNNTU0wmUwwmUxQq9WIiIhA27ZtkZ6ejpiYGJ+4ZWH4zeObb77B22+/jcsvvxxvvvkm83MmhBNAAJc6RL6QJAkLFizA0aNHcdVVV6Fbt24+3wg8r/t7F8F/J6XCuzkcDjQ2NsJisaCxsRHV1dWoqqpCXV0drFYrnE4nO9oQExODkJAQBAcHs5FGSEgIDAYD64CSsqF1XJ636WwfQZRFhJycHMyZMwf33HMPsyHYUhlB8keWZRw/fhzDhw/HwYMH2RpLS+I4G5xWsYgNVVRUhBdffBGPPvooEhMTcdddd6F79+6YOXMmM+nidruxdu1avPLKK1i3bp1Po9PztGnToFarMWPGDB+TL60FPt/iM09UIvy5QSECsg5A5lfMZjO8Xi/q6uogyzJiY2OZEU6HwwG1Wo3w8HBER0cjJiYG4eHhCA0NZaMSj8eDDz/8EIsWLcK9996Lm2+++bz2IgII4GKFP0G5bt06rFu3jp1xgx/+FOWT+M5DVjqMVqsVx48fR3l5OaqqqlBbWwu1Wg2j0ch68mRqnjYGuVwuyLKM0NBQREZGMgsZoaGhCAkJgV6vZ1uBxbzIp+hYirLR3/fjx49j3rx56NevH0aMGAEIo67TgeKuqanBwIEDsXbtWiQlJbU4/NmgxYqFsHbtWqxbtw533303goKCcM899+Dyyy/HfffdxwSm2WzGsmXLsGjRIvz0008sLC/Ux48fj379+uGuu+7yOVh5LuCJSiQwfw3nzx9BLDeBwlB8NpsNFRUVqK6uhsViQUNDAyoqKmA2m9kBTkkZvZDNHrKHFBISgnnz5qGgoIDtoKNptQAC+DuB+ImeAeDgwYP4/vvvERkZiUceeeSkdRCRT3j5QrMKjY2NaGhoQH19PcxmM+rr61FfX++z4woADAYDIiIiEBsbC5PJhLi4ODYioZEHD0pbFPCi3KB3mmbjIcojcuMhK5ZNVqxYgaCgINx0000snOi3OZDf+vp69OvXD7Nnz8agQYPY+cLzgTNWLK+88gq0Wi1uvfVWSJKE+++/H2PGjME999zD/BYWFmLu3Lk4ceIEPvnkE1Yw+rdarRg3bhymTp2Km2666aRGO1tQ+jyBio0nvvPuBFnZP05C3t/ohk+L4uTTczgcaGhoQElJCVvEq6urg9frZUTscrmwdu1aJCQk4P3332cLahRvAAH8XcDzDj1XVVVhzpw5sNlseOqpp6BWq+FyueBwOGC329HU1MSmpyiMWq2GSjnaYLfbYbPZYLFYUF1djerqajQ0NMDhcCAxMRHJycnIyMhAamoqQkND2dkQL3fOjAcvO2RlFEKyQZQrlB+Kg8rFx8WHEcPzbvX19Vi/fj3y8/Px8MMP+/hpKWTFduOAAQPwwAMP4Pbbbz+vW45bpFiootVqNW6++WaMHj0aEyZMgN1ux5NPPonLL78ct912G6uYgwcP4rvvvkN0dDQeffRRFg9VVHV1NSZNmoSHHnoIkydPbrUhmdhwvDvfwP6eeXiV0/oqwTw5EYcYXiQ4nqB4yLLMptSampqwePFifPzxxxg0aBA++eQTFk9r1UcAAVxq4IW6VznjdeDAAUydOhVOp5OtfRAP2Ww2QDkAqNFooNPpYDAYEB4ejqioKMTGxiI6Ohp6vR4Q5BD/T98obZ7XyZ1GHZIkwe12+yy68/6bi486q3ynVfQHPweoLRYLduzYgXXr1uG55547Kd8thdlsxvDhwzFq1Cg89dRTiIyMFL20GlokwdRqNavEoqIiREVFQaPRoLS0FEFBQQgNDfXxT8YiO3bsyCqN/gGgoaEBbre7Vad9+Pj5hqZv/Hce9I3/rlJOtlKZ+Ybn80wNz3/ny8PHSYSgUqlgNBqRkJDAemB6vZ7F62/IHEAAfwfISqeKOlbEE2VlZVi3bh2WLVuGVatWYfv27SgvL2dmoK699lrceeedmD59Om6//XZMmTIFo0ePRq9evZCUlORzJo3A8zDPv+SP53XKEx+etiuLYeiZ3il+SRlNeb1eqLnbYHl/FJbSIz8ajQYGgwENDQ0+8bUUfPkSEhJQVFTEpgDPF06rWPgKgHLQRq/XQ6vV4uDBg7BarSfN1VmtVtTV1flsMyZikSQJtbW1bHcFaedzBTUOVTj/LCoDf2HEhhL9iWguLfGZ9w8hL3V1ddDpdEhJSWF1fKZEE0AAfxUQ3fPCNj4+Hp07d8aIESPw/PPP47XXXsMrr7yCRx99FDfccAMGDRqElJQUBAcHM97i+U/kfX+8JfKpPz/w841/5tM+lT9+BkT0R27iu1arhV6vR2Fh4TnJB41Gg/79+2Pr1q2s83++cFrFQpCUoalWq2UHBSsqKqBSqRAUFOQjGBsbG1FYWHjS2gQpkfr6era/+2wr6VIG1ZPFYmG7S1wuF6uL1lK2AQRwKYKXCXTZlcPh8OnJ8zifAvJigCRJPgZ8zxQURlbWaxobG0+Sza2N0yoWfrSiUqkQHh6OmJgY6HQ6dg9LZGQkJG7IaLPZYLfb2Z5rEXRJGPn/u4EIRJIkJCYmIjU1lZnDpnoMIIC/O2RZZp3Wuro6v0oFzfT8/0qQlGm01oDT6YTVaj3vyvi0EowEndfrZVcJ63Q6qFQqNDY2Qq1Wswu/aNGbnlXKHQBUCGp8i8XCdm/8HSHLMjvdr9Pp2C1xAQTwd4U/QScpF1253W4UFxeLn/82IMXCK09/9XUqUKfVZDKxeM40jjPBaSU7rxRkZVcTlMN9dNkWvzuClIXb7WYKhApC/06nE1FRUWynxt8NkiTBbDbDYrFAp9OxQ5NUP4GpsAD+bmhOaOr1ejgcDra+cD6F4cUKvswkf89khEb1plKp0KZNm1Yb/ZwKp1Us4ASd1WplF8zQvKdOp4NOpwOUAng8HjidTqhUKnZgkoesDGvDwsJ8DMv9nSDLMmpqamA2m2E0GmEymXyY5u86kgsgAHCdWChXXXi9XlRUVEBqZsrr76BwqNN+tru5aNkhIiKCufmry9bCaSUYNbLX60VlZaXP6ATK1Zm0nU9S9ne7XC6fGyX5RpdlGWVlZczGzt8RknIKtqGhgVk75Znmr84kAQTQEsiyzOxuNTU1iZ8ZzqeAvBhAMlitGLg8U4hyRZTJ5wOnVSwyZx66pqaGmZmnjIWGhvpMaXmV+1DUiu0dCD0QSbFZQwRDafzd0NjYCLvdDq1W62PCG38DRgkgABEk7ERZEBwcDL1ef5K7iL8Dz9Ba95mAr1NZuQQRF6C+/CoWmTttD04x1NTUIDY2FhqNhmWWzrSQP1IsKsVUNB8HwWq1wmQyNbvG4o/AzhQUnjR8S+IUG+FUbnyY08GfH4vFgqCgoJNOv/qL219eAgjgUoI/uuXpWRR09E5Wgv3h78APVD61YiGZjGG2FPxMiCRJMBgMPvL7fEHlT5Dx76RUnE4nCgoK2Kl7svjJE4TM7QyDUCieCLxeL0wmk88UGg8+nD+IBEXv9BOHi6QkxbzyPx58PpuDGE58J7fmYLfbodfrERERwcKK+QOXBz4vp4o3gAAuRvBygHfjad6frKBzc/6EoRj+7wCHwwGchQwg+WEwGCArMvJM4zgTqEhxgGtYidvdRQJPkiQ0NDQgKioKKuWsisfjgcPh8BHktHgvEgkft8vlYnfN03eemE4HkaD4Zz4tuZmb4cQw9I0HHwe4kQ9943+E5sogcYbtCHRQiQ/jFW6H85dGAAFcihDlQHPw953cSBj647G/Kvj6cLvdPrK1JRDryqNYO7FYLCfJpNaECn4aUyQCWbFXY7fb2Y1nlEGNRsOEt6TctCZJko+lXhE2m63Ve+B8GfwpRR6Unr9vBFHIi+DzzKfD19mpUFNTg/Lyctjtdh93kXGks7ANFEAAFyOao+HmeIlA76K/vzJ4OcD/e73esyo71SEppoaGhpNmdloTqi+++AJffvklvv32W/zwww+YP38+Fi5ciMWLF2PZsmVYs2YN1q9fj61bt2LHjh04duwYCgoKcPDgQTYsq66uxrFjx5Cbm4vDhw+juroawcHBKCsrQ01NDerr6+F0OtklO0FBQXA4HCy8SrDxQ6DKFYWtv29EkLySE4UyH78YL58+Hx+50W44MU0KT/8E/p3PA8FiscDj8bCb5cApESiKjU+DL08AAVxqINoV+cLfN5HG6RD2qeTE3wEajeaMD1LzMlBS7I75q8PWhjRs2DCZEqTRB/30ej3CwsJgMBjgdDqxePFiZGVlYcSIESgpKcHvv/+OkSNHol27dmx/dXV1Nfbt2weHw4FJkyZBo9HA6XQiOjoaUBbj3nvvPWRkZGDAgAGIjo4+qZD0Lg7VeH8qxQIxnaPh880fyoyJiWFmDMjejlarhVqxNEojE4m7y4GeoTSmwWCA1+uFzWaDJEk+U3iUJp8neuevI+Xz73A48Mgjj2Dfvn345z//iYkTJ/ooRFm4D4YIQ2Qgsd4CCOBiBU+7/uiWaJx/Jh77+uuvsWHDBnz22WeMJ/hw8BPn6dK7lCDLMru5d9asWYiNjW1xmXg55XK5sHHjRkycOBHr1q1Dt27dzlhRtRTS7t27ZZfLBY/HA7vdDrvdDo9ypzOUjLndbpSVlaG4uJjZBauqqsLx48eRkpLCBHFkZCQcDgdKSkpgs9kQEhICi8XCDjep1Wq0adMGpaWlbOGfCIAqAJxw5YdqNP1GP0mSoNfrERoaitDQUKZcKJwkSWjbti369OnDrhImwU87I9xuNysn7bqgDQW0LU+v1yMpKQlWq+gQ2e4AACk1SURBVBWFhYXQaDRMSZIfUiaSYiyOlFtERIRPvqAs2lssFsyZMwe1tbWYMGECunTpwhpYpRwslZTrjXv37s22ePPMJl2AXkcAAZxPEB3TM4RRO5TO5dy5c7FlyxZ88MEHkARbemIc/uL7K+D48eN4/vnnMWvWLCQkJLS4XHw9uFwubN26FePGjcOGDRt85E5rQ7LZbDIJLb5RaLQgKQpBVrSeR7kASwQv7HjCoG8qbg82xcH3Pmj0QGnzSgTKRT4ulws2mw1WqxU2mw1Op9MnTrfbjYaGBuTm5sLlcuGf//wnS3f58uWw2+3wKhaaZeWWR5fLxUYHWq0WWq0WNpsNx48fZ3kPDg6G2WzGgQMHoNPpEB0dDVmWYbfbWRw0zedwONg8psFggNFoRHBwMNxuN7zKCWKdTge32+0zirLZbOxgaXh4OGRZxoEDB/Djjz9ixIgRzEoBX88BBHCpQBT6JCc8ymYf4nmSCfQvSRKWLl2KPXv2YNasWT4zDLyM4uP/q/GHLMs4fvw4nnzyScyaNQtt27ZtcflIFkvK4fW9e/di+PDh2Lx5Mzp16sRmZlob0saNG2WDwcB681B64iQc9Xo99Hq9T0Gol08NqFKGWbIsQ6fT+TS01+tFUFAQUxCkUKgXr1armXBFM/cV8FNb/DcI6zOUl6amJpSVlaFdu3bweDxMMVLl8ulTPDyx07tKUKC8YOcJ3KNsZKB/PjxdMeByuaDRaNgh06CgINhsNjQ1NaGhoQENDQ0s7sbGRtTV1eGtt95Ct27d8OKLLzLjcXy6AQRwKYLo3OPxoKioCPn5+bDZbEx+6HQ6BAUFsc7etm3bcPz4cTz88MM+Jk1I5vCjfQLJBXDrleDkhkbZvszLMp73Rd6mOEm+0VQ6heXTozgoDIG+k/yhWRgRfL4p7ry8PPznP//Bs88+i86dOzP5QvmmPIvx8PmSZRm5ublMsaSnp7O6ofhIVvLvPKgT7i89HlJkZCQbXvCV2xz4yuErwOFwwO12Q8PdvCgp0zkdOnRAfX091MoaRkZGBjweD1wuF6Kjo5GcnMwUTFRUFAur0WgQHh6OiIgItl5BFUEmY4KDgxESEgKDwYCQkBDodDpYrVaUlpaiQ4cOTLE4FLtmTsWOGa/M+H8iNofDgZCQEJYWhYNClGJdycpIi4hc5kwwaLVaH+LmFR396BuV0Ww2Y+rUqbDb7fjhhx+QlJQEidt1xxNsABcfeNog+uK/iW5/dfD0Te8ulwsfffQR3n33XfTp0wddunSBrMwEeJSNLSrFinpTUxNkRfG43W7U19ejuroabrebnXNxu93syg6dYjWc/NrtdqgURaXRaJCUlMRmJlQqFUJCQuByueB0OmG32xEcHAydToe6ujo0NDRApdw71atXL2i1WsTExKC+vh4qRdmEhISwm2ApHo1Gw6wGqLhOZkhICEwmE6Kjo1FWVgYo53VIkQQpFydaLBZIkoTo6GgcPHgQmzZtwtVXX40OHToAihwxGAyw2Wysw0zQaDQIDg5GaGgos17gdrvxzTffYNWqVfjnP/+JLl26oKGhAXa7HW63m12B4lGWRcLCwth6DsmohoYGhIeHw6lYuTcYDCcpHwCQPB6PTIHExiftxBMDCVBeSLrdbvz0009YunQpgoKCEBERwQqbnZ2Ntm3borq6Gl6vF8eOHUNERASqqqpgs9lYeKvVyoQm3ytRcVNoJJCpASgPlEe+Z8HnUaX0EDzKPnjqbchKb0ev1zPi1Gg0cDgcqKqqgkq5Rrh3797Yvn077HY7JEnC4MGDERoaioaGBpYvtbJGQ2WQlLtWJElCeno6JEliCi8pKQlarRahoaGIioqCS7n0zGg0wuPxwGKxQJZlTJs2DX379sVPP/2E+Ph4gFN+lEYAFy9EfuLdRbe/C7zKlLdGo4HNZsN//vMftG/fHjfeeCNCQ0NPomuSObzQJP6nuFTc7AcUyx5eZcrb4XCgsbERTqcTLpeLyRtJsddHHV5yJ/5zOp1MUURFRSEtLQ0rVqxAQkICLBYLgoOD0djYyKbASSE5HA62Vg1lA49auYLc5XLB7XazKXeNRoPy8nJA2dQEZTbI4/GgsbERFRUVMJvNrB6Ki4vRq1cvREREoLa2Fh6PBzqdDl6vly0TkCzRKhuUZO4wZFJSEgoLC3H48GEkJCTAZrOhvr6e1Ycsy9Dr9ewQpUajQUxMDIKV2zmNRiNKS0sRFxeHpKQkqNVq/Otf/0L37t1Z2xAkr9crU0OJxN4cY/gDP31GjS4pPWwS5FAqjgpM8UPo4fGMJys9GIlb63Epmw08yroKCXO1Ws0amC7PUqvV2LVrF8LDw7Fv3z6EhIQgMjISbrcbdXV1sFqtkJTRkcvlYrdbxsbG4sSJE3jjjTegVqvxxBNPwGg0or6+HmazGcePH0d9fT20Wi0LZ7VaGSGGh4ejsbERYWFhMJvNqK+vR0REBOx2O8LDw6FSqZiyjYmJAQAcO3YM1dXVrB5sNhvGjBmDOXPmIC4u7m8tkC5FNMc/f8d2pLqQOduDVqsV7777LsLCwjBs2DC0b9+eCVg+DIHCeZV748Gt1/L1SbKGlyH0TwKU3kW/fHhSZpIyQ+BUrgjh45G5zUI8SOnxcosH+aeRBh+e8kWKiDq8fLmdTie03FUbsrJmLCujOqormkkKCQlh5TGbzaiqqkJtbS1Lp6qqClqtFsnJyYiJiYGXO0Sp0+kQFhaGuLg4FBQUIDg4GKWlpXj88cfxwAMPYPLkycwuJMFnxEKZ9Cq9eSoE/DQyXxEeZZ5Q9M83APnnG5YHX0G8H3r2Kj0T+NmGTCB/krKlmPLgcDiY0qGG9gqmZ8gv/dRKD6ampgZqZcebShkJeZRpPMoHERHFJSmKihSb0+lkml6r7Md3Op3weDzQKLvIXC4XqqurUVFRgcrKSrz11lvIycnB1VdfjdmzZ7MhKdUPX/8BBHAxwx8vQ1kj+fe//42FCxdC4qaARPmg0Wig1WoREhICo9GIsLAwmEwmREZGsg6hzWYDlE0+RqMRer2eCVi1MpsQEhLCeDc0NBRJSUkIUs7UBQUFISwsjMVNm2VI5hCIZ4m3Icgsni9JLohKkOJ0Keuu/uQdHwcU2UoykGScGI4UHMVPde1VRogk28gvyT8oeZEUucnLWSqPWhnVuVwuQLkF+JprrsHdd9+NG2+8EWFhYSwuAJDcbrfcnJAS3fkC899EQqBvfEWLle+vp8HH469RRfCVKrrxld9cOSg/BDGv1KhiRVM4vnw8RDdZGWWREqGw5JeeXS4XzGYz9u/fj6effhq7du3CyJEj8fXXX7OpsAACuBQh0jyU81zPPvssPv74Y9x+++1ITEyE0+mE2+1GU1MTqqurYbPZmLCTFMEHRdkEBQXBq/SszWYz6urq0NjYyNYNeD5UcxuASNjzOy1JwKu5zUQUhvieBLtYFn8yBMr0VlhYGIxGI2Slg6vVamEymaDT6dDU1MQUIB2b0Cq7Us1mM8xmM1zKTlGDwQCPx8Pub6LZFj4tvV7PFAjlWausRScmJrKrOhobG2FTTHLRaCY9PR16vR4ulwshISEICwtjCjQoKAhBQUEoLS1FfHw87HY7CgoK8O677+KVV17BuHHjoBG2LUujR4+Wb7zxRvTq1QsxMTE+Asyf4BTfwRGNJAhdagQKx2tAHuTGp8c/U+9AzI/YoPw77w4/ysSfOw/RDx/OXzn49IlweTQXH707HA7k5+fj22+/xe+//86mxLp164ZPPvkECQkJJ6Ur5iGAAC5miPxqt9vxzDPP4OOPP8ZHH32EoUOHMmHvdDrZTknalSryDT2TgCSl5ODsF4p8xruRfKJ1EQpnsVig0WhgMplgMBjgcrnQ2NiImJgY2O12FtalTFXRiMnBHV+QufVblWJb0Ww2w+v1IiIiAl6vF3V1dUyeaJU1V7VaDbvdjrq6Op9NB3T2TlLMZR0/fpzZGrQr129QeFqW8ChrMGFhYcyKemFhIRoaGtgILygoCImJiTCbzThx4gQaGxuh1WoRHR2NiIgI1hkOVu7EiY2NRUFBAfLz81FeXo4ff/wRY8eOVVr1/0F666235B07dqCkpASDBw/GLbfcgqysrP/n4TTCi3r15I8ajW843p3Ax8v7gRAnVbwYFx+W3nkC4v3z72J5SFjz+aNnXkGIeWgOlF8x72KZaNja0NCANWvWYPHixSgvL0dJSQnS09MxdOhQLF26FN26dcOsWbPYoUw+nQACuBQg8hU92+12PPbYY/jiiy9w8803Y/jw4RgyZAiSkpKg4s7Mib1hf3x8Or7kw4j58CjTY6SMaMqcRgBeZR2Cdlbx4UhO0FovKRUC8T6lQUrEq+ykBSeDaIREfvk8UR1IyjS7xWJheeGnsSg8r1g1yhoNH86lLPJrNBqEhISgqamJjZBUyk43nU7H5B917DUaDQ4cOIDnnnsOwcHB+OqrrzBs2DCltP8PUlVVlbxz507k5eXB6/VCr9ejY8eOGDx4MFTcXB0L4KdBxUYjd/Hd37MICkfxij3/5sCn54/IKE36fqp88v/gFg2bi5t39/csCaOc3bt34/jx4zh8+DBycnJQWloKABg6dCjat2+P9PR0xMfH48EHH0SXLl3w73//m/U4mqu3AAK4WCHyA8HhcOCBBx5AWloa9Ho9amtrAQCDBg3CgAEDYDKZWDh/8MfHp4I/3qRnHmJc9J06ieRHDOcP/tLgZYnczJQ/n4fm0hch5kmsb3KD0KHmn5vzDy7N3bt347rrroPRaMRHH32EQYMGnVQXksfjkaFovV27dmHJkiWIiYnBQw89dNL0k5hxAlUQZY53by6z/uIif/Sdr3R/+fAXP++nuXcxLt6d3Pg8kHIT0xPLKkLiRiwAUFJSgt27d2PRokU4cuQIJElCQkICOnXqhB49emDw4MGIi4uDpBySHD9+PIYPH45//vOfCA8PPynvAQTgj/YvRvjjD7vdjuuvvx4vvvgiwsPDUVhYyOwMqtVqdOzYEX369EFUVBSb1hHLSDwquovv/tLnZQDvn59doH9/PH86iLKFT4/caVTmL15/aYoyiN55Nwojpu/vmeIgiHXB+zGbzfjzzz+xZMkS5ObmwuFw4K233sLgwYNPyj/bbizLMhYtWoSPPvoICQkJuPPOO+FVtpqpld0ANEQKDQ1Fhw4d2KFFfjGIhm9q5TBkcHAwtMqear1e76OsRE3NF5CHWGk8xMpxuVyw2+0IDQ2F7Gdnm9hI8BMHhB0RBLHCm8sTQeIUS01NDT744ANs3boVBoMBycnJyMrKQteuXZGSkoLIyEiEhISwsPX19ejatSvuvvtu/OMf/0BERAQg5FHMXwB/P8in6dRdLODzQ89WqxXjx4/H22+/jaysLKjValRVVSE3Nxf5+fnweDxsp1abNm3Qrl07tpBPcfjjQX/lFvlGDMeH4XvwBH/1KcYpgv8un2Z63l9c/Dd/8UOQU3w8/p6bi4Mg+9lgYbfbceTIEWzfvh1FRUVoaGiA1WrFsGHDsHbtWsycORP9+vUTYuJGLBaLBa+99hrefPNNREVFoVOnTnA6nQhWTqDSIlJwcDCMRiO6devGBCEdslGr1WhqakJTUxNUyjY/2vVAc3mkWEhLi42nVqvZNkG3YiRS4g5D0UIe5SVIOZ2rVkxrWywW5Ofnw2QyoVOnTkhISMDKlSvRq1cvSMo8psFgYAqT4iZlSAtkNpsN4eHhCFIsGdMcp1dZd6G5V0mZwxQbkvweP34cbdq0webNmzFz5kx06tQJ06ZNw8CBA5lNMPiZbquvr0dsbCxmzZqFe++9F2FhYewb+TsdoQTw94BId+R2sdGHmE+r1YopU6bglVdeQVZWFnQ6HfMjK/ax9u3bh7KyMmi1WmRmZqJXr17srMupeEBMi3fneZXgz43gj7dFv2Ld0z/lkZ6poykqLzE+gvidf+fjJfD+eD98Xng0Vx81NTXYu3cvdu/ejUOHDuHQoUNITEzEDTfcgD59+iA5ORkvvfQSJk2ahF69evmEBQDJ4XDIANDY2Igvv/wSn332GRobG9GmTRu0bdsWGsVECy1UUcb44ZvX64XBYIBer4fNZkNDQwM72CNxIxMa9fCVQwUi4U67GCRJgtlsRmNjI4KCgpiSoQvEVCoVM1dAaej1egBAWVkZu+8kLS0N7733Hp566immjMLCwpj5F0lZRHQqJhh0Oh0AoKKigu1nVymLXG7FZIQkSdApJ15pVEdMQe9arRa1tbXYuXMnOnfujD179mDBggWYNGkSHnjgAWRmZrJ64BuWnuvr6xEfH4933nkHU6dOZVsWyR/VaQABiMLlYgMvtHgBZ7Vaccstt+D5559HZmYm20rMw+PxIC8vD5s2bYLZbEavXr0wdOhQn5kIcLKE4hYFJfzwGfwIdFE2+YvvdHXN8ym4dKnzSG6kZPj28xeOnkWIfkVQvP78ifHKiuwqKytDTk4Odu3ahT/++ANFRUVMoY8bNw7du3eHWjlT8+STT+K6665Dnz59WPwE6aeffpLdbjf0ej2Kiorw22+/obCwEIMGDcL48eOZ0KQMms1mxMTEIDMzk40eamtrUVNTA1mxq+VRriwmc/ayYn+L352g1WrhdruZUHcpBuVI8LtcLlRWVqKhoYHt7+Z3ZriVE6te7oSqLMswmUzIyMjA0aNH8fjjj7OdFzfddBN0im0x8kujDkqfRi0ulwslJSVMEfK7LxobG9keebeyxVGl2BEipRms2C8rKSlBU1MTGhsbUV9fj6NHj0Kr1eKDDz7AlClTfBiJ6pcaur6+Hh06dMD//d//4dZbb/UxdyESRQABXMwQ6ZXe7XY7pk2bhpdeegkpKSk+0+QESbE3WFFRgY0bN2LdunV4/fXXGe8Qv1G8JKjpJ3GGGCldcud5jr7x6RIoLnLnyyGWifxQGJJR9Ozve3N54MF/F/PG++Hdm4u/uXLn5eVh4cKFWLlyJZqampCVlYVBgwbhyiuvRHJysk9cNpsNzz//PK677jr07t3bJ20AkAYNGiTbbDZ2CMbJXYoVEhICp9OJiIgIBAcHw+Px4Pfff0ePHj0wc+ZMpKSkAAB27dqFnJwcaDQahIWFQVb2lpNCsFqtcLvdiI2NhczZoHE6ncy0gKTsz46IiGAXi9E+7tDQUISHh0Oj0cBoNDIh7lTMbauUqTCaNqNRjcvlgsViYcrNYDDAYDAgWLELxhOJW9mCJynTZQ7lhsvo6GiEKMYoSfnRSIXWlGTFjALVIRGQXq9nBx6/+eYbrFy5EkOGDME///lP9OnTh61R0Y/i9Xq9aGhowODBg/Hoo49i6tSpCAkJ8Wk8sSEDCOBihj+h2NTUhOnTp+Pll19mgkv0A4U3T5w4gZ9++gm//fYb7rrrLhgMBsbvCQkJ0CiH+cg/LxuCgoKgVSxxSMoJfxrxyMr0O6VN/A1OidC6bXR0NJvR4PNIikvl56JBKreGM05LyoZkDZ8+KSFKg5QtyQVJmXrnIdYXDz4uKhdfVvo1NTXhzTffxGeffYbu3bvj8ccfx9ChQ9ksEr/JQJZlHDt2DM8++yxmzpyJwYMH+6QJANKRI0dkWTmQRApFrVajsrISVVVVqKmpYcqlsbERc+fOZf746bHY2FgkJyezdQ5a0KdGITtaVDlkcNGuWDIlUHxUEeSfGs5gMLDeOxmL0ylrMnblkJNK0awe5axIhw4dfBb0TSYTIiIi2EIgjZxo5AOlga1WK9LT05GamgqHwwGz2Qy9crkYlO2StOddqxiWo7wAQLt27VBVVYWDBw/ik08+QWNjI1555RVkZmZCp2yCICXnVA41OZWDYU6nE/fccw+ee+45ZqAPzdhGCiCAix0kwIg3oCiW++67Dy+88AKSk5MZn/NCEMrofenSpXjnnXcAAOnp6dDpdKitrYXVamWdLofDwTp81FGUZRlBygV+kmJZODo6GsGcyRaalYHC0zQjQXxmNptRU1OD6667DlB4kIS9WjnBr1U2KGmUQ5H82q9GsRJAPEuCXKesPRuNRuiUqXU6ZAnlNH1wcDC8yu21JOtoExTFRzKSV058/UFRtrySUXFGee12O7KzszF37lwcOHAAU6dOxRNPPMFsGlIYakNJknDkyBE8//zzeOCBB/wrFjLpwgfkNRqUSGmaiAf/nXejOMT46Lvon9KmyiAt7XQ6YbPZ4FXWcMgvKQQ67UruREg0UmhqamIHC+vq6qBWq1FdXY2GhgafynUqhitJETqdTmZSQqfTwWQyoV6xhEqmpUnx0ChHw11JTCOZuro6xMbGIjs7G42NjQgPD0enTp3Q2NiIqqoqRpSkYCldWsf5448/MH/+fIwaNYopRWqrAAK4FEEyQVIUwT/+8Q88+OCDSEhIgI7bUANFQFLHrampCRs2bEBeXh6uv/56JCYmsg4Z9fhJRlGPnlcSauVEutfrRXh4OFzKaXm3cgEflBmOJuV+JCiC3ev1wmg0IiMjA1arlRmftVgsqFcM1krKtLjVaoVduUxQlmVERESw2x4pLepkO51OWCwWFBcXQ1Km8zQaDezKDbOSclGgTrkmwGKxwGazMcVFdeVUBgQkg6jcVsVaPNURzf54Fbther0eXmVmhKb3XS4XrFYrsrKy8NBDD+H666+HTlkGEWVOcXEx3nzzTUydOhW9e/f2+QYo2415YU+VTIpBjFD2o0wghCN/vFLhFZO/eAkUPx8WSvz+FB4Pcue/kTaX/BwEEsMTxPogohUVJPwsoot5cym2figeygPvRwwLZVdGz5498cUXX2DYsGFsHjmAAC5FEE/xcsFqteLaa6/FsGHD4HA4EBwcjMjISDZtpdPp2DR8U1MTiouLkZ2djcrKSvTp0wepqanwKifZ3coabmhoKMLCwmAwGFjaBuUmVygmTCIjI9nsgEtZW6UpclJmDuX+Jr1yn0pjYyOKi4vRuXNnVh6a3SCBTqMCUnTgevqi/KFvDQ0N0Csn/KEoBVIg/C5al3JLLZWBBD59UytTauCOXJAS0SrXBxAkZfMRKdK6ujp4vV4cOnQIX3zxBXJycnD33XfjqaeeYml4ldGZpAwy8vPz8d577+Guu+5C3759WdwsDa/X+/+kWQAXDerq6hAfH49ly5Zh2LBhPoQEP0opgAsDYjISEIF2aDlIwBLMZjO6d++Ozz77DKmpqYiJiYFOp4PNZoPFYkFTUxMcitl3Gs3XK9dWqNVqhIaGsikmpzKFTD+v14umpiYcO3YMdXV1CAoKgt1uh1m534RmCAheZQaC1oNFEN9Rh5s6iVB4kRRHS0GGKGtqauBSNgmRYqApqujoaMTFxbHZDhplkDIJVo5bOBUT+mRPjGgUyjqvVqvF8ePHUVlZyWZ7rFYrO05RWVmJiooKVtdRUVEYPHgw+vXrB7VytshisaBdu3aIi4vDsWPHUFZWhsTERIwbNw6ZmZkIUixTEwKK5SJFTU0NEhISsHz5cgwdOhRBynkaBJTK/xQyN5WDQFu0GHydkWJubGxEt27dMH/+fHTq1MnngDDVM9E8/05rp+KMBvnzKGu2MncbJY1GKG3yw3cOPIqNLZpiVynHDGhqW6eY5CelQqMCnbKuSqMgio+mpGiaSVZGM5IydRYUFMQMQmo0GhgMBkjKBWQWi4UpTZo21yo7bu3KRWIq1f+/BmRVrBxTPmh041Fur3U4HDh27BgqKipY+Z1OJzt2UVFRgby8PBgMBvTr1w89evRAeHg4bDYbm2ZzKXe2REZGQq/XIyQkBAMGDED37t1hNBpP4oOAYrlIUVdXh+joaCxZsgQjRoxgO9OkwKjlokKgLc4cMndmokuXLli3bh06d+7MBCcJTKpbCFNKfDxyM2vCfFhyaw58vBSnGJ78iCMWL2eo1l9YGmGQm1gGGh2phHta+KUDt7L7jcpFipXi4kdOlAafB1mx4MyPqDzcXVBOpxNmsxlarRaRkZFsowOlReV1cte6q5TrnGmTgoiAYrlIUV1djbi4OKxcudLHnDiPUzFLABcG1CaBtjg9+LryeDwoKChAly5dsHPnTnTs2BE65VgALyDJf3Pu/uIW33m+4b+LfnmI3/yF4yH6E+EvHI0e+DyK6cp+FCevzE4HMR5KE0Ja4ihQzAe5UTlkpXNAnQARJ6uaAC4KUIOFcFeKQmlc+gXwv0egLc4cJJx0yoFlWqSGHwFOQozcRAFM4NvBnx9/33l/Il9RWuI7gd7FtER3gphfiltSRhz+4m7OPy8PaNQkhpGFtUB/MoT80XdeSVB85FcWrmCmMGK5CAHFcpGCGkyn7K+nRg4ggEsNvJAS3ekaYRV3PEEMRyAhJwq/M4UYBw8+n839i8+8mz93yiefXzEueuenq9DMrtPmwopl4v1R2nx85E+sAzEcufnLixiWEFAsFyFkWYbVaoXMXZkq+Zk3DiCASxFEy06nEyEhIWyrrT8hKYbheYDnC/EbmhF8/tx48Hwm+pM5oS6OMk4FvlzwEy/BnzufXz59AsVN7uRXTNMf/NU3pSeG5+uZ/J0KAcVyEUJWFtvo+XSNGEAAFzNEIUVQq9XMVJM/wdtcuNNBFIhogSA8U/jLW3NpiOUhIc2D/8a/+4MYltz8uYNTSHxd8H5Pldap6vJU4c5ZsYiZDKB1QFNg4vAzgAAudcjKlExYWFizu4p4nE7YikL5VBD9iO/kJsbX3PupwrcUYrzit5bG15yf5txFnC4t/vup/KE1FAua0aABnD0kZWETgM/pWwTqOoBLHLww0mq1aGxsPImmTyWwWgpe8IlCkHdvTTQXnz93MU/k1tw38buI04Xl0RI/54pzViwXIpN/R+h0OowePRobNmxgzEf1LDJiAAFc7BBnNmRl11Lv3r3xxx9/oKmpycd/AJc2AudYLlK43W4cPXoUgwYNwsaNG5GZmelzECugzAO4lECL3TT6JhouLS3FVVddhZ9//hlpaWlisAAuUZzziEUEEU2gV33usFqt8Hq9zA5PoF4DuBRBSoS2FEOZ6ZAVQ45hYWGnXWcJ4NLCeWvNQI/63EE2gMAt4hNDBhRMAJcK+Clc/tAeFMvAZH8rgL8OzktrBpTKuUNWzIaT0Tpw0wmnOvEaQAAXG6gjpFIs+PKdIqdyR0oAfy20umIJCLzWAd/LI0XCz08HEMClAn4ajJQIWRd2OBzQ6/UBufEXQ6srFhEBIXh2kGUZtbW1jAEhGK0LIIBLEXwniUbgWq02QNN/MZx3xRIgmLODLMvsilLedDV9CyCASw2SYC6FlIzFYglMh/3FcN4VSwBnD35umhR0YMQSwF8JdJ1vAH8tBBTLRQxaU+HXWwII4K8AGr24XK5AR+kviIBiuUhB89ABBPBXhtPpPMkIZQCXPgKK5SKGyGziewABXOpwOp2Bxfu/IAKK5SIFTRPQcwAB/BUgKhCn0wmdTneSewCXNgKK5SKGP8N8ASUTwF8FsmLSJaBY/noIKJaLFLIso6GhwWfxPoAA/iqgDpLH4wkolr8g/pKKhe/VN9fDb879YoEsy7DZbC0qSwABXKrweDw+xinB0bl8GisTp/p2OpxLWAh5/F9CTF+WZXg8HjgcDjidTp9vFxJ/KcXCE6L4zLuJ7qJ/f35FP+K3s0VzccrcNAHvl/8PIIBLEbIwCtdqtcxd5AV/fMa/i8+i39PhVOmJzy35vxjgdrtht9sDiqU14PV6YbfbYTabYbVa4XA4YLPZ4HQ64XQ6YbPZ0NTUBKvVCpfLdRLx8ITOExR/hoT23tMpYf5dJCx/ROnPnX/m05JlGXa7HXFxcaxHJ/bsAgjgUgNP8wAQHByM4OBgxkvgDgGL02MUln7kh3cjf8STfFr8M89r9M7nQYxf5HmCaJVZTPNCgS+HTqdDaGgo9Hq96O2C4S9z0VdjYyNyc3NRWFgIo9GIiIgINn/r9XqZYgn6/9o7f9+mmTCOf/3bTROrMZQWGkQZWKASExMsTPwJLMwMzGwsbAxd2SshNlhYgAUJCbFA1YEBBgQLQpRCQp2YOI1/5F38nB4frnhfCVrb732kyPb5fiV+nnueu3PuHAdHjhxBp9MB8gdC/2zPsgxpmkLTNPFufZIkSJJExKW1u2iv7jRNxZIrlIZvasSXu+dlcEGgvG3bFsZjMplgfX0db9++xYMHD3DixAlArRemqCFyQ0uymyQJXrx4gYcPH+LGjRvo9XqFVSYMwyjoYZZlBedK1/VCw65Je77wc9IZXhe6LtMlHo/02TTNQnxeH553WX5/i/3qf9g0xrB8/PgRjx8/xqtXrzCbzeD7fuFHj+MY4/EYrVYLrusiDEMMBgMkSQLLspBlGUajEUajEWzbRrfbhWVZ+PbtG4bDIabTKX7+/InJZALP83Dy5Enouo5+v4/d3V1omgbP82DbtthKuNVqwfM8tFotWJaFOI4RhiGGw6HYxIuWxjcMA4uLi5ifn8cs95CePHmCbreL169fo9fr/aIcVRQohaKMmdTLIAfr0aNHWF9fx+XLl7G2tgbXdaHny+t7nodjx47BNE30+31EUQQtNzKz2QydTkfoy3Q6heM48DxPOH1ZliFJEui6DtM0RZnIjY5lWZhJa/BR/bR8jT76aJom6kbfhcqk9NSWkL7/bfZrByi87N5B0RjDAmn7U7qmh07CAea9UBwKi+NYvOLrui7SNMX29jaCIECSJGJCjAR+PB7j8+fPwhi1222YponJZIK9vT1oebfUsizouo4kSTAejzEcDhFFkegN0XW328XRo0dh2zZ2d3dx9+5drKysYGNjA8vLy6Ku3EtTKOoGNeBxHOPevXu4c+cOlpaW0G63MRgMhO50Oh34vo80TfH161eMRiMgb8DpvmEYCMMQQRAI/SSnjoaCkiQRjiHp/dzcHFZXV+E4jtgTxrIsoauGYWA6nWI0GiHLMszNzcH3fSwsLMAwDOzs7CAIAvR6Pfi+D8Mw4DgOTp8+jStXruDcuXOF7/x/ozGGhVtv+ZyEic7LLD15IRTO03DjQ2hsyIviU1w65wZOzlM+ZlkGg23qFUURbt++ja2tLdy/fx/Hjx//JT2vj0JRVcocPtK3Z8+e4d27d7h69SoWFhaEHvAhaUg9nrL8UKL7XF+iKMJgMEAURXAcB+12G+12W+jedDoV65ZxHfzx4wfiOC6kAYAvX74gCAIsLy/Dtm30+32EYYjFxUWsrq6KofaDgH6XKtEYw0JwwSJhpG4x7/Lyh0Hn/JqEtWy9Lp6eC7r+L3Z2lNPK0L0wDHHz5k08f/4cT58+xalTp0rjKxR1gOQebO5jb28PGxsbCIIA169fh+/7QD66EIYhTNMUQ11cN7n+8HsoceIoDeWbpqmYt+HpKQ4dSa+50SL9pjrQMJvB9pah64PUVfk3oDAcovPZqDEVLnBgwoCSiTw+nMQNDr8vDzlxoeZGhOL+7iHytDyMf3jdwzBEFEUFgVYo6gbJLckxb4QBwPM84cBRuGVZIoxkv0z36CiXMWNvhlEc0zQL233zvOjcyOc76ZyGx0zTFOkojuM44oUbnvdhIbcj9L0Pg0YZlt/9kPJ9/uPLD0K+3i+M2C+cI+dPR/7h0FwNeU2QhEehqANleqbnowifPn3CZDIR8kz3Xdct/IerTD848j0qg5dbduTxZahMXjY//u78oJDLPujyy2iUYWkSmqbhzJkzOH/+PBzHEWFcARWKusF7EADQ7/cxPz9f6MWj5FViRb1QT66iWJaFa9eu4datW+h2u7906xWKOrFfL1vJdDNRhqWimKaJs2fP4tKlS3BdV4RXpaurUPwXyuRW0zSsrKzgw4cPh7r8iOLPowxLRdHySU4aDihTTIWiTsi9E13Xsba2hpcvX2I8HhfiKuqNMiwVhQ8b8Ml7haKOcHnm84RLS0t4//696rE0DGVYKoxhGIW3wMrGqBWKOkA9FdnA7OzsiH+uK5qDMiwVhd4A48NhCkWTyLIMm5ubuHjxIlqtlnxbUWNUi1VRaDyaei06W/xOoagrJNezfKXwN2/e4MKFC4e6xLviz6MMS0WRJznpqCbwFVWFnJ6yoVu65i+jJEmC7e1tsYKxojkow6JQKP4o5PxwJ0iT9kpB7ih9//69sPGeohn8A1X+pXNCmuYLAAAAAElFTkSuQmCC;" parent="1" vertex="1">
          <mxGeometry y="230" width="149.82" height="100" as="geometry" />
        </mxCell>
        <mxCell id="GZghd0yQkrCwtAf0KgPb-11" style="edgeStyle=orthogonalEdgeStyle;rounded=0;orthogonalLoop=1;jettySize=auto;html=1;entryX=0;entryY=0.5;entryDx=0;entryDy=0;" parent="1" source="GZghd0yQkrCwtAf0KgPb-2" target="GZghd0yQkrCwtAf0KgPb-5" edge="1">
          <mxGeometry relative="1" as="geometry" />
        </mxCell>
        <mxCell id="GZghd0yQkrCwtAf0KgPb-2" value="&lt;b&gt;Public Affairs&lt;/b&gt;" style="rounded=0;whiteSpace=wrap;html=1;fillColor=#dae8fc;gradientColor=#7ea6e0;strokeColor=#6c8ebf;" parent="1" vertex="1">
          <mxGeometry x="190" y="150" width="160" height="100" as="geometry" />
        </mxCell>
        <mxCell id="GZghd0yQkrCwtAf0KgPb-12" style="edgeStyle=orthogonalEdgeStyle;rounded=0;orthogonalLoop=1;jettySize=auto;html=1;entryX=0;entryY=0.5;entryDx=0;entryDy=0;" parent="1" source="GZghd0yQkrCwtAf0KgPb-3" target="GZghd0yQkrCwtAf0KgPb-6" edge="1">
          <mxGeometry relative="1" as="geometry" />
        </mxCell>
        <mxCell id="GZghd0yQkrCwtAf0KgPb-3" value="&lt;b&gt;Public Affairs&lt;/b&gt;" style="rounded=0;whiteSpace=wrap;html=1;fillColor=#dae8fc;gradientColor=#7ea6e0;strokeColor=#6c8ebf;" parent="1" vertex="1">
          <mxGeometry x="190" y="310" width="160" height="100" as="geometry" />
        </mxCell>
        <mxCell id="GZghd0yQkrCwtAf0KgPb-13" style="edgeStyle=orthogonalEdgeStyle;rounded=0;orthogonalLoop=1;jettySize=auto;html=1;" parent="1" source="GZghd0yQkrCwtAf0KgPb-5" target="GZghd0yQkrCwtAf0KgPb-7" edge="1">
          <mxGeometry relative="1" as="geometry" />
        </mxCell>
        <mxCell id="GZghd0yQkrCwtAf0KgPb-5" value="&lt;b&gt;Ministries&lt;/b&gt;" style="rounded=0;whiteSpace=wrap;html=1;fillColor=#d5e8d4;gradientColor=#97d077;strokeColor=#82b366;" parent="1" vertex="1">
          <mxGeometry x="420" y="150" width="160" height="100" as="geometry" />
        </mxCell>
        <mxCell id="GZghd0yQkrCwtAf0KgPb-14" style="edgeStyle=orthogonalEdgeStyle;rounded=0;orthogonalLoop=1;jettySize=auto;html=1;entryX=0;entryY=0.5;entryDx=0;entryDy=0;" parent="1" source="GZghd0yQkrCwtAf0KgPb-6" target="GZghd0yQkrCwtAf0KgPb-8" edge="1">
          <mxGeometry relative="1" as="geometry" />
        </mxCell>
        <mxCell id="GZghd0yQkrCwtAf0KgPb-6" value="&lt;b&gt;Ministries&lt;/b&gt;" style="rounded=0;whiteSpace=wrap;html=1;fillColor=#d5e8d4;gradientColor=#97d077;strokeColor=#82b366;" parent="1" vertex="1">
          <mxGeometry x="420" y="310" width="160" height="100" as="geometry" />
        </mxCell>
        <mxCell id="GZghd0yQkrCwtAf0KgPb-7" value="&lt;b&gt;PMO&lt;/b&gt;" style="rounded=0;whiteSpace=wrap;html=1;fillColor=#f8cecc;gradientColor=#ea6b66;strokeColor=#b85450;" parent="1" vertex="1">
          <mxGeometry x="650" y="150" width="160" height="100" as="geometry" />
        </mxCell>
        <mxCell id="GZghd0yQkrCwtAf0KgPb-8" value="&lt;b&gt;PMO&lt;/b&gt;" style="rounded=0;whiteSpace=wrap;html=1;fillColor=#f8cecc;gradientColor=#ea6b66;strokeColor=#b85450;" parent="1" vertex="1">
          <mxGeometry x="650" y="310" width="160" height="100" as="geometry" />
        </mxCell>
        <mxCell id="GZghd0yQkrCwtAf0KgPb-9" value="" style="rounded=0;whiteSpace=wrap;html=1;" parent="1" vertex="1">
          <mxGeometry x="80" y="600" width="790" height="400" as="geometry" />
        </mxCell>
        <mxCell id="GZghd0yQkrCwtAf0KgPb-10" value="&lt;b&gt;VPC&lt;/b&gt;" style="text;html=1;whiteSpace=wrap;strokeColor=none;fillColor=none;align=center;verticalAlign=middle;rounded=0;" parent="1" vertex="1">
          <mxGeometry x="440" y="600" width="60" height="30" as="geometry" />
        </mxCell>
        <mxCell id="GZghd0yQkrCwtAf0KgPb-21" style="edgeStyle=orthogonalEdgeStyle;rounded=0;orthogonalLoop=1;jettySize=auto;html=1;entryX=0;entryY=0.5;entryDx=0;entryDy=0;" parent="1" source="GZghd0yQkrCwtAf0KgPb-15" target="GZghd0yQkrCwtAf0KgPb-20" edge="1">
          <mxGeometry relative="1" as="geometry" />
        </mxCell>
        <mxCell id="GZghd0yQkrCwtAf0KgPb-15" value="&lt;b&gt;Public Subnet&lt;/b&gt;" style="rounded=0;whiteSpace=wrap;html=1;fillColor=#dae8fc;gradientColor=#7ea6e0;strokeColor=#6c8ebf;" parent="1" vertex="1">
          <mxGeometry x="180" y="650" width="160" height="100" as="geometry" />
        </mxCell>
        <mxCell id="GZghd0yQkrCwtAf0KgPb-23" style="edgeStyle=orthogonalEdgeStyle;rounded=0;orthogonalLoop=1;jettySize=auto;html=1;entryX=0;entryY=0.5;entryDx=0;entryDy=0;" parent="1" source="GZghd0yQkrCwtAf0KgPb-16" target="GZghd0yQkrCwtAf0KgPb-22" edge="1">
          <mxGeometry relative="1" as="geometry" />
        </mxCell>
        <mxCell id="GZghd0yQkrCwtAf0KgPb-16" value="&lt;b&gt;Public Subnet&lt;/b&gt;" style="rounded=0;whiteSpace=wrap;html=1;fillColor=#dae8fc;gradientColor=#7ea6e0;strokeColor=#6c8ebf;" parent="1" vertex="1">
          <mxGeometry x="180" y="820" width="160" height="100" as="geometry" />
        </mxCell>
        <mxCell id="GZghd0yQkrCwtAf0KgPb-19" style="edgeStyle=orthogonalEdgeStyle;rounded=0;orthogonalLoop=1;jettySize=auto;html=1;entryX=0.5;entryY=0;entryDx=0;entryDy=0;" parent="1" source="GZghd0yQkrCwtAf0KgPb-17" target="GZghd0yQkrCwtAf0KgPb-16" edge="1">
          <mxGeometry relative="1" as="geometry">
            <Array as="points">
              <mxPoint x="250" y="793" />
              <mxPoint x="250" y="820" />
            </Array>
          </mxGeometry>
        </mxCell>
        <mxCell id="GZghd0yQkrCwtAf0KgPb-17" value="" style="fontColor=#0066CC;verticalAlign=top;verticalLabelPosition=bottom;labelPosition=center;align=center;html=1;outlineConnect=0;fillColor=#CCCCCC;strokeColor=#6881B3;gradientColor=none;gradientDirection=north;strokeWidth=2;shape=mxgraph.networks.wireless_modem;" parent="1" vertex="1">
          <mxGeometry x="30" y="750" width="100" height="85" as="geometry" />
        </mxCell>
        <mxCell id="GZghd0yQkrCwtAf0KgPb-18" style="edgeStyle=orthogonalEdgeStyle;rounded=0;orthogonalLoop=1;jettySize=auto;html=1;entryX=0.458;entryY=1.006;entryDx=0;entryDy=0;entryPerimeter=0;" parent="1" source="GZghd0yQkrCwtAf0KgPb-17" target="GZghd0yQkrCwtAf0KgPb-15" edge="1">
          <mxGeometry relative="1" as="geometry" />
        </mxCell>
        <mxCell id="GZghd0yQkrCwtAf0KgPb-29" style="edgeStyle=orthogonalEdgeStyle;rounded=0;orthogonalLoop=1;jettySize=auto;html=1;" parent="1" source="GZghd0yQkrCwtAf0KgPb-20" target="GZghd0yQkrCwtAf0KgPb-28" edge="1">
          <mxGeometry relative="1" as="geometry" />
        </mxCell>
        <mxCell id="GZghd0yQkrCwtAf0KgPb-20" value="&lt;b&gt;Private Subnet&lt;/b&gt;" style="rounded=0;whiteSpace=wrap;html=1;fillColor=#f8cecc;gradientColor=#ea6b66;strokeColor=#b85450;" parent="1" vertex="1">
          <mxGeometry x="480" y="650" width="160" height="100" as="geometry" />
        </mxCell>
        <mxCell id="GZghd0yQkrCwtAf0KgPb-22" value="&lt;b&gt;Private Subnet&lt;/b&gt;" style="rounded=0;whiteSpace=wrap;html=1;fillColor=#f8cecc;gradientColor=#ea6b66;strokeColor=#b85450;" parent="1" vertex="1">
          <mxGeometry x="480" y="820" width="160" height="100" as="geometry" />
        </mxCell>
        <mxCell id="GZghd0yQkrCwtAf0KgPb-26" value="&lt;b&gt;1a&lt;/b&gt;" style="text;html=1;whiteSpace=wrap;strokeColor=none;fillColor=none;align=center;verticalAlign=middle;rounded=0;" parent="1" vertex="1">
          <mxGeometry x="120" y="680" width="60" height="30" as="geometry" />
        </mxCell>
        <mxCell id="GZghd0yQkrCwtAf0KgPb-27" value="&lt;b&gt;1b&lt;/b&gt;" style="text;html=1;whiteSpace=wrap;strokeColor=none;fillColor=none;align=center;verticalAlign=middle;rounded=0;" parent="1" vertex="1">
          <mxGeometry x="120" y="860" width="60" height="30" as="geometry" />
        </mxCell>
        <mxCell id="GZghd0yQkrCwtAf0KgPb-28" value="&lt;b&gt;NAT&lt;/b&gt;" style="ellipse;whiteSpace=wrap;html=1;fillColor=#ffcd28;gradientColor=#ffa500;strokeColor=#d79b00;" parent="1" vertex="1">
          <mxGeometry x="280" y="650" width="60" height="40" as="geometry" />
        </mxCell>
      </root>
    </mxGraphModel>
  </diagram>
</mxfile>
